<?xml version="1.0" standalone="no"?>
<!DOCTYPE svg PUBLIC "-//W3C//DTD SVG 20010904//EN"
 "http://www.w3.org/TR/2001/REC-SVG-20010904/DTD/svg10.dtd">
<svg version="1.0" xmlns="http://www.w3.org/2000/svg"
 width="2324.117587pt" height="2324.060004pt" viewBox="0 0 2324.117587 2324.060004"
 preserveAspectRatio="xMidYMid meet">
<metadata>
Created by potrace 1.16, written by Peter Selinger 2001-2019
</metadata>
<g transform="translate(0.000000,2324.060004) scale(0.100000,-0.100000)"
fill="#ffffff" stroke="none">

<path d="M14883 23233 c32 -2 81 -2 110 0 29 2 3 3 -58 3 -60 0 -84 -1 -52 -3z"/>
<path d="M16808 23233 c28 -2 76 -2 105 0 28 2 5 3 -53 3 -58 0 -81 -1 -52 -3z"/>
<path d="M18008 23233 c46 -2 118 -2 160 0 42 1 5 3 -83 3 -88 0 -123 -2 -77
-3z"/>
<path d="M22204 23231 c5 -8 48 -14 206 -30 95 -9 281 -70 395 -129 17 -9 50
-26 75 -39 70 -36 164 -111 254 -200 46 -46 88 -83 94 -83 9 0 12 57 12 208 0
309 53 282 -552 282 -270 0 -487 -4 -484 -9z"/>
<path d="M11222 20231 c-31 -19 -33 -70 -33 -901 1 -835 1 -835 26 -857 41
-36 92 -42 133 -15 10 7 13 176 17 812 5 787 5 803 26 836 11 18 29 36 39 39
11 3 68 3 127 -1 59 -3 158 -8 218 -10 239 -9 306 -18 375 -50 62 -29 128 -91
157 -149 24 -46 64 -212 60 -245 -8 -68 -47 -194 -66 -214 -10 -12 -22 -30
-25 -42 -4 -11 -25 -34 -49 -51 -121 -87 -214 -106 -499 -106 -196 1 -222 -4
-195 -40 8 -11 34 -19 77 -23 72 -7 102 -20 174 -72 58 -42 224 -235 265 -306
16 -28 51 -80 77 -114 27 -35 58 -76 69 -90 51 -67 135 -143 179 -162 35 -15
65 -19 114 -17 65 2 67 3 70 29 2 17 -4 33 -17 45 -11 10 -47 43 -79 73 -32
30 -67 62 -78 72 -10 9 -37 41 -59 73 -22 31 -52 71 -66 88 -14 18 -46 61 -70
97 -25 36 -84 106 -132 155 -48 50 -86 97 -85 105 3 11 18 15 58 16 101 2 199
16 211 30 6 8 18 14 25 14 30 0 121 61 162 109 47 54 101 153 102 186 0 11 7
42 15 69 21 70 19 133 -10 232 -32 111 -84 195 -162 258 -127 105 -257 127
-779 131 -199 1 -367 0 -372 -4z"/>
<path d="M10514 20150 c-28 -4 -62 -14 -75 -23 -13 -9 -60 -20 -103 -26 -44
-6 -108 -20 -144 -31 -35 -11 -82 -20 -103 -20 -22 0 -56 -7 -76 -15 -21 -9
-73 -20 -118 -25 -44 -5 -111 -19 -150 -31 -38 -11 -86 -20 -106 -20 -40 1
-135 -21 -169 -39 -32 -17 -41 -52 -29 -117 6 -32 17 -71 25 -88 7 -16 18 -67
24 -113 6 -46 17 -101 25 -122 8 -22 19 -76 25 -120 6 -44 18 -96 26 -116 8
-20 19 -74 25 -121 5 -46 16 -100 24 -119 7 -18 19 -68 24 -110 6 -42 13 -80
16 -84 3 -5 14 -65 24 -134 11 -69 23 -130 26 -136 8 -14 35 -169 35 -206 0
-17 7 -38 16 -45 11 -9 14 -23 11 -46 -5 -28 -2 -36 19 -50 21 -13 31 -14 63
-4 21 6 55 11 75 11 21 0 46 5 56 10 24 13 165 40 206 40 18 0 45 7 60 15 16
8 43 15 59 15 32 1 112 17 210 44 32 9 76 16 97 16 20 0 60 9 88 20 28 11 73
20 101 20 61 0 141 25 165 51 16 18 16 22 1 76 -9 31 -26 66 -36 77 -22 22
-18 23 -156 -39 -27 -12 -66 -26 -85 -30 -19 -4 -59 -21 -89 -36 -30 -16 -61
-29 -70 -29 -9 0 -40 -9 -69 -20 -29 -11 -65 -20 -80 -20 -15 0 -41 -9 -58
-19 -17 -10 -51 -22 -75 -26 -24 -3 -71 -15 -103 -26 -33 -11 -87 -23 -121
-26 -58 -5 -63 -4 -88 22 -19 21 -29 48 -38 99 -6 39 -20 103 -30 141 -10 39
-23 108 -29 155 -6 47 -18 108 -25 135 -24 85 -35 218 -19 234 8 9 49 17 116
22 57 4 126 12 155 18 28 6 169 12 313 15 144 3 265 8 270 11 15 9 0 138 -18
153 -24 19 -134 14 -225 -9 -45 -12 -109 -22 -142 -23 -33 -1 -80 -10 -105
-19 -25 -10 -85 -26 -135 -37 -49 -10 -108 -26 -130 -34 -22 -8 -57 -15 -77
-16 -30 0 -41 6 -62 33 -15 19 -26 47 -26 64 0 17 -6 35 -13 41 -8 7 -14 37
-15 80 0 42 -9 88 -20 118 -11 27 -23 85 -27 129 -4 43 -13 93 -20 110 -7 16
-9 39 -5 50 4 11 5 25 3 31 -7 20 25 35 105 48 43 7 90 20 103 29 18 13 48 17
139 18 67 0 147 7 190 16 81 18 411 25 441 10 13 -6 22 1 39 28 42 69 3 178
-64 174 -11 -1 -44 -5 -72 -9z"/>
<path d="M13568 20030 c-13 -8 -14 -15 -6 -38 8 -22 7 -36 -9 -72 -11 -25 -23
-52 -27 -60 -3 -8 -20 -35 -36 -60 -16 -25 -39 -63 -51 -85 -12 -22 -29 -48
-37 -58 -9 -10 -25 -34 -37 -52 -11 -19 -41 -66 -68 -105 -26 -38 -53 -82 -59
-98 -7 -15 -17 -34 -23 -42 -6 -8 -19 -36 -29 -62 -10 -27 -21 -48 -26 -48
-12 0 -75 -91 -97 -141 -11 -25 -36 -67 -55 -94 -20 -28 -46 -70 -58 -95 -13
-25 -40 -70 -60 -100 -78 -115 -114 -173 -136 -220 -9 -19 -25 -45 -37 -57
-13 -15 -21 -37 -21 -65 -1 -41 0 -43 41 -57 34 -12 48 -13 83 -2 39 12 43 17
86 109 97 207 107 222 172 281 35 31 78 59 95 63 18 4 91 8 164 9 121 1 136
-1 185 -24 29 -13 69 -31 88 -40 74 -31 260 -230 260 -278 0 -8 7 -27 16 -44
8 -16 18 -59 21 -95 6 -71 37 -192 59 -227 11 -18 20 -21 43 -17 16 4 32 1 35
-5 11 -16 41 -13 65 7 20 16 21 21 10 77 -6 33 -20 87 -30 120 -10 33 -21 80
-25 105 -3 25 -14 77 -24 115 -10 39 -22 102 -26 140 -3 39 -15 92 -25 118
-11 26 -19 65 -19 86 0 20 -11 75 -25 121 -14 46 -25 100 -25 119 0 20 -9 70
-20 111 -11 41 -20 86 -20 99 0 13 -9 54 -20 92 -11 37 -27 107 -35 156 -34
209 -87 398 -115 413 -24 13 -120 12 -142 0z m52 -256 c0 -28 17 -108 30 -139
5 -11 16 -66 25 -123 9 -57 20 -113 26 -125 5 -12 16 -62 24 -112 8 -49 21
-117 29 -150 40 -164 66 -293 66 -323 0 -39 -28 -56 -44 -27 -25 44 -130 130
-178 147 -18 6 -46 22 -61 35 -16 12 -41 23 -57 23 -15 0 -33 6 -39 14 -7 8
-33 16 -59 19 -26 3 -62 9 -80 13 -26 5 -40 2 -62 -15 -33 -24 -51 -26 -68 -9
-16 16 -15 33 1 50 7 7 27 42 44 78 17 36 50 94 72 130 23 36 46 76 53 90 6
14 28 59 49 100 21 41 56 112 78 157 22 44 45 84 51 88 5 3 10 13 10 21 0 23
53 84 73 84 12 0 17 -8 17 -26z"/>
<path d="M8765 19720 c-33 -14 -66 -50 -61 -68 2 -9 8 -33 11 -52 4 -19 16
-47 26 -61 10 -14 21 -38 24 -55 4 -16 19 -54 33 -84 14 -30 38 -84 55 -120
16 -36 37 -81 47 -100 10 -19 21 -51 25 -70 4 -19 16 -46 26 -59 24 -30 10
-61 -29 -62 -15 0 -34 -2 -42 -4 -67 -16 -161 -37 -190 -41 -55 -10 -170 -52
-230 -86 -115 -65 -243 -193 -315 -317 -22 -38 -35 -50 -50 -49 -21 3 -56 64
-76 133 -11 40 -35 96 -71 167 -10 20 -25 56 -32 80 -25 76 -83 231 -106 283
-46 103 -43 100 -82 99 -19 -1 -53 -10 -74 -20 -37 -18 -39 -21 -38 -67 0 -32
7 -56 22 -76 11 -16 24 -42 28 -57 4 -16 15 -42 25 -59 10 -16 30 -61 44 -100
15 -38 35 -84 46 -101 10 -17 19 -39 19 -48 0 -16 14 -48 110 -251 38 -81 140
-325 158 -380 14 -40 63 -157 95 -226 14 -29 28 -70 32 -89 4 -19 15 -48 25
-65 9 -16 21 -43 25 -60 11 -47 23 -55 80 -55 47 0 56 4 79 31 14 17 26 38 26
47 0 23 -31 104 -47 123 -7 8 -13 19 -13 24 0 10 -24 64 -76 170 -65 134 -84
199 -84 283 0 54 5 84 15 98 8 10 20 37 26 58 6 22 22 56 35 75 13 20 24 41
24 47 0 9 73 80 157 154 30 25 139 100 178 121 17 9 44 23 60 32 17 9 38 17
47 17 10 0 34 9 55 19 21 11 57 22 81 26 36 6 46 3 73 -19 17 -14 34 -26 38
-26 22 0 136 -232 155 -315 4 -16 13 -37 20 -45 7 -8 23 -44 35 -80 13 -36 38
-97 57 -136 19 -40 34 -76 34 -81 0 -4 9 -24 19 -44 11 -20 22 -51 25 -69 5
-37 19 -50 56 -50 29 0 95 41 110 70 10 19 -11 77 -70 190 -10 19 -21 51 -25
70 -4 19 -13 42 -20 50 -7 8 -25 47 -40 85 -30 78 -77 189 -105 250 -11 22
-28 67 -40 99 -11 32 -34 84 -50 115 -16 31 -42 92 -59 136 -16 44 -53 132
-80 195 -28 62 -51 120 -51 128 0 8 -6 26 -14 40 -28 52 -66 145 -66 161 0 23
-62 81 -85 80 -11 0 -29 -4 -40 -9z"/>
<path d="M14930 19675 c-5 -14 -18 -44 -29 -68 -10 -23 -22 -53 -26 -67 -4
-14 -25 -61 -45 -105 -20 -44 -40 -95 -43 -113 -4 -19 -18 -47 -32 -64 -14
-16 -25 -39 -25 -50 0 -11 -7 -32 -15 -46 -8 -15 -26 -54 -40 -87 -15 -33 -30
-68 -35 -77 -5 -9 -28 -63 -50 -120 -23 -56 -47 -110 -55 -119 -8 -8 -15 -23
-15 -33 0 -9 -13 -42 -28 -74 -16 -31 -39 -86 -52 -121 -13 -34 -31 -79 -42
-99 -10 -20 -18 -41 -18 -47 0 -6 -14 -33 -30 -59 -17 -27 -34 -62 -37 -80 -3
-17 -17 -44 -30 -60 -37 -44 -29 -103 17 -134 23 -16 46 -22 70 -20 29 3 37 8
45 34 6 17 15 37 21 45 20 25 114 238 121 271 3 18 12 40 19 48 16 19 84 185
84 205 0 18 39 45 66 45 12 0 32 -8 45 -18 13 -11 37 -22 53 -26 16 -4 41 -16
54 -27 14 -10 29 -19 34 -19 9 0 174 -78 208 -99 25 -15 120 -52 215 -83 173
-58 355 -35 485 61 65 48 145 138 161 182 54 145 69 258 46 340 -8 30 -18 66
-21 81 -3 15 -12 33 -19 40 -23 24 -67 98 -67 112 0 7 -14 19 -31 26 -17 7
-37 24 -46 36 -9 14 -29 26 -49 30 -19 3 -39 14 -44 24 -5 10 -25 20 -43 24
-18 3 -49 17 -67 31 -19 14 -39 25 -46 25 -14 0 -148 63 -167 78 -7 5 -34 16
-62 25 -90 28 -138 48 -163 67 -14 11 -34 20 -46 20 -12 0 -41 14 -64 31 -24
17 -60 33 -82 36 -22 3 -43 10 -46 14 -10 16 -24 9 -34 -16z m230 -155 c6 -11
23 -23 38 -27 15 -3 41 -15 57 -25 17 -10 42 -18 58 -18 16 0 27 -5 27 -14 0
-13 61 -40 130 -55 47 -11 128 -47 146 -66 9 -8 25 -20 37 -27 38 -20 107 -82
107 -95 0 -7 15 -30 33 -50 28 -31 36 -52 47 -115 15 -90 0 -218 -31 -278 -11
-19 -19 -41 -19 -48 0 -23 -127 -140 -175 -161 -48 -21 -73 -27 -165 -36 -47
-5 -74 1 -175 34 -66 22 -142 48 -170 60 -27 11 -81 29 -118 40 -37 12 -78 27
-90 35 -12 8 -39 17 -59 20 -24 4 -38 12 -38 22 0 8 -11 20 -25 26 -20 9 -25
19 -25 45 0 19 11 55 25 81 14 26 25 54 25 62 0 8 9 30 20 48 11 18 20 40 20
50 0 10 6 26 14 37 7 11 30 61 51 110 89 212 140 314 171 343 31 27 70 29 84
2z"/>
<path d="M7026 18865 c-9 -14 -21 -25 -26 -25 -10 0 -67 -36 -120 -75 -19 -15
-50 -36 -69 -46 -18 -11 -35 -29 -38 -40 -3 -10 -16 -22 -29 -25 -14 -4 -30
-14 -37 -24 -6 -9 -30 -27 -52 -39 -73 -40 -142 -91 -204 -151 -14 -14 -61
-43 -103 -64 -43 -21 -78 -41 -78 -45 0 -4 -17 -17 -38 -29 -21 -11 -46 -30
-57 -42 -10 -11 -23 -20 -30 -20 -7 0 -20 -9 -31 -21 -10 -11 -32 -26 -49 -33
-76 -32 -86 -86 -29 -160 31 -41 40 -47 63 -41 14 3 31 13 36 22 6 9 34 44 63
79 28 34 52 66 52 71 0 4 21 28 46 53 25 25 75 75 110 113 51 53 70 67 94 67
23 0 31 -5 36 -25 3 -14 15 -30 25 -35 10 -6 31 -32 46 -58 14 -26 40 -64 57
-84 53 -63 77 -95 89 -115 7 -11 26 -39 42 -63 17 -24 35 -52 42 -64 7 -12 22
-32 33 -46 24 -29 58 -76 97 -138 16 -24 43 -61 61 -84 17 -22 32 -45 32 -50
0 -6 15 -28 33 -49 52 -61 77 -96 77 -108 0 -6 9 -20 20 -31 17 -17 45 -56 85
-119 64 -99 106 -160 119 -170 9 -8 16 -19 16 -25 0 -19 62 -74 92 -81 22 -6
34 0 72 35 25 24 46 46 46 50 0 13 -77 124 -102 147 -13 11 -34 38 -48 58 -14
20 -35 49 -47 65 -13 15 -23 32 -23 38 0 5 -7 12 -15 15 -8 4 -23 24 -35 47
-11 22 -25 40 -30 40 -6 0 -16 12 -22 28 -7 15 -23 40 -35 55 -13 16 -23 33
-23 39 0 6 -12 24 -26 42 -39 48 -72 98 -90 136 -9 19 -25 41 -35 48 -20 14
-61 70 -171 236 -37 56 -75 110 -85 121 -10 11 -27 33 -39 50 -11 16 -41 61
-67 98 -58 85 -62 125 -16 158 43 30 117 67 151 74 15 4 32 13 36 22 5 8 33
21 63 28 30 8 83 21 119 30 74 18 100 37 100 74 0 84 -114 148 -154 86z"/>
<path d="M16643 18828 c-23 -29 -79 -115 -91 -138 -19 -38 -60 -92 -82 -107
-11 -8 -20 -20 -20 -27 0 -7 -11 -23 -25 -36 -14 -13 -25 -28 -25 -34 0 -10
-86 -145 -111 -174 -40 -47 -109 -143 -109 -151 0 -5 -15 -27 -32 -50 -18 -22
-49 -63 -68 -91 -19 -28 -55 -78 -80 -110 -25 -32 -67 -91 -95 -131 -27 -40
-62 -86 -76 -103 -14 -17 -34 -45 -42 -63 -9 -17 -35 -52 -56 -77 -36 -41 -59
-99 -50 -124 7 -16 201 -172 214 -172 7 0 32 -16 55 -35 23 -19 47 -35 52 -35
6 0 27 -15 48 -32 20 -18 50 -41 66 -50 16 -10 56 -38 89 -63 33 -24 97 -69
142 -99 45 -30 96 -69 114 -85 18 -17 38 -31 45 -31 7 0 34 -18 59 -40 25 -22
51 -40 56 -40 30 0 81 34 105 69 23 35 25 45 16 66 -15 33 -59 60 -93 57 -17
-1 -36 5 -48 17 -10 10 -32 22 -49 25 -16 4 -39 18 -51 31 -14 17 -31 25 -52
25 -22 0 -32 5 -36 20 -4 14 -14 20 -36 20 -17 0 -38 6 -46 14 -9 8 -68 42
-131 76 -63 35 -128 73 -143 86 -16 13 -35 24 -43 24 -8 0 -27 12 -42 28 -15
15 -40 32 -56 37 -41 14 -63 82 -41 125 8 16 24 34 34 40 11 5 24 25 31 44 6
19 22 42 35 50 14 9 34 35 46 59 12 23 29 50 37 60 9 10 25 33 37 52 43 71
114 172 130 185 9 7 23 26 30 40 8 15 30 35 50 44 34 17 36 16 80 -10 25 -14
45 -29 45 -33 0 -4 16 -15 35 -24 19 -9 35 -23 35 -32 0 -8 12 -22 28 -32 35
-22 69 -55 366 -354 74 -75 95 -77 136 -12 34 53 38 96 13 117 -10 8 -43 36
-73 61 -30 26 -71 54 -90 62 -19 8 -55 32 -80 53 -25 20 -68 49 -95 64 -59 31
-141 87 -170 116 -12 11 -25 20 -30 20 -19 0 -85 53 -110 90 -29 42 -28 45 18
101 16 19 58 79 94 134 36 55 81 117 99 138 19 20 34 41 34 45 0 4 14 22 30
40 17 18 30 39 30 45 1 20 71 67 100 67 18 0 33 -8 44 -25 9 -14 21 -25 27
-25 12 0 91 -63 155 -125 23 -22 65 -58 93 -80 55 -41 115 -99 238 -228 40
-42 82 -81 93 -87 11 -6 27 -26 34 -45 21 -50 57 -64 101 -40 19 10 38 27 41
39 4 12 15 27 25 34 24 17 24 57 2 78 -10 9 -41 30 -68 47 -28 18 -67 44 -86
60 -20 15 -40 27 -46 27 -5 0 -20 11 -33 25 -13 14 -28 25 -34 25 -13 0 -80
45 -127 85 -54 46 -109 88 -140 107 -15 9 -30 21 -33 27 -6 9 -112 72 -188
112 -17 9 -54 39 -83 67 -72 71 -147 101 -172 70z"/>
<path d="M18052 17729 c-9 -11 -55 -55 -102 -96 -47 -42 -164 -151 -260 -243
-175 -166 -246 -232 -308 -286 -18 -16 -88 -83 -155 -149 -133 -130 -175 -196
-198 -305 -17 -79 -4 -264 20 -304 10 -17 22 -44 25 -60 4 -16 18 -43 32 -59
13 -16 24 -33 24 -39 0 -11 87 -105 182 -197 97 -95 239 -201 268 -201 9 0 34
-10 55 -21 37 -20 78 -29 196 -45 39 -5 54 -2 93 21 25 15 46 31 46 35 0 4 46
50 103 100 56 51 158 147 227 214 69 67 175 167 235 222 61 56 135 125 166
155 30 30 86 79 123 109 97 79 196 178 196 197 0 23 -84 103 -108 103 -12 0
-34 -12 -49 -26 -69 -63 -171 -160 -316 -301 -87 -84 -161 -153 -165 -153 -5
0 -55 -46 -113 -102 -57 -57 -145 -139 -194 -183 -50 -45 -102 -92 -116 -105
-102 -95 -195 -128 -319 -112 -74 9 -88 15 -168 68 -110 74 -239 207 -257 264
-4 14 -19 41 -32 61 -30 46 -48 189 -32 259 16 66 67 159 113 207 23 23 47 48
54 55 7 7 37 36 67 63 30 28 69 64 87 80 18 17 64 56 102 88 38 33 92 83 120
112 28 29 101 96 161 149 61 54 138 124 171 157 34 32 68 59 75 59 36 1 99 90
99 139 0 15 -47 63 -77 79 -31 17 -51 15 -71 -9z"/>
<path d="M5018 17208 c-22 -24 -49 -60 -59 -81 -11 -21 -26 -40 -34 -43 -8 -3
-23 -20 -34 -37 -36 -58 -83 -122 -96 -132 -7 -6 -40 -44 -74 -85 -33 -41 -74
-89 -91 -107 -16 -18 -30 -39 -30 -47 0 -9 -9 -20 -20 -26 -11 -6 -27 -25 -36
-43 -10 -18 -25 -38 -35 -45 -11 -7 -19 -19 -19 -26 0 -8 -24 -38 -53 -67 -29
-30 -67 -76 -85 -102 -32 -48 -32 -48 -13 -86 11 -20 29 -41 40 -47 21 -9 106
-80 146 -121 12 -13 26 -23 31 -23 5 0 34 -18 64 -40 30 -22 66 -48 80 -57 14
-10 31 -26 38 -35 7 -10 19 -18 25 -18 7 0 37 -24 68 -53 31 -28 89 -77 129
-107 40 -30 94 -74 119 -96 25 -23 60 -50 77 -61 18 -10 58 -42 90 -70 33 -29
73 -62 91 -75 17 -13 64 -50 104 -83 39 -33 79 -64 88 -70 9 -5 34 -26 57 -46
64 -57 79 -63 118 -44 20 10 39 28 44 43 9 25 36 60 96 122 38 39 126 148 126
156 0 3 9 16 20 28 42 46 93 112 103 133 5 13 21 30 34 38 12 9 23 20 23 27 0
6 15 27 33 48 64 74 94 116 101 137 4 12 16 25 27 28 10 4 19 10 19 15 0 5 18
27 39 48 22 21 44 56 50 77 9 33 7 42 -10 67 -20 27 -85 68 -110 68 -15 0 -38
-31 -39 -52 0 -9 -11 -30 -25 -46 -14 -17 -25 -36 -25 -43 0 -8 -14 -34 -30
-58 -17 -24 -30 -49 -30 -56 0 -7 -14 -31 -30 -54 -17 -23 -35 -52 -41 -64 -5
-12 -23 -44 -40 -72 -16 -27 -36 -64 -44 -81 -8 -17 -21 -34 -30 -38 -9 -3
-23 -22 -31 -41 -8 -20 -23 -44 -34 -55 -11 -11 -20 -26 -20 -34 0 -8 -8 -21
-18 -28 -11 -7 -24 -24 -31 -36 -22 -42 -83 -102 -103 -102 -36 0 -108 44
-195 120 -28 25 -73 62 -100 82 -26 20 -79 62 -118 93 -227 183 -227 183 -201
232 16 32 307 333 321 333 5 0 30 21 56 46 25 25 79 69 120 98 60 42 76 59 83
88 8 33 6 39 -30 82 -51 61 -87 63 -133 9 -78 -94 -98 -116 -122 -141 -15 -15
-44 -54 -64 -87 -21 -33 -71 -99 -111 -147 -41 -48 -74 -90 -74 -94 0 -9 -48
-69 -88 -110 -44 -45 -87 -46 -135 -4 -19 17 -39 30 -45 30 -10 0 -152 119
-238 201 -23 22 -45 39 -48 39 -20 0 -87 67 -96 96 -10 28 -8 38 14 72 13 22
44 60 68 85 24 25 60 68 81 96 21 28 43 51 48 51 5 0 78 69 161 153 141 141
187 180 276 238 34 23 48 55 38 92 -7 24 -95 87 -122 87 -10 0 -35 -19 -56
-42z"/>
<path d="M11520 17104 c-118 -15 -243 -30 -340 -39 -35 -4 -76 -13 -90 -20
-14 -7 -45 -16 -70 -20 -25 -4 -88 -18 -140 -32 -52 -14 -120 -29 -150 -33
-30 -4 -68 -13 -84 -19 -15 -6 -60 -15 -100 -20 -77 -9 -253 -53 -301 -76 -16
-8 -46 -17 -66 -20 -19 -3 -53 -14 -75 -25 -21 -11 -61 -27 -89 -35 -27 -8
-70 -21 -95 -29 -25 -8 -85 -27 -135 -42 -49 -15 -106 -35 -125 -45 -147 -74
-239 -117 -264 -123 -16 -4 -41 -16 -54 -27 -14 -10 -31 -19 -38 -19 -7 0 -52
-20 -100 -45 -47 -25 -91 -45 -98 -45 -7 0 -21 -9 -30 -19 -10 -11 -29 -22
-44 -26 -14 -3 -39 -17 -55 -31 -16 -13 -36 -24 -46 -24 -10 0 -26 -9 -36 -20
-9 -10 -33 -24 -53 -31 -41 -13 -89 -43 -152 -94 -82 -65 -135 -104 -165 -121
-16 -9 -46 -29 -65 -44 -19 -15 -42 -29 -50 -32 -8 -4 -51 -37 -95 -75 -45
-37 -101 -81 -125 -98 -116 -77 -340 -286 -496 -462 -258 -290 -375 -431 -425
-508 -15 -22 -53 -79 -85 -127 -33 -48 -71 -111 -85 -139 -14 -28 -30 -54 -35
-58 -12 -8 -97 -156 -113 -198 -7 -18 -19 -38 -27 -44 -8 -6 -14 -19 -14 -29
0 -9 -13 -34 -30 -55 -16 -21 -30 -43 -30 -49 0 -7 -11 -27 -24 -45 -14 -19
-28 -46 -31 -62 -4 -15 -13 -33 -21 -40 -8 -6 -14 -19 -14 -28 0 -9 -7 -27
-15 -41 -7 -14 -27 -52 -44 -85 -16 -33 -36 -71 -44 -85 -8 -14 -20 -36 -26
-50 -7 -14 -25 -50 -41 -80 -16 -30 -30 -62 -30 -71 0 -24 -54 -188 -74 -224
-9 -16 -16 -43 -16 -58 0 -15 -8 -44 -19 -65 -10 -20 -22 -55 -26 -77 -3 -22
-15 -60 -25 -85 -9 -25 -25 -76 -34 -115 -23 -100 -44 -182 -62 -242 -9 -29
-19 -85 -24 -125 -4 -40 -15 -93 -23 -118 -22 -62 -58 -335 -68 -505 -5 -77
-7 -356 -5 -620 3 -388 7 -499 20 -580 9 -55 23 -153 31 -217 7 -64 19 -126
25 -138 7 -12 15 -68 20 -123 4 -56 15 -121 23 -144 9 -23 19 -63 22 -90 4
-26 15 -75 25 -108 10 -33 35 -114 55 -180 34 -114 48 -150 82 -220 8 -16 23
-59 33 -95 30 -108 74 -220 122 -310 25 -47 53 -98 61 -115 30 -58 95 -200
101 -222 4 -11 13 -24 20 -26 8 -3 20 -23 26 -44 7 -21 19 -45 26 -53 7 -9 20
-31 29 -50 8 -19 31 -57 50 -85 19 -27 44 -63 55 -80 11 -16 36 -52 55 -80 19
-27 42 -66 51 -85 8 -19 23 -42 33 -50 23 -20 115 -139 131 -170 7 -13 34 -47
60 -75 25 -27 57 -67 69 -87 12 -21 34 -47 49 -59 15 -11 36 -35 47 -54 25
-40 279 -310 390 -415 44 -41 105 -100 135 -132 30 -32 69 -68 86 -80 17 -13
82 -69 145 -125 63 -56 129 -112 146 -125 18 -13 80 -58 139 -100 58 -43 109
-78 115 -78 5 0 17 -8 27 -17 34 -34 91 -73 105 -73 8 0 20 -7 28 -16 7 -8 26
-22 43 -31 17 -9 41 -26 52 -39 14 -14 29 -21 42 -17 12 3 25 -2 33 -15 8 -10
37 -29 64 -41 28 -12 67 -35 87 -51 20 -17 46 -30 57 -30 11 0 33 -11 49 -25
17 -14 35 -25 42 -25 7 0 25 -11 42 -25 16 -14 42 -28 56 -31 15 -4 32 -11 38
-16 24 -18 155 -78 173 -78 10 0 30 -11 45 -25 15 -14 38 -25 51 -25 23 0 65
-16 160 -61 22 -11 71 -28 108 -39 38 -10 76 -25 84 -31 8 -7 36 -16 61 -20
26 -4 101 -23 167 -42 66 -19 147 -38 180 -42 33 -4 74 -13 92 -20 17 -7 67
-19 110 -25 43 -7 113 -23 156 -36 43 -13 96 -24 117 -24 21 0 65 -7 97 -15
32 -9 135 -20 228 -26 94 -6 188 -15 210 -21 22 -6 145 -12 274 -15 187 -3
247 -1 302 11 43 10 116 16 198 16 92 0 144 5 177 16 25 8 56 13 69 10 12 -3
35 1 51 8 16 8 57 16 90 17 34 1 95 9 135 16 41 8 111 20 156 27 45 7 93 20
106 28 12 9 56 21 96 27 40 6 87 18 105 25 18 8 52 17 76 21 24 4 61 16 84 26
23 10 53 19 68 19 15 0 47 9 70 19 24 11 88 34 143 52 55 17 120 42 145 55 25
12 88 39 140 59 52 20 109 43 127 51 17 8 38 14 46 14 8 0 25 8 38 18 13 10
55 33 92 50 38 17 81 41 97 52 15 11 32 20 37 20 5 0 61 29 124 65 63 35 143
80 179 98 36 19 74 44 84 56 10 11 62 44 115 72 53 29 121 73 152 98 31 25 91
73 134 106 214 167 423 349 610 533 81 78 150 142 156 142 5 0 9 5 9 11 0 6
39 52 86 104 47 51 94 105 103 121 10 16 34 46 54 66 19 21 50 60 68 88 18 27
36 50 40 50 5 0 16 15 25 33 9 17 37 56 63 86 60 70 98 124 116 167 8 19 21
37 30 40 8 4 27 27 42 53 15 25 41 65 60 88 18 23 33 45 33 49 0 4 8 17 18 28
10 12 37 64 62 116 24 52 56 111 70 130 35 47 136 256 170 350 15 41 43 113
62 160 74 185 112 300 145 450 9 36 20 74 26 85 6 11 16 54 23 95 7 41 20 102
28 135 38 148 59 256 65 331 3 45 11 88 18 95 12 16 33 158 33 228 0 28 7 56
17 71 11 16 20 54 24 100 4 41 12 136 19 210 21 246 -6 1064 -40 1180 -10 36
-22 92 -25 125 -4 33 -16 93 -26 134 -11 41 -19 96 -19 123 0 27 -10 77 -21
111 -12 34 -28 89 -35 122 -21 97 -76 279 -95 320 -6 11 -18 36 -28 55 -10 19
-26 60 -36 90 -9 30 -28 79 -41 108 -13 29 -24 57 -24 63 0 12 -55 144 -73
174 -6 11 -31 58 -54 105 -24 47 -50 96 -58 110 -8 14 -24 48 -37 75 -12 28
-32 66 -44 85 -11 19 -40 71 -63 115 -24 44 -54 94 -67 112 -13 17 -24 36 -24
42 0 5 -11 22 -24 38 -13 15 -33 47 -45 71 -12 23 -25 42 -30 42 -4 0 -13 12
-20 28 -29 64 -129 208 -203 294 -38 42 -68 81 -68 86 0 5 -14 24 -31 43 -60
68 -65 74 -77 102 -6 15 -23 32 -36 37 -14 5 -30 19 -36 31 -15 27 -36 49
-229 241 -85 84 -168 167 -185 184 -17 17 -41 37 -53 43 -13 6 -30 25 -38 41
-9 17 -21 30 -28 30 -7 0 -26 14 -42 30 -16 17 -33 30 -38 30 -5 0 -30 18 -55
40 -70 59 -221 180 -272 218 -60 44 -147 106 -189 134 -18 13 -44 33 -58 45
-13 13 -37 30 -53 38 -17 9 -30 19 -30 24 0 5 -17 11 -38 15 -21 3 -46 14 -56
25 -9 10 -31 21 -47 25 -17 3 -42 15 -56 26 -14 11 -31 20 -38 20 -7 0 -19 7
-26 16 -8 9 -32 25 -54 34 -22 9 -46 25 -54 34 -7 9 -19 16 -26 16 -7 0 -57
22 -112 50 -54 27 -103 50 -109 50 -6 0 -19 9 -29 20 -10 11 -23 20 -28 20 -6
0 -54 23 -108 50 -54 28 -104 50 -111 50 -7 0 -40 14 -73 30 -33 16 -70 30
-81 30 -12 0 -27 7 -34 15 -7 8 -22 15 -35 15 -12 0 -43 11 -69 25 -26 14 -52
25 -57 25 -11 0 -103 41 -159 70 -45 24 -227 90 -248 90 -8 0 -23 7 -33 16 -9
8 -46 19 -80 24 -35 5 -82 19 -104 30 -21 11 -51 20 -65 20 -14 0 -52 7 -85
16 -33 8 -112 19 -175 23 -63 4 -149 15 -190 23 -181 38 -683 50 -900 22z
m910 -163 c93 -15 221 -42 315 -66 50 -13 110 -27 135 -30 24 -4 73 -18 107
-31 35 -13 73 -24 85 -24 12 0 29 -6 37 -13 9 -8 36 -21 61 -29 25 -9 99 -37
165 -63 127 -49 188 -72 350 -127 55 -19 156 -62 224 -96 68 -34 132 -62 141
-62 10 0 33 -11 53 -24 19 -13 64 -38 99 -54 35 -17 81 -43 103 -58 22 -14 58
-33 80 -41 21 -7 49 -22 60 -32 11 -10 38 -28 60 -40 22 -12 69 -40 105 -62
36 -22 94 -54 130 -71 36 -17 74 -39 85 -49 20 -19 90 -75 143 -116 15 -12 47
-31 71 -44 23 -12 45 -27 47 -33 3 -7 30 -30 60 -52 30 -21 85 -63 122 -92 37
-29 81 -62 99 -73 18 -11 35 -28 38 -37 4 -9 37 -42 76 -72 38 -30 105 -89
148 -130 44 -41 111 -104 150 -140 39 -36 82 -81 95 -100 14 -19 72 -87 131
-150 59 -63 113 -128 119 -143 7 -15 41 -60 77 -99 35 -40 69 -80 74 -90 27
-48 91 -146 112 -171 13 -16 23 -33 23 -38 0 -6 11 -25 25 -43 14 -18 25 -37
25 -42 0 -4 9 -17 20 -29 29 -29 65 -86 78 -125 7 -18 19 -41 26 -49 8 -9 24
-41 36 -71 12 -30 28 -62 36 -71 9 -10 35 -56 60 -105 24 -48 50 -95 57 -103
8 -9 28 -52 45 -96 17 -44 40 -98 51 -120 12 -21 21 -46 21 -54 0 -8 8 -33 19
-55 72 -156 115 -261 127 -311 4 -16 15 -41 26 -54 10 -13 18 -38 18 -55 1
-17 8 -49 16 -71 9 -22 22 -67 30 -100 7 -33 20 -80 29 -104 8 -24 15 -54 15
-67 0 -13 11 -67 25 -121 13 -54 29 -134 34 -178 5 -44 17 -111 25 -150 10
-44 18 -142 21 -260 3 -104 12 -247 21 -317 24 -193 15 -448 -27 -798 -6 -52
-17 -99 -24 -105 -6 -5 -14 -41 -17 -80 -3 -39 -15 -91 -27 -117 -17 -38 -22
-70 -24 -165 -3 -92 -8 -129 -24 -168 -12 -27 -24 -80 -27 -117 -4 -36 -13
-83 -21 -103 -9 -20 -20 -69 -25 -109 -5 -40 -19 -104 -30 -142 -12 -38 -33
-107 -47 -154 -14 -47 -31 -98 -39 -115 -13 -28 -74 -190 -112 -295 -35 -99
-155 -344 -199 -408 -14 -20 -35 -59 -47 -87 -13 -27 -30 -56 -39 -64 -10 -7
-17 -22 -17 -32 0 -10 -13 -33 -29 -51 -15 -18 -40 -52 -55 -76 -15 -24 -33
-45 -41 -48 -8 -3 -19 -21 -25 -40 -7 -19 -29 -55 -51 -80 -21 -25 -39 -52
-39 -60 0 -8 -14 -20 -30 -26 -19 -6 -32 -19 -37 -35 -3 -14 -12 -33 -20 -42
-8 -9 -32 -43 -53 -76 -21 -33 -58 -82 -84 -109 -25 -26 -46 -52 -46 -57 0
-22 -169 -209 -189 -209 -5 0 -14 -13 -21 -30 -7 -16 -16 -30 -21 -30 -13 0
-165 -152 -178 -177 -7 -13 -18 -23 -26 -23 -8 0 -22 -11 -31 -25 -9 -13 -24
-27 -35 -30 -10 -3 -24 -18 -31 -33 -7 -14 -22 -31 -33 -37 -11 -5 -39 -28
-61 -50 -22 -22 -59 -51 -81 -65 -23 -14 -44 -35 -48 -47 -3 -14 -16 -25 -32
-29 -14 -4 -44 -24 -65 -45 -22 -21 -49 -41 -61 -45 -12 -4 -40 -25 -62 -47
-22 -22 -51 -45 -65 -51 -14 -6 -36 -21 -50 -34 -31 -29 -112 -82 -168 -111
-23 -12 -58 -36 -78 -54 -20 -17 -58 -44 -83 -58 -67 -39 -242 -126 -268 -134
-13 -3 -23 -10 -23 -14 0 -4 -64 -38 -142 -75 -201 -96 -223 -106 -239 -106
-8 -1 -32 -9 -54 -20 -22 -11 -45 -19 -51 -20 -6 0 -22 -8 -35 -18 -13 -11
-41 -22 -61 -25 -20 -3 -49 -14 -65 -25 -15 -11 -46 -23 -68 -27 -22 -4 -54
-15 -70 -25 -17 -11 -51 -22 -75 -26 -25 -4 -65 -14 -90 -24 -64 -25 -194 -61
-270 -75 -36 -7 -87 -19 -115 -27 -27 -9 -75 -21 -105 -27 -30 -6 -89 -20
-130 -31 -41 -11 -91 -20 -110 -20 -20 0 -60 -6 -90 -14 -80 -20 -123 -25
-345 -36 -110 -6 -249 -17 -308 -25 -122 -17 -254 -19 -290 -6 -26 10 -47 69
-47 135 0 20 -11 70 -25 112 -14 42 -25 83 -25 90 0 12 -33 103 -65 179 -23
52 -33 154 -18 167 10 8 19 6 37 -11 14 -13 37 -24 53 -26 85 -11 236 -64 303
-106 8 -5 35 -18 60 -29 25 -11 61 -29 81 -40 20 -11 53 -20 72 -20 20 0 47
-4 61 -10 14 -5 59 -12 100 -16 75 -7 75 -7 107 27 28 30 31 38 26 82 -3 32
-21 82 -51 141 -25 50 -46 95 -46 100 0 5 -26 47 -57 93 -32 47 -71 108 -87
136 -15 29 -34 59 -41 67 -7 8 -30 50 -51 93 -30 63 -51 91 -107 140 -38 34
-75 68 -81 76 -6 7 -26 28 -43 46 -18 17 -33 35 -33 40 0 9 -62 77 -150 163
-63 62 -69 67 -130 107 -25 16 -55 38 -67 49 -23 19 -23 19 -23 -22 0 -42 0
-42 -40 -42 -39 0 -39 0 -5 -32 47 -45 91 -78 104 -78 6 0 18 -11 27 -25 9
-14 22 -25 29 -25 16 0 104 -96 118 -130 6 -14 24 -40 40 -59 16 -19 33 -46
38 -61 5 -14 22 -34 38 -43 15 -9 55 -42 88 -74 44 -43 65 -73 81 -118 26 -68
76 -147 121 -189 17 -17 31 -35 31 -42 0 -6 7 -17 15 -24 8 -7 15 -20 15 -30
0 -9 9 -25 19 -34 11 -10 24 -32 31 -49 6 -18 19 -47 28 -65 21 -43 8 -66 -40
-70 -26 -2 -68 13 -169 62 -74 35 -150 67 -169 71 -19 4 -46 13 -60 20 -15 8
-55 23 -90 35 -36 12 -105 46 -155 75 -49 29 -124 68 -166 87 -44 20 -95 54
-120 78 -24 24 -75 63 -114 88 -147 94 -171 111 -195 137 -14 15 -47 44 -75
65 -27 20 -84 70 -125 109 -41 40 -81 77 -87 83 -10 8 -13 -9 -13 -81 0 -78 3
-93 18 -98 9 -3 40 -26 67 -49 46 -40 69 -62 128 -122 43 -45 62 -61 82 -69
95 -39 215 -139 296 -250 22 -29 44 -53 49 -53 5 0 11 -9 15 -19 3 -11 16 -35
29 -53 27 -41 66 -151 66 -188 0 -15 20 -65 44 -112 39 -77 96 -263 96 -315 0
-11 -9 -28 -20 -38 -17 -16 -35 -17 -153 -13 -124 4 -135 6 -172 31 -22 15
-43 27 -48 27 -8 0 -93 65 -107 81 -5 6 -111 65 -205 114 -95 49 -109 61 -194
164 -44 54 -102 118 -128 143 -64 61 -97 99 -113 127 -6 13 -27 44 -46 68 -19
25 -34 50 -34 58 0 7 -7 18 -16 26 -8 7 -26 34 -39 59 -13 25 -30 52 -39 59
-8 7 -18 25 -21 41 -3 15 -26 67 -51 115 -24 47 -44 92 -44 100 0 20 -39 19
-62 -2 -25 -23 -24 -102 2 -145 11 -18 20 -41 20 -51 0 -10 9 -30 20 -45 24
-34 33 -73 21 -92 -8 -12 -15 -12 -44 -2 -40 15 -267 17 -267 2 0 -14 40 -37
79 -45 90 -19 211 -95 464 -293 23 -17 55 -40 70 -51 15 -10 59 -56 96 -102
38 -46 84 -99 102 -117 48 -48 145 -113 185 -124 22 -6 39 -19 49 -37 28 -56
-1 -55 -219 10 -301 89 -331 97 -356 102 -14 3 -54 17 -90 31 -72 27 -161 58
-260 88 -85 27 -126 55 -188 131 -27 34 -60 73 -71 86 -12 13 -35 52 -53 87
-33 65 -48 74 -117 74 -27 0 -27 0 6 -71 20 -40 33 -82 31 -97 -3 -24 -7 -27
-41 -25 -36 2 -109 40 -197 102 -72 51 -76 72 -24 139 36 47 36 47 5 50 -17 2
-31 7 -31 13 0 5 -7 9 -15 9 -10 0 -15 11 -15 35 0 35 0 35 74 35 89 0 86 -8
86 178 0 132 0 132 115 132 115 0 115 0 115 30 0 27 3 30 30 30 22 0 33 7 44
28 8 16 22 34 30 41 12 10 16 33 16 92 0 44 -2 79 -5 79 -2 0 -24 -21 -47 -47
-24 -25 -59 -63 -78 -83 -19 -21 -45 -49 -58 -65 -18 -22 -25 -25 -37 -15 -19
16 -19 72 -1 108 22 45 36 151 36 288 1 187 42 383 81 384 3 0 21 -10 40 -23
63 -43 69 -42 69 7 0 25 5 46 11 48 6 2 -17 28 -52 58 -72 62 -98 90 -99 106
0 6 -7 17 -16 24 -33 28 -122 195 -129 243 -4 31 -18 62 -41 92 -19 25 -34 49
-34 54 0 4 -12 26 -26 47 -45 66 -86 174 -85 225 1 50 -21 108 -94 250 -25 48
-45 96 -45 108 0 12 -12 50 -27 84 -24 56 -27 76 -30 212 -2 83 -11 194 -20
247 -16 95 -16 100 5 185 12 49 24 109 26 133 3 25 9 65 15 90 12 55 19 87 32
165 6 32 19 75 30 95 10 19 21 46 23 60 10 47 44 90 71 90 30 0 88 -57 141
-138 36 -55 99 -132 159 -194 19 -20 35 -46 35 -56 0 -11 7 -25 16 -33 24 -20
114 -205 114 -234 0 -14 -6 -38 -14 -53 -21 -43 -35 -163 -42 -372 -5 -166 -4
-203 11 -252 19 -67 17 -113 -5 -113 -11 0 -16 13 -18 47 -2 34 -8 51 -22 58
-10 5 -22 24 -25 42 -13 61 -91 282 -117 333 -9 17 -19 46 -23 65 -4 19 -13
44 -20 55 -7 12 -26 59 -43 105 -16 47 -47 122 -68 168 -32 67 -43 82 -59 80
-18 -3 -20 -10 -18 -64 1 -34 8 -76 17 -92 9 -17 23 -61 31 -97 9 -37 25 -83
35 -103 11 -20 20 -44 20 -53 0 -17 102 -330 145 -444 15 -38 30 -83 34 -100
4 -16 17 -48 29 -70 11 -23 24 -58 28 -79 7 -41 40 -129 99 -266 20 -47 43
-104 50 -126 7 -23 18 -50 23 -60 17 -32 72 -182 72 -196 0 -8 6 -22 14 -33 7
-11 21 -45 31 -75 10 -30 21 -59 26 -64 5 -6 9 -17 9 -25 0 -9 8 -42 17 -73
18 -57 19 -58 56 -58 46 0 55 17 37 71 -10 30 -11 42 -2 51 8 8 12 47 12 105
0 91 -1 95 -44 177 -25 47 -47 102 -51 123 -8 58 -20 102 -50 178 -78 202 -87
237 -85 315 4 116 3 132 -9 180 -32 133 -33 143 -18 225 8 44 15 136 16 204 1
97 6 131 20 160 23 46 67 200 76 268 12 93 58 196 118 267 35 41 61 84 72 118
33 101 108 228 188 319 51 58 85 89 99 89 11 0 35 -16 54 -35 37 -40 60 -124
50 -184 -4 -20 -10 -115 -15 -211 -5 -96 -14 -189 -20 -207 -28 -72 8 -370 59
-504 47 -122 52 -159 40 -271 -9 -84 -9 -115 6 -196 16 -94 16 -100 -4 -197
-17 -81 -20 -121 -15 -202 6 -108 -17 -278 -44 -318 -7 -11 -13 -34 -13 -52 0
-29 3 -33 25 -33 25 0 25 0 25 -240 0 -240 0 -240 24 -234 56 14 287 -41 340
-80 17 -13 63 -36 101 -51 39 -15 102 -42 142 -61 45 -21 87 -34 112 -34 41 0
41 0 41 42 0 46 -22 78 -52 78 -11 0 -36 9 -56 20 -20 11 -75 34 -122 51 -47
17 -102 39 -122 50 -40 20 -69 27 -257 59 -63 11 -121 26 -129 34 -23 22 8 66
141 202 117 120 122 124 164 124 37 0 46 -5 70 -36 15 -20 51 -64 78 -97 28
-33 61 -76 75 -96 26 -37 175 -150 198 -151 8 0 12 19 12 63 -1 62 -1 62 -41
87 -60 37 -189 175 -189 202 0 39 14 52 46 43 16 -5 36 -10 44 -11 35 -4 100
-25 105 -34 3 -6 13 -10 21 -10 12 0 14 11 12 52 -4 76 -9 78 -275 78 -192 0
-223 2 -223 15 0 28 -21 15 -100 -60 -43 -41 -81 -75 -84 -75 -2 0 -11 7 -19
15 -14 13 -13 23 8 87 45 137 60 226 61 363 0 131 11 315 20 348 9 30 30 19
65 -35 18 -29 39 -60 46 -68 7 -8 19 -24 27 -35 14 -18 15 -12 16 74 0 80 -4
101 -25 145 -14 28 -34 85 -45 126 -11 41 -24 82 -27 90 -4 8 -12 33 -19 55
-7 22 -27 78 -44 125 -17 47 -36 110 -41 140 -6 30 -16 73 -24 95 -7 22 -16
88 -20 147 -5 89 -2 122 15 189 16 68 20 111 18 258 -1 194 8 235 71 332 16
25 32 66 36 94 8 57 40 124 93 195 20 27 47 74 59 102 110 266 149 330 270
451 100 100 123 107 135 42 9 -44 48 -323 48 -342 0 -7 18 -23 39 -35 45 -26
48 -34 57 -133 4 -48 16 -91 37 -134 57 -120 70 -241 40 -377 -16 -72 -16 -81
1 -145 16 -63 16 -71 1 -121 -11 -34 -20 -114 -25 -224 -5 -118 -14 -193 -28
-245 -11 -40 -23 -122 -26 -180 -3 -59 -11 -120 -17 -135 -6 -16 -15 -56 -20
-89 -13 -77 -35 -147 -67 -212 -24 -48 -25 -55 -13 -95 13 -42 25 -58 47 -58
14 0 62 75 70 108 4 15 19 50 35 78 16 28 29 63 29 78 0 15 6 37 14 49 15 24
63 282 77 417 5 47 14 117 20 155 13 86 20 234 24 515 1 118 3 249 3 290 2 85
-14 181 -36 224 -24 48 -52 158 -52 202 0 34 -8 51 -40 90 -41 50 -60 109 -60
190 0 39 -12 91 -52 236 -6 20 -28 53 -49 74 -34 33 -42 36 -77 32 -43 -6
-138 -70 -147 -99 -3 -9 -23 -29 -45 -43 -22 -14 -40 -31 -40 -38 0 -6 -17
-30 -37 -53 -108 -123 -193 -247 -193 -281 0 -11 -7 -30 -16 -42 -8 -12 -21
-43 -29 -69 -13 -43 -56 -119 -118 -208 -12 -16 -24 -54 -28 -83 -8 -61 -31
-102 -57 -102 -10 0 -35 20 -55 45 -53 62 -101 75 -168 43 -27 -12 -49 -26
-49 -30 0 -4 -47 -60 -104 -126 -57 -65 -107 -128 -110 -140 -4 -12 -27 -58
-52 -102 -24 -44 -44 -87 -44 -96 0 -15 -27 -59 -66 -104 -34 -41 -77 -121
-95 -180 -9 -30 -23 -56 -30 -58 -14 -2 -47 45 -94 135 -15 29 -52 74 -86 105
-33 29 -71 73 -85 98 -58 106 -137 195 -194 219 -73 32 -119 28 -157 -11 -41
-43 -89 -126 -104 -180 -7 -24 -16 -47 -21 -52 -4 -6 -8 -21 -8 -36 0 -14 -9
-57 -20 -95 -11 -39 -25 -110 -31 -160 -6 -49 -20 -126 -31 -170 -17 -68 -20
-96 -14 -190 4 -60 14 -141 22 -178 27 -129 12 -195 -60 -270 -20 -20 -36 -41
-36 -46 0 -6 -12 -16 -27 -23 -16 -8 -30 -25 -35 -44 -4 -17 -17 -39 -28 -49
-11 -10 -20 -22 -20 -27 0 -28 -76 -198 -100 -223 -16 -16 -36 -46 -44 -66
-25 -60 -46 -179 -46 -260 0 -42 -10 -117 -22 -170 -32 -139 -34 -223 -8 -327
20 -82 21 -91 7 -157 -11 -53 -12 -85 -5 -130 17 -104 36 -187 63 -280 32
-110 39 -145 30 -145 -14 0 -65 42 -65 53 0 7 -8 23 -17 37 -54 74 -123 209
-124 243 0 12 -4 31 -9 42 -5 12 -9 -35 -9 -126 -1 -117 2 -149 14 -159 17
-14 79 -142 89 -185 4 -16 14 -37 22 -46 20 -22 47 -156 40 -198 -5 -31 -19
-50 -38 -51 -4 0 -25 17 -46 38 -22 20 -88 82 -147 137 -106 100 -140 147
-170 239 -35 106 -71 199 -110 281 -24 52 -92 217 -115 281 -14 41 -32 69 -52
84 -52 38 -55 14 -14 -107 125 -374 135 -437 57 -373 -47 38 -49 41 -127 130
-98 112 -138 207 -150 355 -27 341 -25 414 16 495 10 19 21 64 25 100 7 62 42
151 65 165 24 15 62 -30 111 -128 28 -56 59 -124 69 -152 75 -214 87 -240 130
-295 34 -43 56 -92 105 -230 21 -58 54 -134 74 -170 36 -65 36 -65 39 -12 3
50 4 52 33 52 33 0 34 2 15 33 -8 12 -17 39 -20 59 -4 21 -16 57 -26 80 -11
24 -20 53 -20 66 0 13 -9 40 -19 60 -11 20 -28 57 -38 81 -10 25 -32 62 -50
83 -20 24 -42 70 -58 122 -14 46 -60 150 -100 232 -41 82 -75 156 -75 164 0 9
38 35 93 64 82 44 190 118 221 154 20 24 40 42 91 83 100 79 143 123 149 148
3 15 27 43 57 66 120 94 187 156 198 183 19 47 10 102 -20 124 -52 39 -434 34
-584 -6 -33 -9 -117 -21 -187 -26 -99 -8 -139 -15 -180 -34 -29 -13 -64 -26
-78 -29 -14 -3 -35 -9 -47 -12 -37 -12 -28 20 20 70 68 71 127 142 127 154 0
6 61 70 135 144 74 74 135 139 135 144 0 14 71 81 126 121 22 16 69 58 105 93
36 35 86 74 112 87 26 12 68 32 95 45 45 21 61 33 166 120 45 37 46 40 46 96
0 43 -5 62 -17 72 -24 20 -81 45 -122 54 -18 4 -52 16 -75 26 -35 16 -67 19
-206 19 -125 0 -176 4 -210 16 -35 13 -95 17 -269 19 -145 2 -227 7 -235 15
-15 15 2 39 51 70 96 60 123 82 182 152 38 44 96 95 144 128 65 44 116 94 254
250 221 249 235 286 133 349 -39 24 -62 31 -101 31 -55 0 -89 13 -89 34 0 13
188 126 209 126 18 0 151 140 151 159 0 20 123 151 141 151 14 0 107 99 125
133 9 17 14 47 12 75 -3 41 -7 49 -43 74 -40 29 -40 29 -187 24 -130 -3 -149
-2 -162 13 -23 25 -21 30 27 51 23 11 61 35 84 52 22 18 67 53 98 78 32 25 73
55 91 67 18 13 40 36 49 52 8 16 24 32 35 36 47 15 76 124 46 170 -9 14 -22
25 -30 25 -7 0 -21 8 -30 19 -32 35 -271 44 -410 15 -38 -8 -146 -17 -240 -21
-117 -4 -195 -12 -246 -25 -41 -11 -118 -26 -170 -34 -88 -13 -124 -24 -237
-75 -23 -11 -47 -19 -54 -19 -6 0 -22 -11 -35 -25 -15 -17 -34 -25 -56 -25
-51 0 -73 -19 -23 -21 37 0 38 -1 15 -11 -14 -5 -48 -21 -76 -34 -28 -13 -65
-27 -82 -30 -30 -6 -32 -9 -32 -50 0 -24 2 -44 4 -44 2 0 28 11 58 25 29 14
63 25 76 25 12 0 33 6 45 14 12 8 43 17 69 20 26 4 63 18 83 32 20 13 40 24
45 24 6 0 27 9 47 20 21 11 54 20 73 20 19 0 55 6 80 14 61 20 132 34 210 42
36 3 76 11 90 16 14 6 111 14 215 18 105 5 221 15 259 24 63 14 73 13 120 -2
72 -24 71 -42 -6 -123 -64 -67 -86 -84 -163 -129 -24 -14 -74 -43 -112 -64
-78 -46 -153 -105 -153 -122 0 -6 -26 -36 -58 -67 -41 -38 -72 -59 -103 -67
-24 -7 -56 -23 -72 -36 -16 -13 -35 -24 -42 -24 -7 0 -32 -15 -54 -34 -23 -19
-58 -40 -79 -47 -20 -6 -46 -18 -57 -25 -11 -8 -38 -14 -60 -14 -56 -1 -153
-25 -174 -44 -10 -9 -22 -16 -28 -16 -6 0 -27 -13 -47 -29 -39 -31 -110 -50
-181 -49 -57 1 -85 -10 -85 -33 0 -16 7 -19 45 -19 42 0 45 -2 45 -27 0 -49
13 -59 57 -46 21 6 66 20 100 30 34 10 72 29 83 41 11 12 27 22 35 22 8 0 31
9 52 19 23 12 58 20 88 20 33 0 70 9 105 25 30 14 64 26 76 26 11 0 31 11 44
25 13 14 29 25 36 25 7 0 25 11 41 23 15 13 89 54 163 91 122 61 144 69 240
82 118 17 261 11 280 -11 8 -10 1 -22 -31 -52 -98 -88 -168 -161 -184 -194
-19 -38 -83 -109 -100 -109 -5 0 -28 -14 -49 -30 -22 -17 -45 -30 -51 -30 -7
0 -29 -13 -50 -30 -21 -16 -44 -30 -51 -30 -22 0 -94 -70 -115 -111 -10 -21
-29 -44 -42 -50 -12 -7 -36 -24 -54 -40 -17 -15 -44 -30 -60 -33 -16 -4 -59
-35 -96 -69 -112 -104 -131 -117 -168 -117 -38 0 -156 -45 -202 -77 -119 -83
-183 -123 -199 -123 -10 0 -35 -9 -55 -20 -22 -12 -57 -20 -84 -20 -42 0 -80
-5 -214 -30 -27 -5 -71 -12 -97 -15 -48 -6 -48 -6 -48 -46 0 -39 0 -39 45 -39
25 0 45 -4 45 -10 0 -6 28 -10 65 -10 36 0 65 -4 65 -10 0 -5 17 -3 39 5 21 7
63 16 92 20 30 3 70 11 89 17 45 13 237 105 272 129 14 11 33 19 41 19 8 0 26
9 40 20 14 11 31 20 37 20 7 0 58 20 114 45 72 33 115 60 151 95 114 111 126
120 153 120 15 1 45 9 67 20 31 15 62 19 142 20 56 0 104 -4 108 -9 6 -11 -52
-101 -65 -101 -4 0 -30 -27 -57 -60 -62 -78 -139 -158 -183 -190 -64 -47 -160
-131 -160 -140 0 -22 -135 -136 -205 -173 -16 -8 -67 -49 -112 -89 -44 -40
-124 -104 -177 -143 -107 -78 -120 -95 -76 -95 24 0 30 -4 30 -22 0 -43 -27
-58 -106 -58 -40 0 -76 -5 -79 -11 -9 -13 -190 -99 -210 -99 -9 0 -33 -9 -55
-20 -22 -11 -46 -20 -55 -20 -13 0 -15 -19 -15 -123 0 -123 0 -123 53 -116 28
4 88 15 132 24 44 9 112 23 150 30 149 31 364 65 440 70 44 3 103 12 130 20
28 8 62 17 78 20 34 7 39 50 6 60 -29 10 -175 -4 -229 -20 -25 -8 -97 -19
-160 -25 -63 -5 -153 -17 -200 -25 -139 -24 -252 -37 -277 -30 -14 3 -23 13
-23 24 0 14 10 20 44 24 46 7 225 87 261 117 11 10 32 24 46 31 15 8 59 31 98
52 40 20 79 37 87 37 8 0 32 9 52 19 100 52 268 80 327 55 23 -9 73 -14 152
-14 75 0 136 -6 166 -15 34 -10 71 -13 120 -9 48 4 100 1 156 -10 46 -9 99
-16 118 -16 44 0 103 -27 103 -48 0 -23 -30 -52 -55 -52 -12 0 -29 -8 -39 -19
-9 -10 -50 -35 -91 -55 -53 -26 -87 -51 -117 -87 -50 -59 -145 -109 -228 -120
-34 -4 -78 -20 -113 -41 -32 -18 -69 -39 -83 -46 -13 -7 -63 -15 -111 -18 -94
-6 -152 -22 -221 -62 -34 -19 -66 -26 -150 -34 -425 -36 -597 -31 -720 22 -47
20 -53 26 -50 49 2 20 10 27 33 31 17 3 45 14 63 25 33 20 33 20 27 100 -4 44
-11 84 -16 89 -5 6 -9 22 -9 38 0 27 0 27 -41 13 -40 -15 -79 -7 -79 15 0 10
46 67 80 97 17 16 21 25 13 30 -6 5 -14 25 -18 46 -7 37 -7 37 -46 2 -48 -43
-86 -47 -95 -10 -8 33 37 138 78 181 28 30 29 32 26 130 -3 99 -3 99 -35 49
-43 -68 -60 -85 -83 -85 -35 0 -45 37 -45 163 0 114 1 120 25 139 17 14 33 18
52 14 98 -21 89 -33 86 112 -3 150 -10 166 -57 131 -25 -18 -33 -20 -46 -9
-25 20 -18 48 25 94 35 38 40 49 40 93 0 28 6 58 15 69 26 34 16 39 -17 7 -23
-22 -45 -32 -72 -35 -54 -4 -64 14 -47 89 10 45 27 163 30 215 1 4 19 17 42
28 34 18 46 19 71 11 45 -16 48 -15 48 27 0 21 4 42 9 48 11 12 32 71 41 119
5 22 11 50 15 63 5 16 3 22 -8 22 -32 0 -27 61 8 100 7 8 17 49 22 91 8 70 8
76 -8 66 -24 -15 -49 -2 -49 26 0 12 9 40 20 62 11 21 26 62 35 90 11 41 23
58 52 77 21 14 50 29 66 32 19 5 27 13 27 28 0 12 5 36 12 54 12 33 12 33 95
27 115 -8 195 18 321 104 35 24 67 43 72 43 22 0 245 209 278 260 12 19 46 85
75 146 30 60 66 122 80 137 15 14 27 33 27 42 0 9 11 35 24 58 29 50 55 146
49 179 -5 28 38 147 71 198 32 49 39 82 41 190 1 81 5 104 28 152 15 31 27 62
27 68 0 6 16 41 35 78 19 37 46 99 61 137 14 39 32 80 40 92 24 38 7 112 -33
151 -43 40 -87 42 -165 8 -64 -28 -148 -83 -148 -97 0 -5 -12 -15 -27 -22 -16
-6 -32 -17 -38 -23 -5 -6 -46 -40 -90 -75 -75 -61 -111 -91 -162 -140 -25 -24
-43 -7 -20 19 8 9 17 29 21 44 3 15 29 50 56 77 28 28 50 53 50 57 0 18 165
199 336 369 224 223 316 307 347 318 12 4 30 21 39 37 10 17 25 33 35 37 10 4
45 31 78 61 33 29 110 87 170 128 61 41 128 88 150 105 44 32 103 74 144 101
14 10 33 22 41 28 44 30 166 100 176 100 6 0 28 13 50 30 21 16 43 30 48 30 5
0 44 18 87 40 42 22 103 49 135 61 33 12 114 48 180 80 67 33 128 59 135 59 8
0 24 7 37 15 26 19 188 85 207 85 8 0 29 9 47 19 18 10 50 22 71 25 21 4 52
15 70 26 18 10 52 21 77 25 25 4 77 17 117 31 39 13 79 24 88 24 9 0 29 7 45
15 16 9 74 21 127 29 54 7 118 20 143 29 136 48 210 67 265 67 36 0 91 10 138
25 43 14 93 25 111 25 18 0 53 9 77 19 33 15 84 22 204 30 180 11 871 5 955
-8z m-4526 -2047 c7 -19 -2 -62 -20 -89 -8 -11 -14 -29 -14 -41 0 -11 -9 -29
-20 -39 -11 -10 -20 -30 -20 -44 0 -14 -14 -46 -30 -71 -16 -25 -30 -51 -30
-58 0 -7 -12 -34 -27 -60 -25 -42 -27 -53 -25 -139 3 -93 3 -93 -44 -180 -67
-128 -85 -179 -73 -211 5 -14 7 -39 3 -56 -8 -38 -70 -156 -129 -244 -25 -38
-45 -77 -45 -86 0 -9 -14 -45 -31 -79 -23 -45 -58 -88 -128 -155 -52 -50 -105
-95 -116 -98 -11 -4 -36 -20 -55 -35 -19 -16 -38 -29 -43 -29 -5 0 -23 -11
-41 -25 -18 -14 -36 -25 -39 -25 -4 0 -41 -20 -83 -45 -41 -25 -83 -45 -93
-45 -9 0 -27 -7 -39 -16 -12 -8 -27 -12 -32 -9 -16 10 -12 63 9 103 10 20 36
72 57 115 21 43 42 81 46 83 5 3 24 36 43 72 20 37 51 94 70 127 19 33 41 74
49 91 8 17 22 36 30 44 9 7 16 20 16 30 0 10 7 23 16 31 19 16 65 82 97 140
84 152 183 323 214 368 32 46 28 87 -7 82 -34 -4 -80 -39 -80 -59 0 -9 -13
-29 -29 -44 -16 -15 -46 -53 -67 -84 -22 -31 -48 -69 -59 -84 -68 -95 -126
-183 -159 -240 -64 -111 -81 -138 -99 -158 -9 -10 -17 -21 -17 -24 0 -3 -29
-67 -65 -141 -35 -74 -67 -145 -70 -158 -10 -39 -60 -93 -79 -86 -36 14 -13
110 73 302 32 72 61 137 65 145 3 8 10 22 15 30 6 8 27 53 47 99 20 47 50 105
65 130 16 26 33 57 39 71 5 14 15 32 20 40 6 8 18 31 27 50 24 47 136 193 174
224 16 14 48 30 69 36 42 11 70 33 70 55 0 8 13 23 29 35 17 11 33 31 37 43 9
30 99 132 145 165 94 68 161 123 185 151 14 17 32 31 39 31 7 0 25 10 41 23
26 20 89 54 105 56 4 1 10 -6 13 -15z m-1424 -4539 c0 -21 -39 -40 -53 -26 -8
8 -5 15 9 26 25 19 44 19 44 0z m1264 -241 c31 -12 15 -40 -84 -144 -55 -58
-100 -109 -100 -114 0 -5 -31 -39 -70 -77 -67 -66 -89 -94 -157 -202 -18 -28
-43 -62 -56 -76 -13 -14 -43 -52 -66 -83 -106 -147 -273 -256 -401 -261 -50
-2 -55 0 -68 26 -24 49 -26 93 -6 114 24 23 74 96 74 107 0 4 62 69 138 144
140 140 177 188 163 211 -7 10 -14 10 -37 -3 -75 -43 -264 -207 -304 -264 -13
-18 -36 -42 -52 -54 -30 -21 -30 -21 -56 -1 -31 23 -50 82 -51 159 -1 41 4 56
25 80 14 16 41 53 60 82 19 28 39 52 43 52 5 0 29 16 53 35 23 20 60 49 80 66
66 53 174 78 363 84 85 3 161 21 192 47 13 11 252 76 285 77 9 1 23 -2 32 -5z
m-1157 -114 c160 -29 172 -48 79 -120 -24 -19 -49 -45 -55 -58 -6 -12 -22 -28
-36 -34 -30 -14 -41 -5 -74 57 -37 70 -24 184 19 170 11 -3 41 -10 67 -15z
m1870 -396 c7 -18 -28 -58 -66 -74 -30 -12 -120 -109 -144 -155 -15 -30 -39
-50 -127 -110 -25 -17 -63 -48 -85 -70 -23 -22 -52 -48 -65 -58 -48 -33 -125
-83 -150 -95 -14 -6 -32 -16 -40 -21 -14 -9 -101 -33 -164 -46 -16 -3 -52 -30
-83 -61 -30 -30 -71 -63 -93 -74 -21 -11 -41 -24 -44 -29 -4 -5 -29 -17 -57
-26 -69 -23 -118 -56 -120 -80 -1 -18 -2 -18 -6 -1 -4 16 -11 17 -59 11 -64
-8 -162 3 -175 19 -37 44 -60 91 -55 112 7 25 63 60 126 79 32 10 35 14 38 54
2 24 -1 48 -7 54 -10 10 -48 -3 -123 -43 -61 -33 -118 -25 -118 16 0 20 14 31
83 65 45 23 84 45 87 48 3 4 28 14 57 23 52 17 76 35 211 166 37 35 82 73 102
84 132 74 156 87 168 87 7 1 39 13 70 27 31 15 77 29 102 31 25 3 64 11 88 19
23 8 62 14 85 14 23 0 80 7 126 15 47 8 121 15 165 15 45 0 108 4 141 9 96 14
125 13 132 -5z m444 -411 c10 -25 19 -51 19 -58 0 -7 20 -53 44 -102 53 -108
86 -191 86 -219 0 -12 -7 -41 -16 -65 -14 -42 -34 -119 -55 -219 -16 -76 -38
-484 -39 -700 0 -240 11 -383 47 -575 32 -176 47 -308 39 -340 -3 -13 -15 -29
-26 -35 -16 -9 -27 -2 -74 47 -31 31 -56 60 -56 65 0 4 -16 22 -35 39 -19 18
-53 68 -76 113 -23 45 -48 88 -55 97 -8 8 -14 22 -14 31 0 8 -11 35 -23 59
-14 26 -26 70 -29 107 -4 34 -13 84 -22 110 -69 211 -64 167 -64 512 -1 280 1
322 18 380 11 38 23 128 29 218 10 151 11 154 42 194 30 37 44 70 101 231 11
31 23 57 27 57 5 0 16 18 26 41 21 45 50 70 72 62 8 -3 24 -26 34 -50z m-1435
-518 c4 -15 -1 -42 -12 -68 -14 -34 -19 -84 -24 -257 -4 -118 -8 -216 -9 -217
0 -2 -12 -3 -25 -3 -19 0 -27 8 -36 34 -7 23 -19 36 -36 40 -16 4 -29 18 -35
36 -6 15 -17 31 -24 34 -8 3 -22 20 -31 38 -9 18 -27 46 -40 61 -37 44 -104
163 -104 184 1 34 27 53 101 72 41 11 103 30 139 44 89 34 128 35 136 2z
m1688 -141 c9 -8 16 -21 16 -28 0 -7 9 -21 20 -31 24 -21 65 -90 75 -125 4
-14 26 -63 48 -110 42 -85 42 -85 40 -315 -1 -126 -7 -258 -14 -293 -6 -35 -9
-88 -5 -117 7 -61 -25 -293 -48 -346 -8 -19 -27 -68 -42 -109 -34 -88 -68
-132 -98 -128 -23 3 -23 2 -51 218 -32 237 -31 1050 0 1310 12 95 24 110 59
74z m-511 -1384 c17 -30 35 -62 39 -71 3 -9 17 -28 30 -43 13 -14 46 -53 73
-86 28 -33 70 -80 95 -103 169 -159 197 -200 146 -213 -34 -8 -99 12 -114 36
-7 11 -18 20 -26 20 -7 0 -21 9 -31 19 -9 11 -61 50 -115 86 -142 95 -147 101
-155 232 -4 64 -13 117 -21 130 -15 24 -19 85 -7 97 10 9 44 -32 86 -104z"/>
<path d="M11947 16474 c-16 -13 -37 -24 -48 -24 -11 0 -23 -10 -29 -22 -12
-30 -24 -99 -21 -118 5 -28 89 -90 122 -90 25 0 169 74 169 87 0 42 -63 121
-135 170 -30 21 -30 21 -58 -3z"/>
<path d="M12937 16322 c-15 -15 -27 -35 -27 -44 0 -15 60 -68 76 -68 4 0 21
12 36 27 38 37 38 77 -2 98 -40 21 -52 19 -83 -13z"/>
<path d="M12602 16189 c-9 -11 -27 -25 -40 -30 -30 -12 -55 -73 -49 -120 6
-47 101 -149 138 -149 29 0 145 116 155 154 9 37 -15 75 -76 123 -62 48 -101
54 -128 22z"/>
<path d="M13614 16150 c-35 -14 -84 -84 -84 -120 0 -65 83 -150 146 -150 33 0
102 46 128 85 21 31 21 84 0 113 -9 13 -34 37 -57 53 -41 30 -89 37 -133 19z"/>
<path d="M11871 15825 c-37 -42 -39 -58 -8 -77 44 -29 66 -28 100 2 32 29 32
29 12 67 -28 53 -62 56 -104 8z"/>
<path d="M13904 15775 c-7 -19 -14 -41 -14 -50 0 -34 29 -85 48 -85 21 0 72
59 72 82 0 20 -59 88 -76 88 -8 0 -22 -16 -30 -35z"/>
<path d="M13077 15779 c-29 -17 -39 -55 -52 -209 -11 -123 -18 -158 -47 -232
-19 -48 -46 -99 -61 -113 -14 -15 -29 -34 -32 -44 -11 -33 -131 -105 -228
-137 -63 -20 -109 -43 -119 -58 -21 -31 -1 -106 29 -106 8 0 30 -8 47 -19 17
-10 58 -22 91 -26 77 -9 120 -31 177 -92 55 -60 73 -93 83 -153 4 -25 12 -54
17 -64 6 -11 14 -70 19 -132 11 -154 44 -224 104 -224 18 0 39 8 48 18 21 23
43 119 52 217 3 44 12 92 20 107 7 15 16 42 20 60 11 50 69 140 122 189 52 47
85 66 178 99 109 39 130 52 133 84 7 57 -4 74 -61 89 -28 8 -66 17 -84 20 -45
9 -129 63 -154 100 -12 18 -33 44 -47 59 -32 35 -71 128 -83 197 -5 29 -14 62
-20 72 -5 10 -16 64 -24 119 -19 125 -48 190 -84 190 -15 0 -34 -5 -44 -11z"/>
<path d="M12250 15662 c-25 -12 -43 -34 -67 -82 -18 -35 -33 -73 -33 -85 0
-12 25 -42 60 -73 59 -53 59 -53 116 -33 64 23 114 71 114 110 0 30 -24 69
-77 128 -47 51 -68 58 -113 35z"/>
<path d="M11847 15583 c-13 -12 -7 -61 9 -73 11 -10 25 -11 52 -4 30 7 38 14
40 35 3 22 -2 29 -29 38 -36 12 -63 14 -72 4z"/>
<path d="M12688 15569 c-42 -24 -5 -119 40 -105 27 9 54 58 46 81 -4 9 -18 21
-31 26 -30 11 -34 11 -55 -2z"/>
<path d="M14008 15562 c-33 -14 -91 -103 -96 -147 -4 -41 -2 -45 49 -94 52
-49 55 -51 99 -45 49 7 75 26 115 85 35 49 28 78 -33 146 -48 52 -95 72 -134
55z"/>
<path d="M10522 15510 c-46 -28 -41 -62 16 -104 44 -31 44 -31 68 -3 29 34 31
80 4 107 -25 25 -46 25 -88 0z"/>
<path d="M11795 15275 c-47 -54 -47 -56 -43 -114 4 -55 7 -62 51 -105 41 -39
54 -46 88 -46 42 0 42 0 114 86 50 59 46 81 -23 152 -100 101 -121 104 -187
27z"/>
<path d="M11909 14789 c-15 -15 -19 -30 -17 -62 3 -35 7 -43 31 -51 46 -16 81
9 85 61 5 68 -53 98 -99 52z"/>
<path d="M11560 14689 c-15 -27 -5 -66 21 -80 49 -26 119 43 83 82 -25 27 -90
26 -104 -2z"/>
<path d="M9533 14643 c-42 -27 -63 -75 -42 -97 18 -19 82 -35 101 -25 24 13
26 110 2 133 -19 19 -11 21 -61 -11z"/>
<path d="M10050 14600 c-19 -19 -19 -22 -5 -58 35 -83 80 -91 115 -22 25 49
25 55 -2 80 -28 26 -82 26 -108 0z"/>
<path d="M15810 14502 c-22 -22 -30 -40 -30 -65 0 -77 35 -99 105 -68 67 30
84 79 43 125 -13 15 -37 29 -55 32 -27 5 -37 1 -63 -24z"/>
<path d="M11935 14469 c-16 -5 -47 -24 -67 -43 -34 -31 -38 -40 -38 -84 0 -46
3 -52 50 -96 41 -39 55 -46 89 -46 55 0 79 11 134 65 38 37 47 52 47 80 0 37
-3 40 -100 101 -57 36 -67 38 -115 23z"/>
<path d="M9433 14418 c-39 -28 -41 -50 -7 -95 20 -26 32 -33 59 -33 76 0 100
84 36 127 -42 28 -48 28 -88 1z"/>
<path d="M12533 14318 c-4 -7 -9 -35 -10 -61 -1 -43 1 -49 23 -58 55 -20 90
-3 100 48 5 26 1 37 -19 57 -28 28 -80 35 -94 14z"/>
<path d="M16072 14208 c-19 -19 -14 -66 9 -89 33 -33 79 -23 104 24 20 38 20
38 -4 58 -26 21 -90 26 -109 7z"/>
<path d="M12680 13983 c-33 -37 -33 -37 -4 -61 16 -13 39 -35 51 -50 21 -25
22 -25 28 -7 4 11 16 38 28 59 20 40 20 40 -13 68 -19 15 -40 28 -46 28 -7 0
-26 -17 -44 -37z"/>
<path d="M11388 13973 c-15 -16 -31 -51 -38 -83 -7 -30 -23 -75 -36 -100 -23
-47 -105 -134 -144 -154 -34 -16 -44 -38 -36 -79 5 -28 17 -44 49 -66 23 -16
61 -51 84 -79 35 -41 46 -64 58 -122 8 -39 15 -84 15 -100 0 -22 7 -33 30 -45
59 -30 106 -7 120 60 30 145 39 167 89 214 26 25 69 58 94 73 74 43 89 111 30
137 -97 43 -183 150 -183 228 0 54 -21 105 -51 127 -33 23 -51 20 -81 -11z"/>
<path d="M10399 13970 c-26 -15 -73 -134 -65 -164 11 -43 87 -124 123 -131 51
-11 75 1 116 58 52 73 51 107 -9 178 -26 30 -52 57 -58 61 -16 11 -88 9 -107
-2z"/>
<path d="M9890 13797 c-46 -23 -33 -127 16 -127 37 0 59 94 28 124 -18 19 -13
19 -44 3z"/>
<path d="M10351 13524 c-27 -35 -26 -55 4 -88 28 -31 54 -29 93 7 30 28 28 50
-9 81 -39 33 -62 33 -88 0z"/>
<path d="M16045 13495 c-30 -29 -31 -40 -5 -82 17 -28 25 -33 59 -33 47 0 71
26 71 76 0 63 -78 87 -125 39z"/>
<path d="M10652 13498 c-17 -17 -15 -49 4 -76 19 -28 79 -31 92 -4 26 49 -57
119 -96 80z"/>
<path d="M16343 13450 c-27 -16 -33 -26 -33 -56 0 -55 15 -74 58 -74 44 0 101
34 102 61 0 11 -72 89 -83 89 -7 0 -27 -9 -44 -20z"/>
<path d="M15718 13413 c-22 -6 -30 -27 -33 -93 -2 -31 -13 -76 -24 -100 -25
-51 -83 -100 -119 -100 -25 0 -102 -67 -102 -90 0 -24 60 -68 103 -75 93 -14
112 -36 147 -168 15 -55 42 -73 84 -57 32 12 41 30 57 109 16 81 63 137 126
147 60 9 103 38 103 69 0 34 -30 61 -106 97 -61 28 -114 76 -114 101 0 7 -9
29 -20 50 -11 20 -20 45 -20 55 0 37 -42 65 -82 55z"/>
<path d="M10100 13307 c-13 -7 -30 -22 -36 -35 -6 -12 -19 -31 -29 -42 -12
-13 -16 -29 -12 -52 2 -18 0 -44 -5 -57 -7 -20 -4 -28 16 -45 13 -12 27 -33
30 -48 5 -21 14 -29 39 -33 61 -12 121 31 167 118 24 45 24 45 -3 84 -31 45
-96 113 -107 113 -5 0 -14 2 -22 5 -7 3 -24 -1 -38 -8z"/>
<path d="M10535 13260 c-16 -35 -16 -43 -4 -54 42 -40 89 -20 89 38 0 68 -57
79 -85 16z"/>
<path d="M10833 13063 c-7 -3 -22 -21 -33 -41 -12 -21 -34 -45 -50 -54 -66
-38 -21 -138 87 -196 34 -18 67 -32 76 -32 23 0 95 84 108 128 16 54 6 86 -44
138 -32 34 -52 46 -87 52 -25 5 -51 7 -57 5z"/>
<path d="M16703 12800 c-31 -13 -48 -76 -28 -107 32 -48 92 -42 125 13 21 33
21 36 5 60 -9 14 -27 29 -41 34 -29 12 -32 12 -61 0z"/>
<path d="M16291 12751 c-43 -41 -52 -68 -26 -78 9 -3 22 -18 30 -34 11 -20 25
-30 50 -35 71 -13 95 8 109 96 8 51 -11 71 -85 84 -33 6 -41 3 -78 -33z"/>
<path d="M7450 12725 c-93 -23 -166 -48 -245 -84 -61 -28 -147 -63 -172 -68
-20 -5 -23 -11 -23 -60 0 -63 -5 -63 120 -8 41 18 91 38 110 45 19 7 40 17 45
20 6 4 37 15 70 25 33 9 69 22 80 28 11 7 44 21 74 32 79 29 121 97 58 94 -12
-1 -65 -12 -117 -24z"/>
<path d="M15205 12648 c-2 -7 -6 -29 -8 -48 -2 -19 -7 -43 -11 -52 -11 -24 60
-45 106 -32 31 9 33 13 36 56 4 61 -20 88 -78 88 -24 0 -42 -5 -45 -12z"/>
<path d="M15284 12363 c-44 -48 -44 -70 2 -89 53 -22 84 -15 106 24 18 33 18
33 -9 67 -36 45 -57 44 -99 -2z"/>
<path d="M12409 12211 c-45 -14 -73 -32 -114 -75 -23 -22 -61 -57 -85 -76 -40
-32 -83 -73 -201 -196 -47 -49 -94 -121 -116 -178 -9 -22 -40 -66 -69 -96 -52
-54 -114 -174 -114 -222 0 -11 -5 -29 -12 -41 -6 -12 -15 -40 -19 -62 -14 -76
-28 -120 -60 -190 -54 -120 -72 -311 -48 -536 11 -112 47 -266 73 -316 9 -18
16 -42 16 -55 0 -46 103 -289 158 -373 15 -22 48 -63 74 -91 79 -86 75 -119
-20 -182 -108 -72 -266 -190 -307 -230 -11 -10 -29 -24 -40 -30 -11 -5 -40
-29 -64 -51 -44 -41 -44 -41 237 -41 181 0 282 4 282 10 0 6 8 10 18 10 9 0
24 5 32 10 11 7 7 8 -15 4 -36 -6 -134 16 -190 43 -29 13 -39 24 -38 39 4 42
118 136 223 186 49 23 49 23 50 331 0 307 0 307 35 307 19 0 35 1 35 3 0 1 -7
24 -15 51 -25 81 -30 223 -10 276 9 25 21 95 25 155 22 259 29 312 49 363 12
29 21 64 21 77 0 27 25 69 95 159 28 36 82 126 120 202 70 137 70 137 231 298
186 186 229 226 244 226 6 0 26 15 44 33 59 57 94 79 123 75 24 -3 30 -10 39
-48 12 -50 4 -122 -23 -200 -17 -50 -34 -133 -59 -285 -8 -55 -25 -134 -36
-175 -17 -59 -21 -108 -23 -225 -1 -127 -4 -159 -23 -209 -12 -33 -22 -70 -22
-83 0 -13 -8 -40 -19 -61 -10 -20 -21 -54 -24 -76 -3 -21 -13 -46 -21 -55 -9
-10 -21 -33 -27 -52 -7 -19 -20 -45 -31 -58 -10 -13 -18 -31 -18 -40 0 -9 -9
-29 -20 -46 -30 -46 -26 -53 35 -57 56 -3 56 -3 96 70 61 111 138 220 173 244
27 19 159 129 221 185 35 32 120 79 270 150 39 18 69 23 127 24 53 1 81 5 89
15 6 7 27 16 48 20 20 4 56 17 81 29 25 12 68 26 95 29 28 4 65 16 83 27 19
11 53 19 80 19 26 1 67 5 92 11 202 44 392 69 500 67 115 -3 115 -3 118 -35 7
-67 -65 -158 -297 -378 -29 -27 -61 -66 -71 -85 -11 -19 -56 -73 -101 -120
-45 -47 -88 -100 -96 -119 -22 -52 -160 -179 -213 -196 -14 -4 -42 -19 -63
-32 -21 -13 -50 -28 -65 -34 -15 -6 -67 -35 -115 -66 -48 -30 -102 -59 -120
-64 -103 -27 -237 -68 -264 -83 -18 -9 -49 -16 -70 -16 -21 0 -74 -9 -118 -20
-50 -12 -114 -20 -172 -20 -93 0 -93 0 -93 -54 0 -54 0 -54 58 -58 98 -7 332
12 397 32 33 10 108 31 167 45 59 15 124 35 145 46 20 10 44 19 53 19 8 0 42
17 75 38 33 21 131 73 218 115 109 54 163 87 174 105 10 15 38 52 63 82 26 30
64 82 85 115 21 33 60 79 86 103 26 23 84 89 129 147 46 58 86 105 91 105 19
0 137 137 216 250 38 55 67 151 58 188 -9 36 -74 102 -100 102 -12 0 -26 5
-32 11 -25 25 -472 1 -572 -30 -19 -6 -75 -14 -125 -17 -50 -4 -113 -15 -139
-25 -26 -11 -62 -19 -80 -19 -18 0 -54 -11 -82 -25 -27 -13 -58 -25 -67 -25
-9 0 -38 -11 -64 -25 -34 -18 -63 -25 -101 -25 -38 0 -63 -6 -82 -19 -14 -10
-45 -24 -68 -30 -23 -6 -45 -16 -48 -21 -4 -6 -21 -17 -38 -25 -18 -8 -54 -28
-82 -44 -27 -17 -68 -40 -90 -52 -21 -12 -47 -31 -56 -43 -10 -12 -33 -31 -53
-41 -54 -29 -60 -17 -57 132 2 121 17 217 43 273 23 50 37 116 38 180 0 36 5
83 11 105 6 22 17 72 25 110 8 39 21 95 29 126 45 168 -18 367 -117 369 -41 0
-188 -80 -240 -131 -25 -25 -63 -57 -85 -69 -21 -13 -50 -34 -65 -48 -27 -24
-27 -24 -52 1 -14 15 -26 35 -26 47 0 52 -79 164 -139 198 -41 23 -51 25 -92
13z m74 -161 c14 -11 29 -35 32 -52 4 -18 16 -49 27 -69 10 -20 20 -55 21 -76
1 -36 -7 -49 -74 -129 -74 -88 -167 -211 -203 -268 -18 -28 -19 -29 -33 -10
-11 14 -13 34 -9 74 7 57 -9 100 -32 87 -19 -12 -42 -101 -67 -255 -14 -83
-31 -169 -39 -190 -85 -232 -115 -466 -108 -867 2 -139 -2 -212 -17 -319 -11
-76 -24 -143 -29 -148 -19 -19 -50 12 -90 89 -22 43 -48 104 -57 135 -9 32
-21 60 -26 63 -5 4 -9 23 -9 43 -1 47 -15 113 -40 177 -10 28 -25 109 -32 180
-23 228 -9 418 37 507 27 51 63 167 74 238 4 25 15 59 24 75 8 17 23 51 32 78
9 26 33 64 52 85 36 38 123 173 123 190 0 17 73 103 144 172 38 36 89 86 115
111 46 44 124 96 147 98 6 1 23 -8 37 -19z"/>
<path d="M7550 12115 c-6 -8 -22 -17 -33 -20 -12 -3 -56 -22 -97 -42 -41 -20
-93 -44 -115 -53 -22 -10 -58 -27 -80 -38 -23 -11 -55 -23 -73 -27 -17 -3 -34
-10 -37 -15 -3 -4 -38 -24 -77 -44 -40 -19 -118 -63 -173 -96 -55 -33 -114
-67 -131 -74 -17 -8 -36 -22 -44 -31 -7 -8 -41 -29 -76 -46 -64 -30 -64 -30
-64 -90 0 -61 0 -61 31 -35 17 14 35 26 41 26 6 0 41 20 77 44 36 24 89 55
116 70 28 15 86 47 130 71 44 24 85 44 91 44 6 1 47 21 90 44 44 24 142 77
219 117 77 40 151 80 165 90 14 10 34 20 45 24 11 4 36 20 55 37 34 29 34 31
16 45 -25 18 -60 18 -76 -1z"/>
<path d="M16973 12100 c-46 -27 -46 -73 -2 -96 19 -9 41 -13 56 -9 24 6 25 9
19 52 -6 43 -20 73 -35 73 -3 0 -21 -9 -38 -20z"/>
<path d="M6722 12057 c-6 -7 -34 -19 -62 -26 -36 -9 -50 -18 -50 -31 0 -9 -13
-34 -30 -55 -27 -34 -30 -45 -29 -109 0 -70 0 -71 17 -46 40 57 106 127 150
158 82 57 126 85 162 104 35 17 35 17 -56 18 -63 0 -95 -4 -102 -13z"/>
<path d="M16403 12032 c-16 -10 -6 -107 13 -123 20 -17 81 -2 99 24 28 41 20
66 -31 87 -50 22 -63 24 -81 12z"/>
<path d="M16060 11996 c-40 -15 -45 -29 -30 -86 15 -54 46 -70 95 -47 44 21
55 58 28 94 -32 44 -53 53 -93 39z"/>
<path d="M16692 11664 c-16 -11 -22 -25 -22 -53 0 -49 19 -65 66 -58 48 8 64
23 64 63 0 36 -28 64 -65 64 -11 0 -31 -7 -43 -16z"/>
<path d="M16299 11355 c-32 -17 -36 -26 -45 -107 -11 -100 -53 -180 -102 -199
-14 -6 -45 -22 -69 -37 -42 -26 -44 -29 -39 -66 5 -43 13 -51 71 -67 52 -15
133 -99 141 -149 9 -56 33 -116 54 -135 18 -16 22 -16 43 -2 26 17 64 107 75
178 5 35 16 53 47 81 23 20 54 40 70 44 17 4 41 13 55 20 14 7 33 15 43 18 39
12 6 106 -39 106 -8 0 -38 10 -65 21 -58 25 -103 83 -115 145 -15 82 -59 165
-88 164 -6 -1 -23 -7 -37 -15z"/>
<path d="M7085 11110 c-6 -9 -26 -19 -105 -54 -19 -8 -73 -37 -120 -63 -85
-49 -85 -49 -88 -110 -3 -62 -3 -62 41 -41 24 12 51 34 59 49 10 16 28 30 47
34 17 3 40 18 51 33 11 14 38 33 60 43 21 9 52 30 69 46 17 15 38 34 46 41 9
7 13 17 10 23 -8 12 -62 12 -70 -1z"/>
<path d="M12604 11080 c-24 -9 -74 -66 -74 -83 0 -6 -11 -34 -24 -62 -47 -98
-88 -191 -101 -230 -25 -77 -74 -260 -81 -302 -7 -43 -7 -43 49 -43 56 0 56 0
63 38 4 20 13 50 21 65 8 16 18 52 23 82 5 29 18 74 29 99 12 24 21 58 21 73
0 15 9 48 20 72 11 24 20 48 20 54 0 5 11 33 24 61 41 87 68 165 61 176 -7 12
-22 12 -51 0z"/>
<path d="M11021 10916 c-31 -17 -39 -38 -40 -101 -1 -28 -7 -59 -14 -70 -8
-11 -19 -72 -26 -135 -7 -63 -18 -155 -26 -205 -7 -49 -18 -128 -24 -175 -15
-118 -20 -603 -8 -788 9 -153 9 -153 56 -150 46 3 46 3 53 298 4 162 14 365
22 450 8 85 20 256 26 380 6 124 15 284 21 357 13 157 10 167 -40 139z"/>
<path d="M13880 10783 c-13 -3 -60 -25 -105 -51 -44 -25 -102 -56 -130 -69
-27 -13 -62 -30 -77 -38 -16 -8 -40 -22 -55 -30 -16 -8 -57 -29 -93 -48 -36
-18 -96 -51 -133 -73 -38 -21 -88 -50 -110 -63 -23 -13 -58 -36 -78 -52 -19
-15 -47 -33 -62 -40 -15 -7 -34 -23 -42 -36 -9 -12 -24 -23 -34 -23 -10 0 -26
-9 -36 -20 -11 -12 -36 -31 -57 -42 -61 -35 -50 -48 41 -48 83 0 153 21 180
54 7 9 19 16 26 16 15 0 146 72 190 105 17 12 45 27 62 33 18 6 48 22 65 35
18 13 47 29 63 35 29 10 120 66 220 137 28 19 69 45 92 58 136 72 143 77 143
100 0 12 4 29 10 37 16 26 -15 35 -80 23z"/>
<path d="M15217 10648 c-74 -27 -13 -154 64 -135 28 7 49 43 49 82 0 41 -64
71 -113 53z"/>
<path d="M15662 10513 c-15 -6 -42 -67 -42 -94 0 -19 64 -69 88 -69 7 0 24 11
37 25 65 64 0 172 -83 138z"/>
<path d="M12289 10200 c-4 -47 -5 -87 -3 -89 11 -12 15 15 12 90 -3 84 -3 84
-9 -1z"/>
<path d="M16620 10162 c-20 -16 -21 -20 -8 -60 15 -49 41 -61 87 -42 31 13 55
53 46 80 -12 38 -88 52 -125 22z"/>
<path d="M16855 9986 c-21 -32 -7 -62 32 -68 45 -6 63 2 69 29 10 37 -7 58
-49 61 -29 3 -39 -2 -52 -22z"/>
<path d="M16554 9925 c-17 -26 -17 -28 4 -71 12 -24 26 -44 31 -44 19 0 69 51
79 79 13 37 -1 51 -57 58 -34 5 -41 2 -57 -22z"/>
<path d="M10076 9792 c-3 -5 -8 -44 -11 -88 -4 -43 -13 -100 -21 -125 -17 -53
-25 -428 -14 -624 7 -108 54 -482 65 -512 2 -8 21 -13 44 -13 39 0 39 0 35 58
-2 31 -8 134 -14 227 -6 94 -16 226 -21 295 -6 69 -9 265 -8 435 2 171 -1 320
-5 333 -7 21 -39 31 -50 14z"/>
<path d="M15682 9772 c-40 -19 -49 -50 -30 -100 16 -44 55 -66 98 -57 64 14
81 95 31 146 -33 33 -52 35 -99 11z"/>
<path d="M16261 9743 c-5 -21 -18 -71 -28 -112 -21 -87 -71 -152 -140 -182
-30 -13 -48 -29 -59 -52 -15 -31 -15 -36 0 -65 10 -20 27 -34 44 -38 99 -21
172 -101 172 -188 0 -68 18 -116 47 -127 54 -20 89 35 113 180 11 63 56 118
125 153 51 26 95 67 95 89 0 20 -45 59 -68 59 -8 0 -45 31 -82 68 -55 55 -70
78 -84 124 -9 31 -16 60 -16 66 0 5 -9 21 -21 36 -15 19 -30 26 -54 26 -31 0
-35 -3 -44 -37z"/>
<path d="M12800 9705 c0 -30 1 -56 3 -56 1 -1 79 -4 172 -8 140 -5 175 -10
197 -25 15 -10 46 -22 69 -27 63 -14 159 -66 204 -109 45 -42 132 -90 167 -90
13 0 52 -16 88 -35 36 -19 81 -42 100 -50 265 -119 348 -170 534 -327 21 -18
52 -41 67 -50 17 -10 29 -26 29 -38 0 -16 -7 -20 -34 -20 -19 0 -47 -5 -62
-10 -18 -7 -45 -7 -83 0 -31 5 -82 12 -114 15 -32 2 -66 9 -76 14 -24 13 -203
31 -310 31 -48 0 -111 7 -141 15 -180 50 -298 73 -375 74 -32 1 -61 8 -80 21
-16 11 -37 20 -45 20 -9 0 -31 11 -51 24 -19 13 -55 30 -80 36 -24 7 -55 18
-69 25 -14 7 -44 15 -67 18 -43 5 -43 5 -43 -29 0 -31 3 -34 28 -34 34 0 52
-16 52 -46 0 -17 8 -23 35 -28 39 -8 120 -46 178 -84 31 -21 54 -26 120 -30
76 -4 158 -22 182 -41 5 -5 26 -12 45 -16 19 -4 44 -13 55 -20 11 -7 42 -18
70 -24 27 -7 54 -16 60 -21 23 -18 82 -21 182 -9 78 9 113 9 137 1 33 -12 215
-36 354 -47 144 -12 324 24 336 68 14 53 6 87 -30 127 -36 39 -203 176 -378
310 -21 17 -42 30 -45 30 -4 0 -51 32 -105 70 -54 39 -103 70 -109 70 -10 0
-139 55 -200 86 -16 8 -37 14 -48 14 -10 0 -28 9 -39 20 -11 11 -27 20 -36 20
-20 0 -121 48 -159 75 -40 29 -103 58 -198 90 -60 21 -115 29 -255 40 -257 21
-232 25 -232 -40z"/>
<path d="M15563 9440 c-25 -15 -33 -27 -33 -47 0 -38 9 -50 53 -68 54 -22 74
-19 92 15 21 41 19 67 -10 95 -29 30 -59 31 -102 5z"/>
<path d="M12800 9349 c0 -44 2 -49 22 -49 12 0 32 -10 45 -21 16 -16 41 -24
90 -28 37 -4 74 -10 81 -15 7 -4 37 -12 65 -17 140 -23 177 -30 237 -45 127
-31 230 -28 230 6 0 9 -138 55 -225 74 -33 8 -73 18 -90 24 -16 6 -57 16 -90
23 -33 7 -76 21 -95 31 -19 10 -47 18 -63 18 -16 0 -49 9 -75 19 -26 11 -66
22 -89 24 -43 5 -43 5 -43 -44z"/>
<path d="M15698 9119 c-29 -16 -23 -70 10 -102 41 -39 77 -35 101 10 16 31 14
69 -5 87 -17 18 -80 21 -106 5z"/>
<path d="M12203 8834 c-13 -14 -23 -35 -23 -45 0 -20 46 -68 65 -69 6 0 31
-11 57 -25 26 -14 54 -25 63 -25 8 0 23 -9 32 -20 10 -11 28 -20 41 -20 12 0
39 -8 60 -18 20 -10 123 -46 227 -80 105 -33 213 -68 240 -77 61 -20 165 -37
183 -30 7 3 12 15 10 26 -2 17 -22 29 -93 56 -49 20 -103 41 -120 49 -16 7
-52 22 -80 32 -134 51 -334 135 -363 152 -18 11 -38 20 -43 20 -12 0 -107 42
-170 75 -58 31 -59 31 -86 -1z"/>
<path d="M12850 8841 c19 -10 66 -39 103 -64 37 -26 91 -64 120 -83 29 -20 68
-51 87 -69 19 -17 60 -49 90 -70 30 -22 135 -119 232 -217 138 -138 180 -186
189 -217 17 -57 9 -68 -55 -76 -83 -11 -210 10 -461 74 -66 17 -133 31 -148
31 -15 0 -49 11 -75 25 -26 14 -54 25 -63 25 -9 0 -51 18 -93 41 -53 28 -99
44 -144 50 -36 5 -71 14 -77 19 -6 5 -30 16 -53 24 -23 8 -54 24 -69 34 -98
68 -175 111 -207 117 -20 4 -47 16 -60 26 -13 11 -34 19 -47 19 -31 0 -131 69
-251 173 -54 46 -56 47 -124 47 -62 0 -70 -2 -79 -22 -9 -21 -17 -23 -100 -24
-49 0 -143 -8 -207 -18 -118 -19 -118 -19 -118 -61 0 -43 0 -43 248 -47 237
-4 250 -6 326 -32 43 -14 90 -36 104 -46 13 -11 30 -20 38 -20 7 0 25 -10 41
-23 38 -32 111 -72 154 -86 20 -6 73 -36 120 -67 101 -67 169 -100 226 -108
65 -9 133 -35 182 -68 54 -38 223 -98 274 -98 21 0 59 -9 85 -19 26 -10 62
-24 80 -31 18 -7 39 -21 46 -31 7 -10 31 -32 53 -48 55 -40 104 -103 93 -121
-10 -16 -176 -39 -285 -40 -52 0 -96 -8 -165 -32 -116 -38 -210 -41 -310 -9
-36 11 -75 21 -86 21 -12 0 -41 9 -65 20 -24 11 -57 20 -73 20 -15 0 -49 11
-75 24 -119 62 -194 78 -260 55 -17 -6 -39 -8 -49 -3 -9 4 -39 13 -67 19 -27
7 -76 22 -107 34 -39 14 -81 21 -130 21 -81 0 -115 14 -236 96 -36 25 -87 56
-113 70 -49 24 -49 24 -49 -16 0 -40 0 -40 50 -40 50 0 50 0 50 -39 0 -35 3
-39 30 -44 24 -5 30 -12 30 -32 0 -16 -6 -25 -16 -25 -57 0 95 -80 165 -87 31
-3 67 -11 81 -18 14 -7 45 -16 69 -20 24 -4 64 -17 90 -28 37 -17 75 -22 191
-28 152 -6 148 -5 295 -75 28 -13 66 -26 85 -30 19 -3 44 -12 55 -18 11 -7 86
-19 167 -26 163 -15 253 -6 337 31 42 19 186 43 201 34 4 -2 45 3 91 11 46 9
105 19 131 23 63 10 122 56 126 99 2 17 -6 49 -18 72 -12 23 -20 54 -18 68 3
27 3 27 105 28 57 1 115 6 130 12 16 6 50 13 78 15 83 8 111 62 86 168 -7 31
-50 91 -135 191 -8 9 -20 26 -26 37 -6 12 -39 42 -73 66 -33 25 -90 78 -125
118 -35 39 -71 77 -81 82 -9 6 -52 37 -95 70 -43 33 -108 81 -145 107 -36 25
-74 54 -83 64 -10 10 -18 12 -18 6 0 -8 -7 -9 -26 -2 -14 6 -67 10 -117 10
-92 -1 -92 -1 -57 -19z"/>
<path d="M15103 8697 c-62 -23 -66 -48 -16 -107 49 -58 113 -29 113 52 0 31
-5 40 -30 53 -16 8 -30 15 -32 14 -2 0 -17 -6 -35 -12z"/>
<path d="M15110 8475 c-15 -18 -8 -88 10 -110 17 -20 55 -19 91 2 36 21 40 72
9 103 -24 24 -91 27 -110 5z"/>
<path d="M11240 8376 c0 -43 1 -44 49 -65 27 -11 53 -21 56 -21 3 0 30 -11 58
-23 68 -31 136 -55 222 -78 39 -10 82 -25 97 -34 14 -8 46 -18 70 -21 37 -5
46 -3 67 20 24 25 24 25 -5 37 -16 6 -51 21 -79 34 -27 12 -68 26 -90 30 -22
3 -49 12 -61 20 -11 7 -36 18 -55 23 -80 24 -216 75 -260 98 -27 13 -53 24
-59 24 -5 0 -10 -20 -10 -44z"/>
<path d="M10420 7816 c0 -51 2 -57 30 -71 19 -10 57 -15 112 -15 83 0 83 0 48
21 -19 12 -36 25 -38 30 -2 5 -22 18 -45 29 -23 11 -57 29 -74 41 -33 21 -33
21 -33 -35z"/>
<path d="M14621 7791 c-42 -58 -16 -101 61 -101 57 0 73 17 64 66 -6 28 -14
38 -41 50 -49 20 -61 18 -84 -15z"/>
<path d="M14227 7665 c-9 -9 -18 -45 -22 -92 -4 -45 -14 -89 -23 -103 -10 -14
-22 -37 -29 -53 -7 -15 -20 -30 -30 -33 -77 -27 -120 -53 -133 -83 -12 -30
-11 -34 16 -62 16 -17 49 -41 74 -54 57 -30 120 -104 120 -142 0 -17 13 -47
31 -71 24 -32 37 -42 59 -42 36 0 70 41 70 85 0 31 46 136 62 143 4 2 23 16
43 32 20 16 49 32 66 35 33 7 59 39 59 72 0 24 -48 66 -90 78 -39 12 -109 55
-119 74 -5 9 -14 50 -20 91 -10 66 -16 79 -46 108 -38 35 -65 40 -88 17z"/>
<path d="M14962 7638 c-17 -17 -15 -73 4 -88 18 -16 61 -4 78 22 8 13 6 24
-10 45 -23 31 -53 40 -72 21z"/>
<path d="M10736 7542 c17 -15 57 -45 88 -67 32 -22 61 -45 64 -51 4 -5 47 -38
95 -73 87 -61 211 -158 397 -309 104 -85 156 -122 170 -122 17 0 31 39 21 58
-5 9 -67 71 -136 137 -70 66 -143 137 -164 159 -20 21 -63 57 -96 79 -33 22
-76 56 -96 76 -19 20 -69 60 -111 89 -77 52 -77 52 -170 52 -93 -1 -93 -1 -62
-28z"/>
<path d="M14858 7244 c-23 -12 -28 -21 -28 -54 0 -72 72 -107 117 -57 45 49
36 85 -27 111 -30 12 -39 12 -62 0z"/>
<path d="M10223 7100 c28 -27 83 -77 121 -112 90 -81 118 -109 191 -194 33
-38 76 -84 95 -103 19 -19 39 -44 45 -55 8 -15 20 -21 45 -21 31 0 35 3 38 29
3 21 -4 37 -26 60 -16 17 -34 39 -39 49 -19 37 -220 249 -319 336 -68 61 -68
61 -136 61 -68 0 -68 0 -15 -50z"/>
<path d="M13664 7087 c-12 -12 -29 -28 -38 -35 -20 -16 -21 -76 -2 -95 8 -8
29 -20 47 -27 32 -13 33 -13 66 25 18 21 33 43 33 49 -1 20 -60 106 -73 106
-6 0 -22 -10 -33 -23z"/>
<path d="M13845 6906 c-31 -40 -26 -59 22 -81 33 -16 39 -16 69 -1 42 19 45
50 9 89 -35 37 -68 35 -100 -7z"/>
<path d="M13054 6811 c-64 -16 -70 -36 -23 -75 74 -62 182 -6 119 62 -21 23
-42 25 -96 13z"/>
<path d="M13446 6648 c-9 -12 -16 -39 -16 -59 0 -84 92 -94 126 -14 18 45 18
51 -6 75 -28 28 -84 27 -104 -2z"/>
<path d="M9720 6550 c0 -28 4 -50 9 -50 5 0 33 -19 63 -43 29 -23 64 -51 78
-60 14 -10 39 -28 57 -41 33 -24 83 -25 83 -2 0 17 -44 56 -108 95 -29 19 -58
41 -65 50 -7 9 -24 24 -39 34 -16 10 -28 23 -28 31 0 7 -11 18 -25 24 -25 12
-25 11 -25 -38z"/>
<path d="M13090 6440 c-11 -20 -4 -66 13 -87 25 -33 87 0 87 45 0 51 -78 84
-100 42z"/>
<path d="M7830 9389 c-29 -10 -70 -30 -89 -43 -20 -14 -61 -38 -91 -54 -55
-29 -55 -30 -58 -81 -2 -28 0 -51 3 -51 3 0 18 9 33 19 15 10 59 38 97 61 122
72 185 119 185 139 0 28 -21 31 -80 10z"/>
<path d="M7470 9208 c-14 -5 -43 -18 -65 -28 -22 -10 -55 -21 -72 -25 -64 -13
-44 -25 41 -25 77 0 86 2 86 19 0 10 9 30 21 45 11 14 19 26 17 25 -2 0 -14
-5 -28 -11z"/>
<path d="M19331 16286 c-18 -13 -46 -30 -62 -36 -50 -21 -32 -64 56 -140 75
-65 115 -107 115 -124 0 -9 16 -22 35 -30 19 -8 35 -20 35 -25 0 -6 14 -24 30
-41 17 -17 30 -37 30 -45 0 -7 9 -17 20 -20 52 -17 -10 -109 -111 -165 -15 -8
-54 -30 -86 -49 -32 -18 -87 -49 -122 -67 -57 -31 -94 -54 -211 -130 -19 -12
-55 -33 -80 -47 -41 -22 -112 -64 -186 -110 -305 -187 -305 -187 -408 -238
-102 -50 -216 -130 -216 -151 0 -5 16 -24 35 -42 19 -19 35 -43 35 -54 0 -30
12 -33 61 -14 42 16 68 32 127 78 15 11 63 41 107 66 44 25 132 77 195 117 63
39 140 85 170 102 98 54 145 83 181 112 20 15 39 27 43 27 3 0 50 26 104 57
53 31 122 70 152 86 30 17 64 38 75 48 20 18 95 61 172 99 23 11 45 25 48 30
19 31 105 -28 105 -71 0 -15 7 -40 15 -55 8 -16 15 -40 15 -54 0 -14 14 -54
31 -88 26 -55 30 -70 24 -113 -6 -41 -4 -49 9 -49 9 0 18 -12 22 -27 16 -76
40 -90 92 -54 15 10 39 26 55 35 33 20 37 66 7 103 -11 14 -20 34 -20 44 0 10
-9 24 -20 32 -11 7 -55 74 -99 148 -44 74 -93 152 -108 174 -15 22 -34 53 -41
69 -7 17 -20 38 -28 47 -21 24 -82 126 -90 152 -6 21 -17 40 -89 156 -19 30
-37 66 -40 82 -4 15 -13 33 -21 40 -8 7 -31 41 -50 76 -30 53 -58 83 -76 83
-2 0 -19 -11 -37 -24z"/>
<path d="M3994 15644 c-9 -14 -30 -32 -46 -40 -16 -9 -56 -40 -89 -70 -32 -30
-63 -54 -69 -54 -5 0 -10 -6 -10 -14 0 -14 -40 -70 -85 -119 -14 -15 -25 -34
-25 -41 0 -7 -8 -24 -18 -37 -11 -13 -22 -41 -25 -62 -3 -20 -15 -49 -26 -63
-11 -14 -24 -42 -27 -63 -4 -20 -16 -48 -27 -63 -18 -24 -19 -39 -15 -205 4
-170 5 -180 32 -232 21 -43 26 -63 21 -92 -6 -34 -4 -38 17 -41 16 -2 24 -11
26 -28 2 -13 15 -37 28 -53 13 -16 24 -34 24 -41 0 -7 12 -22 26 -35 14 -12
32 -38 40 -56 8 -19 24 -40 36 -46 13 -7 61 -40 108 -74 85 -62 261 -155 293
-155 9 0 40 -9 69 -21 44 -17 83 -21 233 -25 165 -5 186 -4 250 16 39 12 84
24 100 27 17 3 43 16 58 29 16 13 34 24 41 24 7 0 34 20 59 45 26 25 50 45 53
45 3 0 28 22 56 50 27 27 57 52 66 55 10 3 25 24 36 48 10 23 29 58 41 77 13
19 26 51 30 70 4 19 18 53 30 75 13 22 26 58 29 80 10 60 16 75 29 75 8 0 13
23 14 63 2 34 9 102 18 151 15 97 8 145 -34 226 -18 33 -27 41 -93 72 -88 43
-166 82 -188 94 -14 8 -70 37 -125 65 -55 28 -130 69 -167 90 -77 45 -121 50
-139 17 -6 -13 -20 -33 -31 -45 -16 -17 -19 -30 -14 -57 6 -30 16 -41 67 -71
33 -19 66 -35 72 -35 7 0 21 -6 32 -14 11 -7 54 -28 95 -45 41 -18 81 -38 90
-45 8 -7 27 -16 41 -19 76 -18 229 -144 229 -188 0 -11 7 -34 16 -52 23 -43
13 -238 -15 -300 -10 -23 -22 -55 -25 -72 -4 -16 -17 -46 -29 -66 -64 -102
-83 -130 -99 -134 -9 -3 -19 -16 -22 -28 -8 -29 -178 -132 -214 -129 -14 1
-32 -4 -41 -12 -20 -17 -156 -30 -281 -27 -107 3 -244 34 -330 74 -30 14 -71
33 -90 41 -90 41 -269 186 -297 240 -9 17 -24 37 -34 44 -11 7 -19 23 -19 35
0 13 -21 56 -46 97 -65 103 -76 184 -59 395 7 87 11 102 34 125 19 19 25 34
24 63 -2 32 2 39 22 47 14 5 31 24 39 43 18 45 107 121 209 179 69 40 90 48
132 47 186 -1 172 -5 196 42 21 43 21 43 -24 86 -46 43 -46 43 -156 43 -107 0
-111 -1 -127 -26z"/>
<path d="M20186 14660 c-28 -10 -73 -29 -100 -43 -28 -14 -89 -43 -136 -63
-47 -20 -112 -49 -145 -64 -101 -47 -184 -80 -198 -80 -8 0 -22 -8 -31 -19 -9
-10 -34 -21 -54 -25 -20 -3 -59 -17 -87 -31 -27 -14 -56 -25 -63 -25 -14 0
-110 -47 -132 -66 -8 -6 -31 -15 -50 -19 -19 -4 -47 -16 -62 -26 -14 -11 -41
-22 -60 -26 -18 -3 -44 -13 -58 -22 -27 -18 -151 -67 -243 -97 -32 -10 -72
-30 -89 -45 -32 -26 -32 -26 -18 -73 17 -61 45 -80 106 -73 26 2 55 13 67 25
12 11 38 25 57 30 48 14 227 89 254 107 12 8 39 21 61 28 22 8 78 33 125 55
47 22 96 44 110 47 14 4 32 13 40 20 8 7 36 17 62 24 26 6 68 22 94 36 26 14
54 25 63 25 9 0 30 8 46 18 17 10 44 22 60 26 17 4 37 13 45 20 8 7 35 20 60
29 25 8 77 27 115 42 39 15 93 35 120 45 28 10 76 29 107 43 49 22 58 30 63
59 10 53 -35 140 -70 136 -5 0 -32 -9 -59 -18z"/>
<path d="M19845 13889 c-138 -14 -333 -75 -416 -130 -39 -25 -88 -55 -126 -77
-13 -7 -40 -34 -60 -59 -21 -26 -51 -59 -67 -74 -33 -31 -60 -75 -108 -174
-83 -169 -78 -144 -78 -373 0 -189 2 -210 20 -240 11 -18 20 -40 20 -48 0 -9
6 -30 14 -47 8 -18 17 -48 20 -68 4 -20 15 -44 27 -55 11 -10 29 -36 40 -58
40 -81 64 -122 84 -144 63 -71 121 -122 136 -122 6 0 22 -9 36 -20 14 -11 35
-20 47 -20 12 0 39 9 61 20 22 11 47 20 56 20 9 0 24 9 34 20 24 27 12 40 -82
86 -41 21 -96 57 -121 81 -26 25 -66 57 -88 73 -43 30 -100 108 -127 171 -8
20 -20 40 -26 43 -6 4 -11 19 -11 34 0 15 -11 49 -25 75 -24 45 -26 54 -22
180 4 134 14 182 58 269 11 20 19 42 19 48 0 37 204 240 284 282 149 77 197
98 225 98 18 0 46 8 64 17 69 36 456 36 508 -1 13 -9 32 -16 42 -16 47 0 156
-69 268 -169 46 -41 119 -162 119 -198 0 -7 11 -30 24 -51 21 -34 23 -47 24
-186 0 -139 -2 -155 -28 -227 -15 -43 -40 -92 -54 -110 -14 -17 -26 -34 -26
-39 0 -5 -26 -23 -57 -41 -66 -37 -73 -44 -73 -80 0 -47 20 -61 97 -66 70 -5
70 -5 120 38 53 45 103 122 103 156 0 11 9 50 21 86 34 109 20 310 -33 472
-10 33 -23 80 -27 105 -5 28 -16 49 -30 58 -11 8 -21 25 -21 38 0 13 -15 39
-32 57 -18 19 -58 63 -88 97 -55 63 -159 146 -235 187 -81 43 -153 65 -265 78
-126 16 -130 16 -245 4z"/>
<path d="M4707 13554 c-3 -3 -36 -10 -74 -15 -37 -5 -88 -13 -113 -19 -25 -6
-84 -17 -132 -25 -48 -7 -109 -20 -135 -28 -27 -8 -80 -18 -120 -21 -39 -3
-109 -15 -155 -25 -46 -11 -117 -23 -158 -26 -41 -4 -86 -12 -100 -17 -13 -5
-72 -16 -130 -24 -58 -8 -130 -21 -161 -29 -31 -7 -89 -17 -130 -20 -41 -4
-101 -15 -134 -25 -33 -10 -99 -21 -148 -25 -84 -7 -87 -8 -93 -33 -3 -15 -9
-40 -13 -57 -4 -16 -7 -50 -7 -75 1 -45 1 -45 68 -45 54 0 71 -4 90 -21 13
-12 35 -28 49 -35 29 -15 171 -111 234 -158 22 -16 72 -51 110 -77 39 -25 81
-55 95 -65 14 -11 39 -26 55 -33 17 -8 42 -24 57 -35 44 -35 130 -92 169 -111
19 -10 41 -26 49 -35 7 -9 28 -22 47 -30 18 -8 33 -19 33 -25 0 -6 15 -18 33
-26 38 -18 130 -74 154 -96 10 -9 28 -19 41 -22 12 -4 22 -11 22 -16 0 -5 14
-17 31 -25 16 -9 38 -23 47 -31 45 -40 97 -74 129 -85 47 -15 59 -1 68 84 7
56 6 63 -15 77 -12 8 -36 27 -52 43 -17 15 -37 27 -45 27 -8 0 -26 8 -41 19
-34 23 -84 53 -142 85 -107 58 -150 149 -150 318 0 91 4 116 31 194 17 49 38
98 48 109 9 11 23 33 31 48 8 16 26 35 41 44 15 9 32 27 38 40 6 12 17 23 25
23 8 0 27 11 43 24 40 33 134 66 218 76 92 11 254 55 273 74 16 16 23 121 9
144 -8 12 -79 17 -90 6z m-517 -288 c0 -8 -14 -25 -31 -38 -54 -40 -149 -146
-149 -165 0 -6 -9 -22 -21 -36 -42 -54 -71 -164 -77 -290 -5 -118 -5 -118 -31
-112 -14 3 -37 14 -51 24 -15 10 -48 30 -75 44 -28 14 -87 50 -133 81 -46 31
-95 59 -110 63 -15 3 -49 21 -76 40 -26 18 -53 33 -59 33 -5 0 -24 10 -41 23
-17 12 -57 36 -89 52 -82 42 -120 76 -112 98 4 9 17 19 29 21 11 3 64 14 116
25 52 11 127 25 165 31 197 31 306 50 368 64 38 9 86 16 107 16 38 0 108 13
160 30 44 14 110 12 110 -4z"/>
<path d="M3825 12005 c-44 -7 -93 -20 -110 -29 -16 -9 -34 -16 -38 -16 -10 0
-79 -69 -94 -95 -7 -11 -20 -36 -29 -55 -9 -19 -26 -48 -38 -65 -33 -46 -109
-321 -121 -436 -4 -35 -18 -87 -31 -116 -13 -28 -24 -65 -24 -81 0 -78 -79
-233 -146 -286 -35 -27 -39 -28 -128 -24 -84 3 -97 7 -141 36 -27 18 -52 32
-57 32 -4 0 -19 17 -33 38 -14 20 -40 56 -59 78 -24 31 -35 56 -40 95 -4 30
-15 65 -24 79 -27 39 -22 237 7 284 12 18 21 50 21 70 0 52 68 180 132 247 38
39 76 67 129 92 42 20 79 43 83 52 23 61 -24 95 -132 95 -71 0 -75 -1 -123
-41 -49 -42 -103 -123 -115 -176 -4 -15 -14 -41 -24 -58 -10 -16 -21 -51 -24
-76 -4 -26 -15 -54 -24 -62 -16 -14 -18 -43 -20 -262 -2 -211 0 -245 13 -245
20 0 31 -26 38 -86 12 -109 135 -276 237 -322 45 -21 74 -26 167 -30 128 -5
164 7 251 80 82 68 114 109 141 183 13 33 27 66 33 73 6 7 11 31 10 53 -1 22
5 50 13 62 8 12 19 56 26 97 6 41 20 102 30 134 11 33 19 83 19 110 0 29 9 70
20 95 11 24 20 50 20 59 0 24 52 122 83 154 15 17 27 34 27 39 0 22 84 59 169
75 91 18 91 18 163 -6 60 -19 82 -32 125 -76 29 -29 62 -58 73 -64 11 -6 20
-21 20 -33 0 -13 11 -38 24 -56 19 -25 26 -50 31 -109 3 -43 10 -102 16 -132
8 -43 7 -77 -5 -155 -9 -55 -19 -116 -22 -135 -6 -39 -41 -103 -93 -172 -20
-26 -44 -59 -55 -74 -10 -14 -38 -35 -61 -45 -23 -10 -48 -25 -54 -33 -20 -23
-119 -10 -152 21 -23 21 -30 23 -48 14 -13 -8 -21 -22 -21 -39 0 -15 -4 -33
-9 -41 -8 -13 25 -91 49 -115 5 -5 50 -12 101 -17 85 -7 97 -5 148 17 88 39
133 91 206 239 45 90 65 141 65 167 0 21 9 61 21 90 42 105 44 364 4 422 -8
11 -15 36 -15 56 0 19 -12 58 -25 85 -14 28 -25 57 -25 66 0 27 -59 107 -119
158 -89 77 -160 105 -316 124 -22 3 -76 -1 -120 -8z"/>
<path d="M19515 11977 c-28 -12 -61 -31 -74 -42 -64 -56 -113 -112 -118 -137
-3 -15 -14 -35 -24 -44 -11 -9 -19 -26 -19 -38 0 -11 -9 -43 -19 -71 -33 -85
-43 -236 -31 -444 9 -157 14 -188 31 -209 10 -14 19 -37 19 -53 0 -15 11 -45
25 -65 14 -20 25 -45 25 -55 0 -10 11 -26 25 -35 14 -9 25 -22 25 -29 0 -19
97 -102 151 -130 80 -41 181 -54 307 -40 59 7 122 19 138 28 16 8 57 41 90 74
102 97 153 224 195 483 10 69 24 141 29 160 5 19 15 84 21 144 7 71 18 122 30
145 10 20 19 48 19 64 0 37 59 114 112 145 38 23 47 24 136 18 62 -4 102 -12
112 -21 9 -8 30 -20 48 -26 20 -7 50 -36 87 -83 30 -40 55 -76 55 -81 0 -4 12
-33 26 -63 26 -56 26 -57 22 -258 -3 -159 -7 -206 -20 -225 -8 -13 -18 -40
-22 -59 -11 -63 -127 -200 -168 -200 -23 0 -99 -64 -110 -93 -6 -13 0 -26 20
-47 38 -38 93 -46 167 -25 51 15 60 22 87 66 17 27 38 51 47 54 24 8 78 200
92 330 16 138 16 174 0 305 -16 137 -29 198 -52 236 -11 17 -19 42 -19 55 0
14 -9 32 -20 42 -11 9 -20 28 -20 42 0 16 -6 25 -16 25 -18 0 -75 57 -104 103
-13 21 -37 36 -86 53 -61 22 -83 24 -184 22 -100 -3 -122 -6 -172 -30 -32 -15
-80 -47 -107 -73 -41 -38 -54 -60 -80 -133 -40 -113 -71 -254 -82 -367 -12
-133 -44 -306 -77 -415 -28 -93 -89 -178 -159 -221 -52 -33 -157 -37 -245 -10
-40 13 -86 30 -103 39 -75 40 -165 171 -165 240 0 18 -8 40 -19 51 -24 24 -35
144 -25 278 9 127 51 259 104 328 79 100 84 105 154 130 69 25 69 25 105 6 86
-46 114 -33 109 54 -3 59 -3 59 -68 92 -78 39 -133 42 -205 10z"/>
<path d="M18383 8128 c-12 -15 -39 -74 -47 -104 -4 -12 2 -42 13 -67 11 -26
23 -63 27 -84 4 -21 13 -47 20 -58 7 -11 20 -51 29 -89 9 -37 22 -78 30 -90 7
-11 15 -37 17 -56 3 -31 0 -35 -23 -38 -14 -2 -31 4 -39 12 -7 9 -18 16 -26
16 -7 0 -28 13 -46 29 -32 28 -146 91 -165 91 -15 0 -51 -42 -63 -74 -16 -44
5 -60 178 -137 28 -13 52 -27 52 -32 0 -4 19 -17 43 -28 62 -29 100 -49 117
-60 8 -5 28 -17 44 -27 15 -9 73 -45 128 -79 55 -35 108 -63 117 -63 23 0 49
29 60 66 11 41 5 52 -48 79 -26 13 -74 41 -107 63 -51 34 -65 50 -88 102 -43
95 -41 96 224 105 205 7 251 20 275 79 21 50 19 62 -12 74 -32 13 -113 6 -323
-27 -74 -11 -149 -21 -167 -21 -37 0 -61 20 -69 58 -3 15 -12 47 -20 72 -9 25
-19 69 -24 97 -13 81 -50 182 -70 193 -24 13 -26 13 -37 -2z"/>
<path d="M5096 8078 c-17 -6 -66 -34 -110 -63 -70 -46 -126 -79 -284 -171 -19
-10 -59 -35 -90 -55 -32 -20 -75 -42 -96 -50 -47 -17 -69 -47 -61 -82 17 -66
83 -79 143 -29 20 18 69 50 107 73 39 23 81 49 94 58 40 26 142 81 152 81 22
0 5 -35 -45 -89 -30 -32 -57 -68 -60 -79 -4 -12 -16 -24 -27 -27 -10 -4 -25
-17 -32 -29 -17 -33 -71 -92 -95 -105 -24 -13 -72 -92 -72 -120 0 -11 11 -33
24 -48 21 -24 31 -28 75 -27 27 1 85 13 128 27 49 16 111 27 166 30 48 3 94
10 102 17 17 14 67 10 72 -7 3 -7 -11 -19 -29 -28 -18 -8 -55 -29 -83 -46 -27
-17 -96 -55 -153 -84 -57 -30 -110 -59 -118 -66 -8 -6 -14 -29 -14 -50 0 -35
4 -41 35 -56 35 -16 35 -16 87 18 139 93 134 90 290 173 40 21 78 42 83 46 6
4 51 29 100 55 103 53 135 80 135 109 0 24 -34 85 -58 104 -23 18 -100 15
-162 -7 -30 -10 -91 -25 -135 -31 -44 -7 -92 -19 -107 -26 -15 -8 -44 -14 -66
-14 -21 0 -59 -7 -85 -16 -54 -18 -91 -16 -95 7 -2 9 29 53 68 98 38 45 70 86
70 90 0 4 63 71 140 149 90 91 140 149 140 162 0 21 -40 83 -69 108 -17 14
-26 14 -65 0z"/>
<path d="M17965 7225 c-5 -2 -30 -9 -53 -15 -56 -14 -112 -66 -214 -195 -43
-55 -92 -117 -108 -137 -32 -39 -38 -81 -17 -109 7 -9 32 -26 57 -39 50 -25
165 -109 250 -180 30 -26 65 -50 77 -54 12 -4 32 -20 44 -37 11 -16 35 -37 52
-46 18 -9 44 -29 58 -44 22 -23 36 -29 71 -29 52 0 68 13 68 55 0 36 -47 86
-123 129 -64 37 -117 84 -117 105 0 10 9 26 21 37 12 10 28 32 36 49 9 16 22
37 29 45 8 8 25 29 39 46 33 42 78 60 111 45 14 -6 33 -11 43 -11 9 0 35 -13
57 -30 21 -16 43 -30 47 -30 5 0 23 -11 41 -25 18 -14 42 -25 52 -25 30 0 94
63 94 91 0 38 -12 48 -81 67 -36 10 -81 30 -100 44 -62 47 -99 61 -147 55 -42
-5 -44 -3 -58 29 -8 18 -14 42 -14 53 0 22 -87 121 -107 121 -8 0 -31 9 -53
20 -22 11 -41 20 -42 19 -2 0 -7 -2 -13 -4z m59 -166 c30 -24 56 -69 56 -97 0
-27 -36 -107 -56 -123 -9 -7 -34 -39 -55 -71 -33 -48 -45 -58 -69 -58 -15 0
-41 11 -57 24 -15 12 -47 35 -70 50 -50 31 -53 49 -18 97 14 19 33 47 42 64
10 16 40 53 67 82 44 48 53 53 91 53 28 0 51 -7 69 -21z"/>
<path d="M5785 6993 c-10 -3 -29 -12 -40 -19 -12 -8 -46 -21 -76 -30 -30 -9
-71 -25 -91 -35 -21 -10 -45 -19 -54 -19 -9 0 -30 -7 -47 -15 -18 -8 -58 -21
-90 -29 -31 -8 -67 -22 -79 -30 -12 -9 -41 -16 -65 -16 -23 0 -44 -4 -47 -9
-3 -5 -27 -14 -53 -21 -60 -14 -83 -35 -83 -72 0 -31 31 -68 58 -68 58 1 145
21 168 39 15 12 35 21 45 21 20 0 79 -46 79 -62 0 -6 11 -19 24 -29 36 -28 76
-103 76 -141 0 -26 -12 -47 -55 -96 -42 -49 -55 -71 -55 -95 0 -41 22 -73 56
-81 43 -11 62 2 93 64 16 32 47 80 67 107 20 26 46 68 57 93 20 45 61 111 117
186 16 23 30 46 30 51 0 6 7 17 16 24 9 7 31 36 50 64 18 27 41 60 49 72 15
20 15 24 -2 53 -10 18 -24 43 -31 57 -20 36 -63 49 -117 36z m-29 -174 c3 -6
-8 -25 -25 -43 -17 -18 -31 -38 -31 -45 0 -7 -13 -29 -30 -48 -16 -18 -30 -40
-30 -48 0 -8 -11 -22 -24 -30 -19 -13 -28 -14 -43 -4 -29 18 -94 116 -87 132
6 16 108 57 140 57 11 0 35 9 54 19 40 23 66 26 76 10z"/>
<path d="M17280 6411 c-8 -5 -37 -12 -63 -15 -34 -5 -60 -17 -85 -40 -20 -17
-49 -39 -63 -48 -36 -23 -76 -93 -95 -170 -26 -100 -28 -145 -9 -174 10 -16
14 -35 10 -53 -4 -21 0 -36 18 -57 13 -16 31 -42 40 -59 38 -75 153 -175 199
-175 11 0 32 -10 48 -21 26 -20 38 -21 127 -17 103 6 176 31 218 78 10 11 24
20 31 20 7 0 31 21 53 47 45 51 66 108 76 213 13 127 -53 280 -148 348 -84 59
-112 73 -198 102 -94 31 -133 36 -159 21z m111 -144 c98 -24 202 -117 252
-227 17 -39 19 -51 9 -104 -14 -75 -66 -162 -104 -175 -16 -6 -41 -19 -57 -30
-43 -31 -74 -34 -137 -14 -56 17 -194 106 -194 124 0 5 -14 25 -32 45 -31 35
-33 41 -36 134 -4 97 -4 97 39 146 29 33 66 61 109 82 75 36 77 36 151 19z"/>
<path d="M6169 6332 c-29 -21 -64 -55 -76 -77 -20 -35 -22 -49 -17 -110 6 -65
11 -77 72 -169 66 -101 92 -163 92 -221 0 -36 -12 -53 -57 -83 -39 -27 -58
-28 -90 -2 -14 11 -31 20 -37 20 -23 0 -95 86 -116 139 -21 53 -21 53 1 118
26 76 19 112 -23 127 -54 19 -107 -49 -123 -158 -14 -89 10 -143 125 -278 47
-55 126 -96 202 -104 60 -6 68 -4 136 30 67 34 74 41 103 98 22 43 29 70 26
92 -9 54 -46 147 -66 164 -32 29 -111 196 -111 236 0 33 62 86 99 86 31 0 111
-56 151 -107 19 -25 21 -36 17 -93 -3 -36 -9 -74 -12 -86 -10 -33 34 -79 68
-70 14 3 28 14 31 24 3 9 17 30 30 45 14 16 27 46 31 68 6 33 1 52 -34 123
-51 106 -119 171 -212 204 -96 34 -144 30 -210 -16z"/>
<path d="M16584 5832 c-45 -30 -45 -111 1 -188 19 -32 35 -68 35 -80 0 -22 29
-81 56 -114 6 -8 15 -26 19 -40 4 -14 16 -37 26 -51 25 -36 34 -76 19 -94 -18
-22 -24 -20 -77 30 -26 24 -54 45 -60 45 -7 0 -18 9 -25 21 -7 11 -29 29 -48
39 -19 10 -66 49 -105 86 -110 106 -139 117 -195 74 -37 -28 -33 -84 13 -200
21 -52 43 -102 48 -110 11 -18 22 -44 39 -90 7 -19 18 -51 25 -70 7 -19 15
-51 17 -70 5 -52 -19 -48 -82 12 -30 29 -86 78 -125 109 -38 31 -97 82 -130
114 -47 46 -67 59 -91 59 -44 0 -84 -28 -84 -60 0 -27 62 -93 114 -121 16 -8
40 -28 53 -44 14 -16 35 -34 48 -41 26 -15 145 -110 220 -178 147 -131 170
-146 210 -136 11 3 30 15 43 26 39 36 30 84 -47 259 -71 160 -121 295 -121
324 0 9 7 17 16 17 20 0 111 -65 137 -98 10 -12 33 -30 50 -39 37 -18 90 -61
188 -150 69 -64 97 -75 119 -48 7 8 20 15 30 15 30 0 39 22 33 84 -5 48 -10
59 -29 67 -19 7 -24 16 -24 45 0 21 -6 45 -14 53 -7 9 -28 50 -46 91 -17 41
-39 91 -47 110 -9 19 -30 77 -49 127 -69 191 -112 248 -160 215z"/>
<path d="M6935 5727 c-99 -39 -165 -120 -165 -203 0 -54 43 -145 89 -189 40
-38 86 -103 96 -135 4 -14 16 -36 26 -49 27 -34 23 -65 -12 -106 -31 -35 -32
-35 -96 -30 -72 5 -108 28 -171 107 -34 43 -34 43 -29 134 7 106 -4 134 -54
134 -24 0 -34 -8 -58 -47 -81 -130 -22 -278 164 -406 60 -41 60 -41 160 -41
109 0 140 10 186 61 33 34 59 84 61 115 3 59 -34 151 -85 214 -81 99 -93 116
-116 166 -36 81 -26 117 43 143 44 17 45 17 100 -11 31 -16 71 -43 89 -62 31
-32 32 -36 32 -120 0 -92 11 -126 45 -137 27 -9 36 -1 65 53 14 26 31 55 37
64 14 20 -7 93 -48 164 -24 43 -114 120 -195 167 -50 30 -111 35 -164 14z"/>
<path d="M7845 5124 c-16 -8 -62 -45 -101 -82 -40 -37 -106 -94 -148 -127 -42
-33 -102 -82 -133 -108 -32 -26 -94 -73 -139 -103 -84 -56 -99 -78 -83 -122 5
-12 19 -27 32 -33 41 -19 95 5 164 71 67 64 107 77 134 43 8 -9 32 -25 54 -35
67 -30 120 -72 123 -97 2 -13 -3 -51 -12 -85 -26 -104 -28 -154 -8 -165 70
-37 140 -17 141 41 0 47 17 161 35 243 9 39 16 87 16 107 0 21 9 60 20 87 10
27 24 85 29 128 6 43 15 93 22 111 34 97 -55 174 -146 126z m-12 -225 c0 -19
-6 -56 -13 -84 -7 -27 -15 -68 -19 -90 -8 -53 -35 -57 -98 -16 -26 17 -50 31
-54 31 -3 0 -9 10 -12 22 -5 16 4 31 36 62 63 61 139 117 151 113 6 -2 10 -19
9 -38z"/>
<path d="M15607 5133 c-54 -8 -61 -36 -67 -258 -5 -192 -6 -200 -25 -203 -12
-2 -36 9 -55 23 -19 13 -50 32 -69 40 -18 9 -38 20 -45 26 -25 21 -85 57 -105
64 -12 3 -26 15 -31 26 -15 28 -71 25 -117 -7 -21 -14 -39 -27 -41 -29 -2 -2
3 -16 11 -32 11 -20 41 -41 104 -73 48 -24 95 -50 103 -56 8 -7 40 -25 70 -41
72 -39 168 -98 190 -118 10 -9 41 -63 69 -120 52 -105 70 -125 113 -125 32 0
88 36 88 56 0 21 -50 125 -67 139 -19 16 -70 117 -78 153 -7 32 10 325 25 437
4 33 4 70 -1 83 -8 22 -16 23 -72 15z"/>
<path d="M8550 4695 c-58 -16 -88 -29 -98 -44 -8 -11 -20 -21 -28 -21 -7 0
-33 -28 -56 -61 -24 -34 -49 -70 -57 -80 -7 -11 -27 -58 -42 -105 -34 -101
-40 -226 -13 -290 15 -35 26 -50 101 -126 67 -68 242 -124 312 -100 35 12 33
13 81 -55 44 -62 62 -58 104 24 14 29 26 59 26 66 0 8 11 34 23 58 13 24 30
62 37 84 7 22 19 47 27 57 29 33 12 69 -47 104 -30 18 -68 36 -85 40 -16 3
-51 18 -77 32 -46 26 -47 26 -83 9 -32 -15 -36 -21 -33 -49 3 -30 9 -35 88
-69 75 -32 85 -40 82 -60 -4 -34 -49 -99 -68 -99 -9 0 -32 -7 -51 -16 -32 -16
-39 -16 -103 0 -37 9 -74 16 -81 16 -8 0 -32 17 -55 38 -33 31 -44 50 -58 107
-15 60 -16 78 -5 139 18 99 95 236 133 236 7 0 21 8 30 19 21 23 94 33 162 23
55 -9 93 -33 155 -97 33 -33 39 -47 39 -81 0 -54 30 -94 70 -94 41 0 50 24 50
123 0 84 0 84 -42 137 -61 74 -116 107 -225 136 -108 28 -102 28 -213 -1z"/>
<path d="M14599 4606 c-3 -3 -36 -10 -74 -16 -38 -6 -77 -18 -86 -26 -8 -8
-29 -14 -45 -14 -17 0 -36 -6 -42 -12 -7 -7 -41 -26 -75 -43 -56 -27 -62 -33
-60 -58 1 -16 18 -66 38 -112 19 -45 35 -91 35 -101 0 -10 14 -39 30 -63 17
-24 30 -53 30 -63 0 -10 9 -36 19 -56 20 -39 34 -76 56 -152 7 -25 25 -72 39
-105 20 -47 30 -61 49 -63 27 -3 181 43 212 64 11 8 29 14 42 14 12 0 25 5 29
11 3 6 18 16 33 23 41 19 101 57 101 65 0 4 13 28 30 52 33 51 58 174 42 206
-5 10 -13 49 -16 87 -4 39 -13 77 -20 85 -8 9 -26 41 -41 71 -15 30 -55 82
-89 115 -55 55 -68 63 -131 78 -71 17 -98 20 -106 13z m136 -184 c22 -26 50
-57 63 -71 12 -13 22 -29 22 -35 0 -6 12 -33 25 -61 20 -40 25 -66 25 -126 0
-55 -4 -80 -15 -89 -8 -6 -17 -22 -21 -33 -9 -32 -75 -87 -104 -87 -14 0 -40
-9 -58 -20 -37 -23 -75 -26 -89 -7 -6 6 -29 55 -52 107 -24 52 -51 111 -62
131 -10 20 -19 45 -19 55 0 11 -6 30 -13 44 -46 91 -58 166 -27 180 8 4 40 19
70 33 64 31 86 35 160 29 51 -4 58 -8 95 -50z"/>
<path d="M9465 4396 c-20 -15 -38 -69 -60 -190 -9 -44 -22 -90 -30 -103 -8
-12 -20 -55 -27 -95 -7 -40 -20 -84 -30 -97 -10 -13 -18 -34 -18 -47 0 -12
-11 -54 -25 -92 -51 -142 -34 -165 150 -204 28 -6 77 -18 110 -28 33 -10 84
-23 114 -29 29 -6 67 -23 83 -36 16 -14 38 -25 48 -25 17 0 80 73 80 92 0 17
-88 62 -155 79 -38 9 -94 27 -123 38 -29 12 -62 21 -73 21 -36 0 -89 31 -95
56 -8 32 15 123 39 156 27 36 44 41 80 23 16 -8 46 -15 67 -15 20 0 40 -4 46
-9 5 -5 41 -19 79 -31 39 -11 83 -28 99 -36 28 -14 31 -14 52 8 22 22 23 25
10 67 -13 45 -13 45 -82 57 -39 6 -84 19 -102 28 -17 9 -44 16 -61 16 -44 0
-118 35 -125 59 -3 12 -8 30 -12 40 -3 13 3 28 17 42 12 12 25 36 28 52 11 52
29 55 153 23 62 -15 142 -39 177 -53 63 -25 65 -25 98 -8 44 24 53 58 23 90
-26 27 -53 38 -132 53 -31 6 -70 20 -85 30 -15 11 -53 23 -83 27 -30 3 -59 10
-65 14 -12 10 -117 41 -137 41 -8 0 -23 -6 -33 -14z"/>
<path d="M13575 4291 c-16 -4 -43 -15 -60 -23 -16 -9 -49 -21 -73 -28 -32 -8
-58 -27 -98 -68 -30 -31 -54 -63 -54 -69 0 -7 -10 -41 -21 -74 -18 -52 -21
-77 -17 -158 5 -89 25 -182 52 -240 15 -33 156 -171 175 -171 9 0 30 -9 46
-20 21 -14 39 -18 61 -14 18 3 41 1 52 -5 15 -8 35 -6 83 10 77 25 86 30 171
86 90 59 125 112 146 220 15 77 15 89 -2 177 -22 117 -55 187 -123 261 -74 79
-159 122 -244 123 -35 0 -77 -3 -94 -7z m127 -136 c26 -14 52 -25 59 -25 22 0
74 -66 111 -140 34 -67 38 -83 38 -150 0 -56 -5 -82 -17 -100 -10 -13 -27 -42
-38 -64 -16 -33 -34 -48 -94 -80 -73 -38 -73 -38 -135 -26 -76 16 -106 31
-146 72 -52 55 -81 122 -86 202 -8 120 2 169 47 226 22 28 55 57 72 64 18 8
48 21 67 29 49 22 68 21 122 -8z"/>
<path d="M12416 4100 c-72 -6 -81 -9 -107 -38 -29 -33 -31 -65 -7 -137 5 -16
18 -124 29 -240 10 -115 23 -235 29 -265 6 -30 8 -69 5 -87 -6 -36 21 -73 53
-73 54 2 292 30 322 39 19 6 46 13 60 16 55 11 115 61 143 117 27 53 28 59 18
128 -8 59 -16 79 -45 114 -19 24 -47 47 -61 50 -30 8 -32 25 -6 48 10 9 27 39
36 68 15 46 16 60 5 109 -10 45 -21 63 -58 97 -25 23 -62 47 -82 53 -39 12
-202 12 -334 1z m294 -126 c42 -28 50 -45 50 -105 0 -58 0 -58 -55 -84 -70
-35 -223 -46 -246 -19 -16 20 -25 162 -11 182 24 36 219 54 262 26z m-90 -288
c0 -22 3 -24 78 -24 74 -1 78 -2 105 -34 26 -30 28 -39 25 -96 -3 -46 -9 -67
-23 -81 -24 -22 -146 -49 -239 -53 -70 -3 -70 -3 -78 30 -5 18 -7 69 -6 114 3
89 4 90 76 108 38 10 42 14 42 41 0 18 4 28 10 24 6 -3 10 -17 10 -29z"/>
<path d="M10985 4041 c-49 -22 -67 -43 -89 -103 -16 -43 -16 -50 -1 -101 9
-31 22 -61 30 -67 30 -25 17 -56 -41 -104 -31 -25 -60 -46 -64 -46 -5 0 -18
-26 -30 -57 -38 -102 -12 -210 66 -270 62 -47 241 -49 306 -2 38 27 57 24 98
-15 47 -47 81 -54 109 -25 29 32 26 55 -12 103 -48 59 -49 69 -22 142 31 82
31 108 3 128 -34 24 -45 20 -73 -24 -14 -22 -32 -40 -39 -40 -19 0 -96 98 -96
121 0 10 10 24 23 30 67 36 127 116 127 170 0 41 -36 108 -79 146 -33 30 -42
32 -106 32 -47 0 -83 -5 -110 -18z m135 -101 c17 -9 40 -58 40 -86 0 -19 -89
-84 -105 -78 -8 3 -17 19 -20 35 -4 16 -11 31 -16 34 -18 12 -9 53 17 79 28
27 53 32 84 16z m-78 -337 c8 -10 33 -52 56 -95 40 -74 41 -77 24 -98 -24 -29
-87 -49 -129 -40 -47 11 -83 37 -83 61 0 11 -5 29 -11 40 -15 30 -2 75 36 114
37 40 82 47 107 18z"/>

</g>
</svg>
