<?xml version="1.0" standalone="no"?>
<!DOCTYPE svg PUBLIC "-//W3C//DTD SVG 20010904//EN"
 "http://www.w3.org/TR/2001/REC-SVG-20010904/DTD/svg10.dtd">
<svg version="1.0" xmlns="http://www.w3.org/2000/svg"
 width="581.000000pt" height="581.000000pt" viewBox="0 0 581.000000 581.000000"
 preserveAspectRatio="xMidYMid meet">
<metadata>
Created by potrace 1.16, written by Peter Selinger 2001-2019
</metadata>
<g transform="translate(0.000000,581.000000) scale(0.100000,-0.100000)"
fill="#FFFFFF" stroke="none">
<path d="M0 5674 c0 -87 4 -133 10 -129 6 3 10 10 10 15 0 6 8 20 18 32 119
149 195 186 397 193 215 8 5028 13 5110 5 89 -8 156 -34 223 -87 l42 -34 0 70
0 71 -2905 0 -2905 0 0 -136z"/>
<path d="M2797 5053 c-4 -3 -7 -105 -7 -225 l0 -219 28 3 c21 2 27 8 28 28 0
14 1 107 2 208 l2 182 80 0 c117 0 151 -22 152 -101 1 -75 -47 -109 -154 -109
-54 0 -64 -15 -18 -25 22 -5 47 -27 87 -78 71 -90 90 -107 120 -107 29 0 30
19 0 45 -34 29 -87 111 -79 120 4 5 2 5 -4 2 -7 -4 -17 0 -24 8 -10 13 -9 15
11 15 52 0 87 22 108 69 18 38 20 52 12 80 -27 92 -66 111 -224 111 -63 0
-117 -3 -120 -7z"/>
<path d="M2570 5028 c-19 -5 -71 -16 -115 -25 -44 -9 -85 -20 -91 -24 -11 -9
3 -106 27 -189 17 -61 40 -201 34 -211 -4 -5 -1 -9 5 -9 6 0 9 -4 5 -9 -9 -16
8 -20 55 -10 25 4 86 15 135 24 134 24 139 27 116 64 -8 12 -24 9 -98 -17 -48
-17 -103 -33 -122 -34 -33 -3 -35 -1 -47 45 -7 27 -15 70 -19 96 l-6 48 68 6
c37 4 87 7 110 7 36 0 42 3 40 20 -1 18 -15 25 -40 21 -5 -1 -25 -3 -45 -4
-20 -1 -41 -5 -47 -9 -15 -9 -83 -13 -91 -6 -10 11 -33 142 -26 150 10 10 190
31 218 25 17 -3 25 1 29 14 13 39 -20 48 -95 27z"/>
<path d="M3386 4997 c2 -7 -6 -29 -19 -48 -12 -19 -61 -96 -107 -171 -46 -76
-87 -138 -92 -138 -5 0 -6 -4 -3 -10 3 -5 0 -10 -7 -10 -13 -1 30 -29 44 -30
4 0 19 22 32 48 49 98 117 108 200 30 19 -17 27 -32 23 -43 -4 -9 -3 -14 3
-10 6 3 10 -4 10 -17 1 -33 22 -64 44 -63 15 0 19 8 20 37 1 20 -1 34 -4 31
-5 -5 -29 100 -60 264 -10 56 -24 111 -30 122 -12 23 -63 30 -54 8z m32 -147
c11 -47 24 -101 28 -120 l6 -35 -23 21 c-40 36 -81 53 -106 43 -30 -11 -29 -2
10 68 17 32 38 70 46 85 8 16 15 27 17 25 1 -1 11 -40 22 -87z"/>
<path d="M2188 4929 c-16 -9 -16 -13 2 -62 10 -28 25 -65 34 -82 l16 -30 -46
-8 c-53 -9 -110 -42 -146 -85 l-24 -29 -26 56 c-14 31 -31 73 -39 94 -13 37
-23 43 -46 29 -18 -12 -18 -35 0 -64 10 -14 19 -36 20 -47 1 -12 5 -21 9 -21
4 0 8 -4 8 -10 0 -5 13 -38 28 -72 16 -35 42 -93 58 -130 19 -46 34 -68 46
-68 29 0 30 18 4 84 -30 76 -31 87 -10 132 21 43 105 107 130 97 12 -4 15 -3
10 5 -4 7 -4 12 -1 12 13 0 45 -21 45 -30 0 -5 13 -39 30 -74 16 -36 32 -77
36 -91 7 -29 41 -35 51 -9 7 18 5 24 -50 149 -19 44 -45 105 -57 135 -54 132
-55 134 -82 119z"/>
<path d="M3713 4883 c-12 -27 -38 -86 -58 -133 -20 -47 -50 -113 -66 -147 -33
-71 -36 -88 -12 -97 22 -9 34 7 67 85 19 47 32 66 44 65 9 -1 52 -16 94 -34
42 -17 90 -32 106 -32 35 0 92 36 110 70 20 38 10 129 -16 150 -12 10 -18 21
-14 24 3 4 -1 4 -11 0 -10 -3 -17 -1 -17 5 0 6 -3 10 -7 9 -10 -2 -27 5 -122
48 -41 19 -74 34 -75 34 -1 0 -11 -21 -23 -47z m126 -28 c60 -22 121 -75 121
-105 0 -11 -8 -38 -17 -60 -30 -69 -92 -76 -201 -22 -44 21 -51 29 -46 46 13
42 76 167 83 164 3 -2 30 -12 60 -23z"/>
<path d="M1715 4693 c-22 -15 -46 -33 -54 -40 -7 -8 -20 -12 -28 -9 -8 3 -11
2 -8 -3 5 -10 -73 -70 -87 -67 -9 1 -37 -36 -38 -49 0 -5 5 -17 10 -25 7 -12
19 -4 62 42 l54 56 34 -54 c19 -30 50 -71 68 -92 19 -21 31 -44 29 -54 -3 -9
0 -15 7 -12 6 2 31 -26 55 -61 45 -65 58 -74 78 -54 9 9 5 22 -15 53 -26 39
-31 46 -60 81 -7 8 -9 15 -5 15 4 0 3 4 -2 8 -6 4 -22 23 -35 42 -13 19 -30
41 -37 48 -7 7 -13 17 -13 21 0 5 -13 24 -30 42 -35 40 -34 51 8 65 18 5 29
13 26 17 -4 4 4 7 17 7 34 0 51 14 43 33 -9 23 -32 20 -79 -10z"/>
<path d="M4147 4700 c-9 -11 -14 -20 -10 -20 4 0 0 -6 -9 -12 -9 -7 -25 -27
-35 -44 -27 -47 -126 -187 -143 -204 -12 -12 -30 -51 -30 -65 0 -8 19 -27 43
-41 23 -15 67 -46 97 -68 87 -65 100 -70 117 -53 17 17 10 37 -13 37 -9 0 -12
5 -8 12 4 7 3 8 -5 4 -6 -4 -18 -1 -26 8 -11 11 -12 15 -2 19 6 2 -2 4 -19 4
-34 0 -122 46 -131 69 -3 7 1 20 9 28 7 7 31 39 53 70 22 31 45 56 52 56 6 0
42 -29 80 -65 71 -68 87 -75 97 -49 8 20 -17 49 -58 70 -17 8 -48 29 -69 47
l-38 33 42 59 c22 33 45 64 49 69 9 9 18 2 132 -104 33 -30 64 -55 70 -55 6 0
16 8 22 19 9 14 8 20 -3 24 -8 3 -25 14 -37 26 -12 12 -28 22 -35 24 -8 2 -16
7 -19 10 -3 4 -23 20 -45 37 -22 16 -42 31 -45 34 -3 4 -19 14 -36 23 -29 16
-31 16 -47 -2z"/>
<path d="M4494 4418 c-135 -115 -218 -199 -233 -237 -17 -39 -8 -88 23 -134
14 -20 24 -37 23 -39 -1 -2 0 -2 2 -1 2 2 21 -13 42 -32 39 -35 103 -59 125
-47 6 4 73 65 147 135 88 83 134 133 130 143 -10 27 -39 14 -99 -43 -184 -176
-193 -183 -230 -183 -70 0 -138 77 -130 146 4 40 7 43 184 206 71 65 80 80 63
106 -6 10 -17 5 -47 -20z"/>
<path d="M1243 4293 c-12 -16 -52 -66 -90 -113 -37 -47 -72 -88 -77 -92 -7 -5
1 -19 21 -37 17 -16 29 -32 25 -35 -3 -4 0 -4 9 -1 8 3 24 -4 36 -17 23 -24
25 -26 88 -73 38 -28 51 -39 119 -99 33 -29 54 -33 62 -11 4 8 9 13 13 11 4
-3 12 7 19 22 7 15 30 47 52 72 22 24 40 48 40 53 0 4 5 5 12 1 7 -4 8 -3 4 5
-4 7 2 20 16 31 18 15 21 22 12 36 -20 33 -32 25 -70 -43 -21 -37 -43 -73 -49
-79 -5 -7 -19 -24 -29 -38 -10 -14 -23 -26 -28 -26 -8 0 -148 110 -148 117 0
11 64 72 71 67 5 -3 9 0 9 6 0 6 17 26 37 45 31 29 35 36 24 49 -24 28 -40 17
-100 -67 -19 -26 -38 -47 -43 -47 -4 0 -8 -7 -8 -15 0 -8 -6 -15 -12 -15 -19
1 -63 37 -63 52 -1 7 -7 12 -14 10 -16 -3 -51 26 -51 43 0 6 39 48 87 94 69
66 84 87 76 99 -15 25 -27 24 -50 -5z"/>
<path d="M2810 4273 c-14 -2 -59 -12 -100 -22 -41 -10 -103 -25 -137 -32 -35
-7 -63 -17 -63 -22 0 -5 -7 -7 -15 -3 -8 3 -15 1 -15 -4 0 -6 -9 -10 -21 -10
-37 0 -271 -124 -359 -190 -47 -35 -113 -92 -147 -125 -35 -34 -65 -60 -68
-58 -3 1 -3 0 -1 -3 3 -3 -18 -34 -45 -67 -52 -64 -119 -170 -119 -188 0 -6
-5 -7 -12 -3 -7 4 -8 3 -4 -4 4 -7 -6 -36 -22 -65 -44 -80 -89 -203 -107 -297
-10 -47 -21 -93 -26 -102 -21 -39 -11 -474 11 -518 5 -8 14 -42 20 -75 16 -80
33 -135 42 -135 5 0 8 -7 8 -16 0 -8 17 -50 37 -92 20 -42 37 -79 37 -82 0 -3
8 -14 18 -25 10 -11 21 -30 24 -42 4 -13 10 -23 14 -23 4 0 25 -26 46 -58 32
-47 274 -302 288 -302 11 0 105 -68 100 -72 -3 -3 7 -8 21 -12 14 -4 25 -11
25 -16 0 -6 9 -10 20 -10 11 0 23 -6 26 -13 3 -8 10 -14 17 -14 7 0 37 -12 67
-28 64 -32 228 -83 318 -99 35 -6 61 -13 58 -16 -2 -3 13 -4 34 -2 22 2 52 0
67 -5 31 -10 310 9 378 25 156 39 325 102 407 152 26 17 53 30 58 30 6 0 10 4
10 9 0 5 9 13 20 16 58 18 297 240 355 328 9 15 21 24 26 21 5 -3 8 -2 7 3 -3
11 20 53 43 78 48 53 131 246 161 375 48 208 51 233 51 405 0 195 -11 268 -60
415 -72 212 -188 402 -339 554 -27 27 -48 53 -46 58 1 5 -2 7 -8 3 -5 -3 -10
-2 -10 2 0 5 -12 16 -27 25 -28 16 -56 38 -103 82 -14 12 -44 31 -67 41 -24
10 -43 23 -43 29 0 5 -3 7 -6 4 -3 -4 -31 8 -62 26 -86 48 -156 80 -169 77 -7
-1 -13 4 -13 10 0 7 -3 9 -7 6 -3 -4 -11 -3 -17 2 -16 13 -152 57 -214 70 -50
10 -307 13 -362 4z m340 -54 c76 -11 213 -56 206 -68 -2 -3 9 -6 25 -7 31 -1
262 -112 296 -142 27 -24 55 -42 76 -49 10 -3 16 -12 13 -19 -3 -8 0 -11 8 -8
17 6 130 -95 232 -206 35 -38 148 -211 164 -250 8 -19 17 -37 20 -40 18 -16
83 -198 101 -284 31 -150 42 -403 20 -444 -5 -10 -13 -43 -16 -73 -12 -99 -35
-200 -60 -262 -14 -33 -25 -67 -25 -74 0 -8 -4 -11 -10 -8 -6 3 -7 -1 -4 -9 3
-9 1 -16 -5 -16 -6 0 -11 -4 -11 -10 0 -17 -34 -90 -42 -90 -5 0 -8 -5 -8 -10
0 -6 -19 -36 -42 -67 -24 -30 -48 -65 -55 -76 -6 -11 -23 -31 -37 -44 -14 -13
-26 -28 -26 -33 0 -5 -9 -12 -21 -15 -11 -4 -18 -9 -15 -13 8 -8 -24 -42 -40
-42 -7 0 -15 -8 -18 -18 -9 -26 -64 -65 -83 -58 -13 5 -13 4 -4 -8 9 -11 8
-15 -6 -20 -10 -4 -19 -6 -20 -4 -1 2 -10 -6 -20 -17 -109 -119 -494 -256
-748 -266 -84 -4 -90 -3 -92 16 0 11 -11 47 -22 79 -12 33 -21 60 -21 62 0 1
24 -7 53 -18 140 -54 160 -57 173 -24 6 17 -28 94 -63 142 -13 17 -23 35 -23
39 0 5 -15 23 -32 41 -75 74 -88 90 -81 99 4 4 2 5 -4 1 -8 -4 -28 7 -50 28
-26 27 -59 44 -124 64 l-89 29 37 34 c24 23 37 30 40 21 8 -21 84 -93 108
-101 20 -7 45 -28 39 -34 -3 -3 3 -3 15 0 12 3 21 1 21 -5 0 -6 10 -8 22 -4
11 3 19 1 16 -4 -3 -5 17 -10 46 -12 28 -1 72 -9 98 -18 60 -19 123 -21 218
-6 77 13 110 33 90 57 -8 9 0 14 30 18 52 7 68 21 62 52 -5 28 -67 94 -142
154 l-51 40 38 -5 c21 -2 52 -9 68 -14 17 -5 86 -11 155 -12 111 -3 125 -1
128 14 4 19 -27 67 -44 68 -6 0 -21 11 -34 25 -35 37 -259 144 -316 151 -100
11 -118 15 -104 24 8 5 19 5 25 0 6 -5 20 -9 30 -9 11 0 44 -1 73 -1 59 -1
148 27 232 74 56 31 80 49 80 61 0 4 6 12 13 19 37 38 124 141 134 160 33 57
7 76 -93 70 -90 -5 -123 -9 -144 -18 -36 -14 -133 -35 -141 -30 -5 3 -9 1 -9
-5 0 -6 -15 -18 -32 -27 -18 -9 -37 -22 -41 -28 -14 -18 2 146 19 204 32 110
-27 145 -113 67 l-22 -20 -10 26 c-9 24 -38 47 -59 47 -14 0 -132 -119 -132
-133 0 -8 -9 -22 -20 -32 -11 -10 -30 -52 -42 -93 l-22 -74 -13 54 c-7 29 -17
61 -23 70 -5 10 -10 26 -10 37 0 36 -30 91 -49 91 -28 0 -115 -100 -129 -149
-7 -22 -17 -41 -21 -41 -5 0 -14 -14 -20 -32 -9 -24 -14 -29 -23 -20 -30 30
-75 -2 -123 -87 -12 -20 -30 -50 -41 -68 l-20 -32 -50 65 c-43 56 -53 64 -79
61 -27 -2 -33 -9 -54 -62 -16 -42 -25 -87 -29 -160 -2 -55 -8 -102 -12 -105
-3 -3 -17 -25 -30 -50 -12 -25 -27 -54 -33 -64 -5 -11 -13 -45 -18 -75 -4 -31
-11 -71 -15 -89 -4 -19 -2 -38 6 -46 9 -11 9 -20 0 -37 -9 -15 -9 -28 -2 -43
11 -23 26 -84 19 -76 -3 3 -21 46 -42 95 -20 50 -50 117 -65 150 -52 110 -52
112 -21 124 42 18 183 158 179 178 -3 16 -15 18 -88 17 -86 -1 -165 -10 -185
-22 -14 -8 27 36 114 124 40 41 78 74 85 74 6 1 24 11 40 24 49 41 13 73 -94
83 -19 1 -61 6 -94 10 l-58 8 73 70 c80 76 119 121 119 139 0 6 -12 19 -27 27
l-26 17 24 12 c29 16 97 86 115 119 18 34 2 51 -50 51 l-41 0 30 19 c28 17 61
50 79 79 10 17 -15 46 -44 50 -23 3 -127 -9 -246 -28 -43 -7 -93 -26 -159 -58
-27 -14 8 12 43 31 22 12 52 33 68 47 31 27 92 140 100 187 3 15 9 32 15 37 5
6 9 26 9 45 0 20 12 59 25 86 14 28 25 59 25 71 0 23 -45 50 -55 33 -4 -5 -10
-7 -15 -4 -4 3 -10 -2 -14 -10 -3 -8 -13 -15 -22 -15 -9 0 18 34 68 84 45 46
84 82 86 81 2 -2 13 7 26 19 48 45 128 96 222 141 55 25 110 52 124 59 14 7
50 20 80 28 295 84 427 98 630 67z m-1250 -493 c0 -2 -8 -10 -17 -17 -16 -13
-17 -12 -4 4 13 16 21 21 21 13z m60 -37 c0 -4 -6 -12 -12 -16 -14 -8 -19 -29
-19 -76 0 -15 -9 -43 -20 -61 -11 -18 -17 -40 -14 -48 3 -8 -10 -37 -29 -65
-19 -28 -33 -53 -30 -56 10 -9 -117 -97 -141 -97 -5 0 15 40 25 50 3 3 6 11 8
19 3 13 21 45 65 115 69 111 79 136 57 136 -24 0 -77 -73 -146 -203 -14 -27
-28 -47 -31 -44 -3 3 9 32 26 63 17 32 31 62 31 68 0 20 54 87 86 107 19 11
34 26 34 33 0 7 18 25 40 42 22 16 40 32 40 35 0 9 30 7 30 -2z m156 -438
c-10 -11 -25 -17 -34 -14 -10 4 -13 2 -8 -5 4 -7 3 -12 -2 -12 -5 0 -29 -18
-53 -40 -24 -22 -48 -40 -52 -40 -4 0 -20 -9 -35 -19 -15 -11 -44 -22 -64 -25
-21 -4 -44 -14 -53 -22 -8 -9 -25 -14 -38 -13 -12 1 -29 -1 -37 -4 -24 -9 -90
-14 -90 -6 0 4 15 14 33 22 76 36 164 75 195 87 31 12 40 24 25 33 -11 7 -178
-48 -205 -67 -33 -23 -52 -20 -28 4 11 11 23 20 26 20 4 0 22 14 41 30 18 17
42 30 51 30 10 0 28 7 41 16 29 21 146 42 235 43 68 1 69 1 52 -18z m-406 -35
c0 -2 -16 -16 -36 -31 -35 -27 -36 -27 -24 -4 7 13 18 27 24 31 12 8 36 11 36
4z m356 -141 c-30 -30 -60 -55 -68 -55 -7 0 -27 -15 -44 -32 -40 -44 -85 -78
-101 -78 -8 0 -31 -12 -53 -26 -30 -20 -57 -28 -108 -31 l-67 -5 25 20 c14 10
75 45 135 77 131 69 139 75 126 88 -7 7 -18 7 -33 -1 -83 -40 -163 -75 -166
-71 -1 2 -6 -1 -10 -6 -4 -6 -24 -21 -45 -33 l-38 -22 25 33 c47 60 73 78 128
87 63 11 132 36 213 78 35 18 76 31 98 32 l38 0 -55 -55z m-439 -73 c8 -5 4
-16 -13 -37 l-24 -30 0 31 c0 41 11 52 37 36z m1497 -8 c11 -30 5 -49 -30 -89
-19 -22 -32 -32 -29 -23 4 9 2 19 -4 23 -24 14 -50 -113 -77 -375 l-6 -55 -24
65 c-52 143 -17 288 104 428 39 45 56 52 66 26z m145 -11 c0 -10 -8 -56 -18
-103 -10 -46 -17 -90 -14 -97 9 -22 -58 -192 -81 -208 -11 -8 -17 -15 -13 -15
4 0 -3 -11 -15 -25 -12 -14 -23 -23 -26 -21 -5 6 19 120 27 126 3 3 12 28 20
55 7 28 16 58 19 69 10 34 -22 12 -47 -34 -21 -37 -60 -167 -63 -207 -1 -7 -5
-10 -9 -8 -26 17 -10 236 20 269 10 12 28 40 39 62 20 38 135 154 154 154 4 0
8 -8 7 -17z m-1275 -85 c-16 -18 -38 -39 -48 -47 -11 -8 -28 -23 -37 -32 -43
-43 -204 -164 -219 -164 -4 0 -12 -3 -16 -7 -4 -5 -17 -8 -28 -8 -19 1 -18 2
7 18 15 9 27 20 27 25 0 4 5 5 10 2 6 -3 10 1 10 9 0 9 4 16 10 16 5 0 18 7
27 14 10 8 29 24 43 35 23 18 24 20 6 27 -10 4 -21 3 -25 -2 -3 -5 -26 -20
-51 -33 -25 -13 -56 -34 -71 -47 -34 -32 -43 -30 -24 6 10 19 20 28 28 24 7
-4 9 -4 5 1 -10 11 10 45 27 45 8 0 15 5 15 10 0 6 10 10 23 10 19 0 81 26
178 76 14 7 29 10 33 7 4 -4 4 0 1 9 -7 17 30 36 74 37 l25 1 -30 -32z m821
-81 c9 -14 15 -31 14 -39 -1 -7 1 -21 6 -31 4 -10 5 -82 2 -160 -5 -142 -26
-239 -62 -290 -13 -18 -14 -17 -20 17 -4 20 -4 94 0 164 4 70 8 145 10 167 1
22 5 47 8 55 9 21 -9 48 -23 34 -16 -16 -32 -172 -33 -326 -1 -76 -4 -138 -7
-138 -7 0 -50 95 -50 109 0 4 -8 23 -17 42 -14 27 -17 55 -15 136 2 95 8 125
31 163 5 8 20 41 32 73 13 32 39 77 59 100 l35 41 6 -46 c4 -25 14 -57 24 -71z
m890 -17 c6 -9 -84 -116 -114 -135 -9 -5 -17 -17 -19 -25 -5 -20 -32 -44 -73
-65 -19 -10 -41 -23 -49 -30 -24 -19 -172 -47 -199 -37 -23 8 -22 10 23 36 25
15 52 24 59 20 6 -4 9 -3 4 1 -10 12 81 68 95 59 6 -4 8 -3 4 4 -3 6 7 18 24
28 35 21 47 44 22 44 -20 0 -144 -63 -218 -110 -26 -16 -49 -28 -51 -26 -3 2
5 22 16 44 26 51 125 130 171 138 19 3 47 12 62 20 15 8 67 21 115 28 111 18
121 18 128 6z m-2095 -7 c0 -5 -4 -14 -9 -21 -7 -11 -9 -11 -14 1 -3 8 -3 18
0 21 9 8 23 7 23 -1z m976 -214 c0 -63 5 -154 11 -204 11 -101 2 -240 -18
-276 l-13 -24 -8 35 c-5 19 -11 104 -15 188 -4 114 -9 152 -19 152 -8 0 -16
-19 -20 -46 -10 -68 0 -295 15 -322 22 -42 4 -35 -26 10 -38 57 -51 103 -59
219 -7 102 11 208 44 259 9 14 25 41 35 60 55 102 72 91 73 -51z m-606 97 c36
-3 79 -5 95 -6 l30 -1 -40 -24 c-22 -14 -45 -32 -52 -40 -6 -9 -22 -17 -35
-19 -12 -1 -33 -8 -45 -14 -12 -7 -31 -12 -43 -12 -11 0 -34 -7 -51 -16 -32
-16 -166 -18 -204 -3 -11 4 -15 8 -10 9 6 1 17 3 25 6 44 12 171 36 213 41 33
3 47 9 47 20 0 13 -14 14 -85 10 -47 -3 -85 -4 -85 -2 0 2 15 13 33 24 35 21
101 39 127 35 8 -2 44 -5 80 -8z m930 -146 c6 -25 25 -64 40 -87 l28 -41 -31
-24 c-17 -13 -48 -38 -70 -55 -21 -18 -44 -33 -50 -32 -8 0 -8 2 1 6 6 2 12
11 12 19 0 9 5 12 12 8 6 -4 8 -3 5 2 -3 6 1 52 9 104 7 52 15 133 15 180 l2
85 7 -60 c4 -33 13 -80 20 -105z m-584 63 c15 -21 31 -40 34 -43 4 -3 14 -20
23 -38 12 -24 13 -40 6 -65 -5 -17 -9 -48 -10 -67 0 -34 -1 -34 -11 -10 -22
49 -37 86 -49 123 -7 20 -19 37 -26 37 -7 0 -13 -3 -13 -7 0 -19 51 -185 78
-258 17 -44 43 -116 58 -160 15 -44 31 -88 36 -98 16 -32 3 -29 -43 12 -25 21
-50 55 -58 77 -8 22 -24 55 -37 75 -13 20 -21 39 -18 42 3 3 -4 25 -16 49 -31
63 -42 185 -24 276 21 108 26 113 70 55z m-426 -102 c-6 -12 -22 -28 -35 -37
-14 -9 -25 -22 -25 -28 0 -7 -9 -22 -20 -34 -11 -12 -20 -25 -20 -30 0 -5 -9
-17 -20 -27 -12 -11 -20 -13 -20 -6 0 9 -4 8 -14 -1 -8 -7 -11 -17 -8 -22 3
-5 -2 -7 -11 -3 -10 3 -17 2 -17 -3 0 -6 -4 -10 -10 -10 -19 0 -10 36 14 57
13 12 27 19 30 17 3 -2 4 -1 1 2 -9 13 17 45 32 40 11 -5 13 -2 9 10 -5 12 -1
14 17 9 22 -7 22 -7 2 9 -31 24 -44 20 -90 -28 -23 -25 -45 -42 -49 -39 -15
16 -3 45 35 83 34 34 47 40 82 40 23 0 60 7 82 14 47 17 51 15 35 -13z m-242
-20 c-7 -11 -16 -17 -20 -15 -5 3 -6 9 -3 14 3 4 -1 11 -7 13 -7 3 -1 6 15 6
24 1 26 -1 15 -18z m1647 -83 c40 -10 88 -41 79 -51 -3 -3 1 -5 8 -4 32 1 49
-4 43 -12 -3 -5 0 -13 6 -17 8 -4 9 -3 5 4 -4 7 -5 12 -2 12 13 0 76 -35 76
-42 0 -4 7 -8 16 -8 8 0 12 -4 9 -10 -3 -5 1 -10 10 -10 9 0 24 -7 32 -16 15
-14 9 -15 -63 -9 -76 6 -198 29 -239 46 -11 4 -38 13 -60 21 -22 7 -49 19 -60
26 l-20 14 20 -7 c11 -4 45 -12 75 -17 30 -5 63 -13 72 -18 20 -11 71 -13 81
-3 10 9 -23 30 -63 37 -48 10 -129 35 -167 52 -17 8 -36 14 -42 14 -6 0 -11 4
-11 9 0 12 139 4 195 -11z m-1231 -21 c-27 -35 -100 -90 -136 -103 -18 -6 -49
-22 -70 -36 -59 -40 -95 -53 -113 -38 -18 15 -10 30 16 30 12 0 17 4 13 11 -4
8 1 9 16 4 17 -5 21 -4 15 6 -6 9 -3 11 8 6 10 -3 17 -3 17 1 0 4 28 21 63 37
58 28 86 50 87 68 0 4 -5 7 -11 7 -11 0 -105 -41 -152 -67 -16 -8 -31 -12 -35
-8 -4 3 1 11 11 16 9 6 25 18 35 28 36 38 102 58 200 60 l53 1 -17 -23z m972
-28 c19 -11 34 -22 34 -23 0 -2 -92 1 -115 3 -10 2 32 41 42 41 3 0 21 -9 39
-21z m-810 -76 c14 -33 14 -50 3 -141 -12 -100 -7 -315 8 -372 6 -24 6 -25
-14 -7 -27 23 -68 110 -81 172 -6 28 -9 97 -7 155 3 93 7 112 34 168 18 34 34
62 36 62 3 0 12 -17 21 -37z m447 -23 c6 -9 17 -22 24 -31 10 -12 4 -23 -34
-60 -41 -39 -45 -41 -40 -19 3 14 7 56 8 94 2 61 4 67 16 50 7 -11 19 -26 26
-34z m483 -21 c77 -37 120 -66 175 -118 41 -38 70 -73 66 -77 -4 -4 -40 -2
-80 4 -111 19 -299 97 -280 116 4 4 0 4 -8 1 -10 -4 -32 9 -59 34 l-44 40 56
-17 c30 -10 62 -23 71 -30 18 -15 190 -72 216 -72 11 0 22 7 25 16 3 9 2 12
-5 9 -5 -4 -20 0 -32 8 -12 8 -40 20 -62 27 -22 7 -60 23 -85 35 -25 12 -75
35 -112 50 -38 16 -68 29 -68 30 0 1 28 0 63 -3 49 -3 83 -13 163 -53z m-311
21 c-3 -5 1 -10 9 -10 9 0 16 -4 16 -9 0 -5 7 -17 16 -25 14 -15 10 -16 -47
-16 l-63 0 34 35 c34 35 47 44 35 25z m-905 -98 c0 -4 13 -34 29 -67 16 -33
39 -85 51 -115 12 -30 32 -76 45 -101 14 -25 22 -49 18 -53 -3 -3 -1 -6 5 -6
7 0 12 -9 12 -20 0 -35 -77 47 -95 100 -9 26 -24 64 -35 86 -11 21 -20 44 -20
50 0 7 -7 15 -16 18 -13 5 -15 -1 -10 -45 3 -28 11 -59 18 -68 7 -9 0 -5 -15
8 -45 41 -59 126 -36 231 l11 52 19 -31 c10 -17 19 -35 19 -39z m-98 -38 c-4
-53 -5 -55 -21 -37 -10 10 -26 31 -35 46 -15 21 -15 28 -5 31 8 2 21 7 29 9
32 11 35 6 32 -49z m1091 30 c16 -3 24 -10 21 -16 -4 -7 -2 -8 5 -4 6 4 19 2
27 -5 14 -11 119 -63 119 -58 0 1 23 -9 50 -23 28 -14 65 -29 84 -33 29 -6 71
-36 71 -50 0 -3 -20 -5 -44 -5 -25 0 -57 -5 -72 -11 -30 -11 -111 3 -149 26
-11 7 -51 16 -90 19 -59 6 -81 14 -142 52 -40 25 -73 49 -73 54 0 10 74 -6
109 -24 35 -18 97 -30 111 -21 14 9 -6 19 -120 64 -47 18 -86 34 -87 35 -6 5
155 5 180 0z m-612 -123 c5 -84 -24 -261 -42 -261 -16 0 -23 291 -9 380 3 14
50 -97 51 -119z m118 -70 c11 -7 7 -18 -20 -53 -19 -25 -40 -43 -47 -40 -13 4
-16 50 -6 100 6 30 7 31 33 17 14 -8 32 -18 40 -24z m293 -3 c32 -15 61 -35
64 -43 4 -8 22 -22 41 -31 18 -9 41 -31 50 -48 9 -17 24 -37 35 -44 10 -7 29
-35 42 -61 14 -26 32 -53 40 -60 14 -12 23 -41 13 -41 -24 0 -223 96 -233 112
-3 5 -20 18 -36 28 -48 29 -111 93 -137 140 l-23 42 41 -27 c22 -15 38 -32 34
-38 -3 -6 -1 -7 5 -3 7 4 17 2 24 -3 7 -6 45 -34 83 -63 82 -61 96 -74 89 -81
-3 -3 3 -3 15 0 12 3 21 8 21 12 0 4 -20 27 -45 51 -24 24 -42 47 -39 52 3 5
0 7 -8 6 -7 -2 -12 3 -10 10 1 8 -2 11 -9 6 -6 -3 -14 -2 -18 3 -3 5 -37 31
-76 58 -38 27 -74 52 -80 57 -19 17 59 -6 117 -34z m-184 -33 c16 -35 16 -35
-18 -24 -33 12 -36 19 -18 37 17 17 23 15 36 -13z m72 -115 c25 -19 51 -40 57
-46 7 -7 28 -21 46 -33 46 -28 85 -90 108 -170 11 -36 19 -67 19 -68 0 -12
-72 1 -91 16 -13 10 -38 26 -56 35 -30 15 -50 33 -99 88 -36 41 -64 85 -57 92
3 3 2 6 -4 6 -6 0 -13 6 -16 13 -3 6 -13 30 -22 51 l-17 40 81 -73 c45 -40 81
-77 81 -81 0 -11 30 -21 41 -14 5 3 4 11 -3 19 -7 8 -19 22 -27 32 -8 10 -39
43 -68 74 -63 65 -46 77 27 19z m-161 -30 c30 -57 30 -60 11 -60 -11 0 -20 5
-20 11 0 6 -6 9 -13 6 -8 -3 -26 5 -41 16 l-26 22 26 33 c14 17 27 32 29 32 2
0 17 -27 34 -60z m-266 -42 c21 -22 5 -23 -28 -2 -17 11 -25 25 -24 43 l0 26
17 -25 c9 -13 25 -33 35 -42z m132 -79 l16 -30 -23 12 c-31 16 -29 14 -22 33
8 22 11 21 29 -15z m166 3 c24 -16 70 -54 102 -86 53 -51 56 -56 30 -50 -60
14 -178 57 -185 68 -4 6 -11 9 -15 6 -4 -3 -16 10 -27 29 -21 36 -17 36 36 -2
15 -11 25 -23 23 -27 -5 -8 24 -10 45 -4 11 4 0 18 -35 49 -57 50 -42 60 26
17z"/>
<path d="M2978 4119 c-43 -24 -6 -77 39 -56 29 13 29 18 1 45 -17 15 -27 18
-40 11z"/>
<path d="M3227 4076 c-3 -8 0 -17 8 -20 15 -5 39 17 28 27 -11 12 -31 8 -36
-7z"/>
<path d="M3142 4041 c-18 -11 -12 -51 9 -64 11 -7 21 -5 37 9 27 23 28 40 3
54 -24 12 -32 12 -49 1z"/>
<path d="M3385 4020 c-14 -43 44 -67 68 -28 8 12 7 21 -2 32 -19 23 -58 20
-66 -4z"/>
<path d="M2964 3959 c-10 -17 13 -36 27 -22 12 12 4 33 -11 33 -5 0 -12 -5
-16 -11z"/>
<path d="M3472 3947 c-14 -17 2 -42 22 -34 20 8 20 21 2 36 -10 8 -16 8 -24
-2z"/>
<path d="M3256 3935 c-3 -9 -6 -28 -6 -41 0 -49 -50 -114 -97 -129 -39 -11
-29 -43 21 -65 36 -15 47 -26 61 -63 9 -25 15 -51 13 -59 -6 -18 19 -41 37
-34 8 3 15 17 15 31 0 44 37 103 80 127 47 27 51 52 11 66 -31 11 -72 70 -75
106 0 13 -4 22 -8 20 -4 -2 -8 8 -10 23 -3 31 -32 43 -42 18z"/>
<path d="M3075 3923 c-12 -2 -26 -13 -34 -24 -10 -18 -10 -24 5 -40 9 -10 25
-19 35 -19 22 0 35 36 19 55 -6 8 -9 19 -5 25 3 5 5 9 3 9 -2 -1 -12 -4 -23
-6z"/>
<path d="M2960 3884 c0 -17 22 -14 28 4 2 7 -3 12 -12 12 -9 0 -16 -7 -16 -16z"/>
<path d="M3164 3889 c-10 -17 13 -36 27 -22 12 12 4 33 -11 33 -5 0 -12 -5
-16 -11z"/>
<path d="M3481 3868 c-12 -32 14 -62 41 -47 26 14 33 36 18 54 -18 22 -49 18
-59 -7z"/>
<path d="M2620 3871 c0 -13 26 -32 33 -24 14 13 6 33 -13 33 -11 0 -20 -4 -20
-9z"/>
<path d="M2947 3822 c-22 -24 -21 -35 4 -58 15 -14 24 -16 37 -7 23 14 21 53
-4 69 -18 13 -23 12 -37 -4z"/>
<path d="M2970 3685 c0 -8 9 -15 20 -15 13 0 18 5 14 15 -4 8 -12 15 -20 15
-8 0 -14 -7 -14 -15z"/>
<path d="M2890 3665 c0 -8 7 -15 15 -15 8 0 15 7 15 15 0 8 -7 15 -15 15 -8 0
-15 -7 -15 -15z"/>
<path d="M2383 3663 c-18 -7 -16 -33 2 -33 8 0 15 9 15 20 0 11 -1 20 -2 19
-2 0 -9 -3 -15 -6z"/>
<path d="M2516 3654 c-7 -17 0 -34 14 -34 14 0 18 25 5 37 -10 10 -14 9 -19
-3z"/>
<path d="M3951 3627 c-6 -6 -11 -17 -11 -25 0 -19 44 -11 48 9 4 20 -22 31
-37 16z"/>
<path d="M2961 3601 c-24 -43 47 -71 73 -28 9 15 7 21 -8 33 -27 19 -53 18
-65 -5z"/>
<path d="M2354 3599 c-10 -17 13 -36 27 -22 12 12 4 33 -11 33 -5 0 -12 -5
-16 -11z"/>
<path d="M3130 3565 c0 -8 7 -15 15 -15 8 0 15 7 15 15 0 8 -7 15 -15 15 -8 0
-15 -7 -15 -15z"/>
<path d="M4012 3543 c2 -10 10 -18 18 -18 8 0 16 8 18 18 2 12 -3 17 -18 17
-15 0 -20 -5 -18 -17z"/>
<path d="M3167 3497 c-2 -6 1 -18 8 -24 10 -10 14 -9 19 3 7 17 0 34 -14 34
-4 0 -10 -6 -13 -13z"/>
<path d="M2588 3474 c-11 -23 -10 -29 11 -45 28 -22 51 -11 51 25 0 47 -44 61
-62 20z"/>
<path d="M2834 3475 c-3 -14 -17 -34 -30 -44 -30 -24 -30 -43 0 -76 14 -15 26
-36 28 -48 4 -32 42 -29 47 3 1 14 16 36 32 49 16 13 29 27 29 31 0 5 -14 22
-30 40 -17 18 -28 35 -25 38 8 8 -16 32 -31 32 -8 0 -16 -11 -20 -25z"/>
<path d="M2467 3444 c-8 -8 1 -24 14 -24 5 0 9 7 9 15 0 15 -12 20 -23 9z"/>
<path d="M2584 3379 c-10 -17 13 -36 27 -22 12 12 4 33 -11 33 -5 0 -12 -5
-16 -11z"/>
<path d="M2660 3366 c0 -9 7 -16 16 -16 9 0 14 5 12 12 -6 18 -28 21 -28 4z"/>
<path d="M4005 3370 c-4 -7 -3 -16 3 -22 14 -14 45 -2 40 15 -6 16 -34 21 -43
7z"/>
<path d="M4087 3363 c-4 -3 -7 -12 -7 -20 0 -15 26 -18 34 -4 7 11 -18 33 -27
24z"/>
<path d="M3920 3339 c0 -11 -13 -33 -30 -47 -37 -32 -38 -48 -5 -56 15 -4 27
-16 31 -31 8 -33 40 -33 48 0 4 14 18 31 31 37 33 15 31 34 -5 53 -16 8 -33
27 -36 40 -7 30 -34 33 -34 4z"/>
<path d="M2510 3315 c-17 -21 -4 -65 19 -65 30 0 46 26 33 55 -13 28 -34 32
-52 10z"/>
<path d="M2620 3316 c0 -17 27 -29 35 -16 4 6 3 15 0 20 -9 15 -35 12 -35 -4z"/>
<path d="M2689 3244 c-12 -24 -12 -28 10 -45 30 -25 35 -24 51 6 12 22 11 27
-5 45 -24 27 -39 25 -56 -6z"/>
<path d="M4064 3185 c-8 -19 3 -35 25 -35 23 0 34 37 14 44 -23 9 -33 7 -39
-9z"/>
<path d="M4170 3186 c0 -8 4 -17 9 -20 11 -7 33 18 24 27 -12 12 -33 7 -33 -7z"/>
<path d="M3797 3150 c-4 -15 0 -20 14 -20 12 0 19 7 19 20 0 11 -6 20 -14 20
-7 0 -16 -9 -19 -20z"/>
<path d="M3817 3093 c-12 -11 -8 -21 13 -26 24 -6 38 12 19 24 -17 11 -24 11
-32 2z"/>
<path d="M4230 3016 c0 -14 24 -29 33 -19 3 3 3 11 0 19 -7 18 -33 18 -33 0z"/>
<path d="M4100 2990 c0 -13 5 -20 13 -17 6 2 12 10 12 17 0 7 -6 15 -12 18 -8
2 -13 -5 -13 -18z"/>
<path d="M4000 2993 c0 -17 19 -35 29 -29 18 12 12 36 -9 36 -11 0 -20 -3 -20
-7z"/>
<path d="M4170 2905 c0 -8 7 -15 15 -15 8 0 15 7 15 15 0 8 -7 15 -15 15 -8 0
-15 -7 -15 -15z"/>
<path d="M4066 2835 c-9 -9 -16 -25 -16 -35 0 -10 -12 -28 -26 -39 l-25 -20
30 -27 c17 -15 31 -35 31 -45 0 -10 5 -21 10 -24 15 -9 40 14 40 36 0 19 38
51 52 43 4 -3 8 3 8 13 0 10 -14 26 -30 35 -17 10 -30 25 -30 36 0 31 -25 46
-44 27z"/>
<path d="M3803 2663 c-16 -6 -5 -33 13 -33 8 0 14 6 14 14 0 18 -11 25 -27 19z"/>
<path d="M3907 2616 c-7 -16 1 -26 20 -26 7 0 13 9 13 20 0 23 -25 27 -33 6z"/>
<path d="M4157 2544 c-14 -14 -7 -35 11 -32 9 2 17 10 17 17 0 16 -18 25 -28
15z"/>
<path d="M4217 2503 c-11 -10 -8 -20 8 -27 10 -4 15 1 15 14 0 20 -11 26 -23
13z"/>
<path d="M4136 2482 c-8 -13 11 -35 23 -28 16 10 14 36 -3 36 -8 0 -17 -4 -20
-8z"/>
<path d="M3914 2436 c-7 -19 3 -36 22 -36 10 0 14 8 12 22 -4 26 -26 36 -34
14z"/>
<path d="M4055 2421 c-3 -15 -17 -38 -30 -50 -32 -27 -31 -33 5 -59 19 -15 30
-31 30 -47 0 -40 30 -30 48 16 12 31 20 39 34 36 11 -3 15 -1 12 5 -4 6 0 14
7 19 11 7 7 15 -17 37 -18 15 -37 37 -43 50 -16 31 -38 28 -46 -7z"/>
<path d="M3893 2363 c-20 -7 -15 -33 6 -33 11 0 22 4 25 9 8 12 -16 29 -31 24z"/>
<path d="M3924 2264 c3 -9 6 -18 6 -21 0 -3 7 0 15 7 21 18 19 30 -6 30 -15 0
-19 -4 -15 -16z"/>
<path d="M3773 2173 c-16 -6 -5 -33 13 -33 8 0 14 6 14 14 0 18 -11 25 -27 19z"/>
<path d="M3772 2108 c7 -19 38 -22 38 -4 0 10 -9 16 -21 16 -12 0 -19 -5 -17
-12z"/>
<path d="M3656 1953 c-13 -14 -5 -33 14 -33 11 0 20 6 20 14 0 15 -24 28 -34
19z"/>
<path d="M3554 1912 c-13 -39 -28 -62 -46 -68 -26 -8 -22 -31 8 -51 14 -9 30
-27 35 -40 12 -32 32 -29 46 8 7 17 21 33 32 36 10 3 21 14 24 25 4 15 -1 22
-24 30 -21 7 -32 19 -36 39 -6 33 -31 46 -39 21z"/>
<path d="M3740 1894 c0 -8 5 -12 10 -9 6 3 10 10 10 16 0 5 -4 9 -10 9 -5 0
-10 -7 -10 -16z"/>
<path d="M3705 1810 c-7 -12 12 -40 27 -40 16 0 21 32 7 41 -18 12 -26 11 -34
-1z"/>
<path d="M3412 1768 c-7 -7 -12 -20 -12 -30 0 -15 3 -16 25 -6 28 13 31 21 12
37 -10 8 -17 7 -25 -1z"/>
<path d="M3457 1727 c-3 -8 -1 -20 3 -27 11 -18 41 5 33 26 -7 18 -29 18 -36
1z"/>
<path d="M3255 1690 c3 -5 13 -10 21 -10 8 0 14 5 14 10 0 6 -9 10 -21 10 -11
0 -17 -4 -14 -10z"/>
<path d="M3357 1650 c-4 -15 0 -20 14 -20 12 0 19 7 19 20 0 11 -6 20 -14 20
-7 0 -16 -9 -19 -20z"/>
<path d="M3270 1600 c0 -13 5 -20 13 -17 6 2 12 10 12 17 0 7 -6 15 -12 18 -8
2 -13 -5 -13 -18z"/>
<path d="M4820 4065 c-13 -15 -1 -34 55 -90 14 -14 19 -49 6 -40 -6 3 -11 2
-11 -4 0 -16 -98 -71 -117 -65 -13 4 -14 3 -5 -3 12 -9 0 -17 -89 -66 -22 -12
-110 -66 -118 -73 -1 -1 3 -12 11 -23 14 -19 16 -18 106 35 51 30 95 54 98 54
3 0 25 14 49 30 24 17 48 30 54 30 6 0 11 3 11 8 0 7 47 32 60 32 8 0 34 -81
32 -96 -3 -17 23 -35 42 -28 9 3 16 10 16 15 0 9 -145 265 -162 287 -14 16
-23 15 -38 -3z"/>
<path d="M990 3912 c0 -5 -10 -14 -23 -21 -13 -7 -38 -41 -56 -76 -27 -54 -32
-74 -30 -125 2 -43 8 -69 21 -86 11 -13 17 -24 14 -24 -14 0 33 -44 69 -65 71
-41 178 -49 238 -19 40 20 97 79 97 100 0 9 5 12 12 8 8 -5 9 -2 5 11 -4 9 -3
23 1 29 15 19 21 85 11 114 -8 21 -29 36 -95 66 -77 36 -86 38 -100 24 -14
-14 -14 -18 7 -37 13 -11 29 -21 36 -21 8 0 11 -4 8 -10 -3 -5 0 -7 8 -5 7 3
23 -2 34 -12 12 -10 30 -23 40 -29 28 -17 25 -101 -7 -147 -13 -20 -26 -34
-29 -32 -2 3 -9 -3 -16 -11 -7 -10 -32 -19 -61 -21 -175 -17 -310 139 -240
275 20 39 70 72 109 72 31 0 48 27 26 41 -18 11 -79 12 -79 1z"/>
<path d="M5018 3658 c-21 -11 -43 -21 -50 -23 -29 -6 -78 -30 -78 -37 0 -4 -7
-8 -16 -8 -9 0 -30 -6 -47 -14 -18 -8 -54 -24 -82 -36 -71 -29 -80 -35 -83
-53 -4 -19 31 -31 55 -18 18 10 30 15 153 66 36 15 88 37 115 50 28 12 60 26
73 30 18 5 22 13 20 33 -4 33 -15 35 -60 10z"/>
<path d="M4930 3471 c-46 -9 -100 -34 -100 -45 0 -4 -7 -5 -16 -2 -8 3 -13 2
-9 -3 3 -5 -1 -15 -8 -23 -36 -36 -47 -71 -47 -148 0 -76 4 -92 41 -149 34
-51 54 -63 89 -54 21 6 28 33 9 33 -6 0 -28 13 -49 30 -42 33 -71 98 -66 145
2 17 4 35 5 42 2 25 68 87 116 109 30 15 69 24 98 24 51 0 117 -22 117 -39 0
-6 7 -11 15 -11 19 0 55 -75 55 -114 0 -35 -24 -87 -46 -99 -32 -18 -8 -47 31
-37 6 1 15 3 20 3 25 1 26 177 2 224 -21 40 -59 78 -96 97 -35 19 -115 27
-161 17z"/>
<path d="M1060 3374 c-36 -8 -117 -23 -180 -33 -142 -22 -143 -23 -152 -41
-12 -26 -9 -40 10 -40 9 0 79 -43 155 -95 75 -52 142 -95 147 -95 5 0 13 -6
17 -14 4 -7 19 -19 32 -26 19 -10 25 -10 32 1 16 26 9 39 -45 73 -60 38 -77
76 -57 128 16 43 63 90 83 85 10 -3 16 -2 13 3 -3 4 15 11 40 14 39 6 45 10
45 32 0 21 -4 24 -37 23 -21 0 -67 -7 -103 -15z m-41 -81 c-13 -16 -25 -30
-27 -33 -2 -2 -7 1 -11 9 -6 10 -10 9 -14 -4 -4 -9 -3 -13 3 -10 11 7 13 -18
4 -64 -4 -17 -10 -28 -15 -25 -5 3 -6 10 -3 16 4 7 2 8 -5 4 -6 -4 -23 1 -39
12 -15 11 -49 30 -77 43 l-50 23 30 7 c62 15 171 39 195 42 14 3 27 5 29 6 3
0 -6 -11 -20 -26z"/>
<path d="M948 3003 c-42 -7 -73 -46 -87 -110 -7 -32 -17 -66 -22 -75 -5 -10
-9 -27 -9 -38 0 -11 -5 -20 -11 -20 -5 0 -8 -4 -5 -9 3 -4 -3 -19 -14 -31 -14
-17 -26 -21 -44 -16 -30 7 -66 43 -66 66 0 9 -5 21 -11 27 -7 7 -6 27 6 67 13
43 26 64 55 88 43 34 43 48 1 48 -52 0 -91 -75 -91 -174 0 -37 4 -66 10 -66 6
0 10 -9 10 -21 0 -11 13 -34 29 -50 24 -23 38 -29 73 -29 78 1 113 55 132 205
3 22 34 75 51 87 5 4 25 8 43 8 25 0 42 -8 63 -31 25 -27 29 -39 29 -87 0 -89
-63 -176 -104 -143 -15 13 -26 4 -26 -21 0 -10 11 -24 25 -30 35 -16 68 1 102
54 25 38 28 52 28 123 0 135 -57 195 -167 178z"/>
<path d="M5085 3001 c3 -2 -4 -10 -14 -17 -22 -16 -51 -94 -51 -139 0 -52 -29
-134 -52 -146 -44 -24 -117 7 -121 51 -1 11 -5 20 -9 20 -16 0 -8 87 12 127
23 49 35 58 72 55 22 -2 28 2 28 17 0 21 -18 31 -56 31 -53 0 -89 -69 -87
-169 3 -123 40 -179 124 -188 88 -8 124 38 145 185 16 104 32 132 80 132 27 0
75 -47 67 -66 -3 -8 0 -14 7 -14 10 0 11 -15 7 -60 -7 -62 -29 -110 -52 -110
-7 0 -18 -7 -26 -16 -10 -13 -10 -17 2 -25 8 -5 23 -9 34 -9 70 0 95 184 40
301 -8 19 -13 25 -10 14 5 -20 5 -20 -10 0 -11 14 -32 21 -75 25 -32 3 -57 4
-55 1z"/>
<path d="M5263 2941 c0 -11 5 -18 9 -15 4 3 5 11 1 19 -7 21 -12 19 -10 -4z"/>
<path d="M4585 2017 c-4 -12 -1 -35 4 -51 6 -15 11 -36 11 -47 0 -18 -2 -18
-27 -6 -54 27 -73 -4 -24 -38 16 -10 28 -22 26 -25 -2 -3 7 -6 20 -6 13 -1 39
-14 58 -28 40 -30 52 -32 61 -9 6 16 -26 52 -46 53 -5 0 -8 9 -8 20 0 17 7 20
44 20 55 0 76 8 76 28 0 12 -11 14 -68 9 l-69 -6 -17 55 c-18 58 -32 68 -41
31z"/>
<path d="M1240 2006 c-25 -11 -51 -27 -58 -34 -8 -7 -27 -19 -43 -27 -30 -16
-38 -40 -16 -48 6 -2 32 7 57 21 l45 26 -37 -42 c-55 -61 -48 -89 17 -70 16 4
41 8 55 8 20 0 22 -2 10 -10 -8 -5 -23 -7 -34 -4 -12 4 -16 2 -12 -4 4 -6 -3
-16 -14 -22 -11 -6 -20 -17 -20 -24 0 -17 24 -28 36 -16 9 8 68 42 115 67 45
22 52 37 29 58 -18 16 -26 17 -53 7 -18 -6 -50 -14 -72 -18 l-40 -7 28 26 c15
14 27 29 27 33 0 4 11 17 25 30 52 48 22 82 -45 50z"/>
<path d="M4425 1764 c-19 -26 -35 -54 -34 -63 0 -16 138 -121 158 -121 21 0
11 39 -16 59 -26 20 -27 22 -10 35 9 7 17 18 17 25 0 6 9 11 20 11 11 0 20 -6
20 -13 0 -11 26 -15 63 -8 33 5 -37 61 -77 61 -8 0 -17 11 -20 24 -5 22 -30
36 -68 36 -9 0 -33 -21 -53 -46z m83 -22 c3 -21 -18 -52 -35 -52 -4 0 -14 4
-22 9 -11 7 -10 15 9 40 24 35 43 36 48 3z"/>
<path d="M1430 1750 c0 -4 -25 -12 -55 -19 -30 -7 -55 -17 -55 -22 0 -5 -3 -8
-7 -7 -13 3 -53 -13 -53 -21 0 -19 24 -29 50 -21 25 7 31 4 46 -18 13 -20 14
-29 5 -44 -25 -40 -3 -72 30 -42 10 9 19 21 19 27 0 5 18 37 40 70 44 65 45
92 5 100 -14 2 -25 1 -25 -3z m-20 -75 c-7 -8 -16 -12 -21 -9 -13 8 -1 24 18
24 13 0 13 -3 3 -15z"/>
<path d="M4278 1590 c-32 -25 -52 -72 -44 -105 3 -13 22 -40 41 -60 60 -60
132 -43 177 41 10 20 15 33 9 30 -5 -3 -12 6 -16 21 -8 38 -24 57 -62 76 -42
22 -75 21 -105 -3z m115 -61 c29 -36 15 -74 -34 -92 -9 -3 -30 3 -48 14 -25
15 -31 25 -31 53 0 23 6 39 18 46 24 15 74 4 95 -21z"/>
<path d="M1530 1580 c-8 -5 -15 -25 -15 -49 0 -22 2 -38 5 -36 4 2 14 -10 24
-27 15 -25 16 -32 5 -39 -24 -14 -54 15 -57 55 -4 41 -28 50 -40 15 -14 -37
-2 -74 32 -97 39 -27 77 -28 99 -4 22 25 21 46 -5 99 -15 31 -19 46 -11 54 16
16 51 -26 46 -55 -6 -30 16 -45 32 -23 7 9 15 14 18 10 4 -3 2 9 -3 28 -6 19
-10 35 -10 36 0 1 -10 11 -22 23 -23 21 -72 26 -98 10z"/>
<path d="M4106 1457 c3 -10 9 -15 12 -12 3 3 0 11 -7 18 -10 9 -11 8 -5 -6z"/>
<path d="M4134 1446 c-3 -8 4 -33 16 -56 24 -47 18 -67 -10 -32 -10 12 -23 22
-28 22 -5 0 -15 7 -22 15 -9 11 -16 12 -31 2 -24 -15 -24 -15 6 -81 30 -65 31
-71 7 -48 -46 43 -74 62 -92 62 -30 0 -24 -23 16 -56 19 -16 52 -44 72 -61 66
-60 94 -41 62 43 -11 31 -18 59 -16 62 3 2 19 -10 36 -28 16 -18 30 -29 30
-25 0 4 7 2 15 -5 18 -15 45 -6 45 15 0 9 -17 54 -37 101 -34 79 -57 102 -69
70z"/>
<path d="M1710 1420 c-11 -11 -20 -27 -20 -35 0 -20 22 -67 42 -89 22 -25 13
-39 -20 -31 -32 8 -42 21 -42 58 0 34 -27 37 -39 5 -14 -38 40 -115 79 -112 8
0 23 2 32 2 10 1 25 13 34 27 13 20 14 30 4 60 -6 19 -15 33 -19 30 -7 -4 -31
36 -31 50 0 12 43 3 57 -11 12 -11 13 -18 5 -26 -8 -8 -9 -15 -1 -25 18 -21
36 -15 43 12 8 30 -5 56 -40 84 -33 26 -58 27 -84 1z"/>
<path d="M1925 1255 c-22 -19 -43 -34 -47 -35 -17 -1 -76 -64 -71 -76 7 -19
20 -18 56 8 26 19 30 19 24 4 -4 -9 -3 -15 2 -11 22 13 43 -8 39 -40 -3 -24 1
-36 15 -45 10 -6 22 -9 25 -6 3 3 3 6 0 6 -5 0 12 89 31 165 7 27 7 43 -1 52
-16 20 -29 16 -73 -22z m25 -53 c0 -13 -12 -22 -22 -16 -10 6 -1 24 13 24 5 0
9 -4 9 -8z"/>
<path d="M3886 1275 c-3 -9 -6 -37 -6 -61 l0 -45 -32 22 c-18 13 -35 26 -38
30 -7 9 -50 -8 -50 -20 0 -5 29 -27 65 -50 38 -23 69 -51 75 -66 10 -27 37
-34 46 -11 3 8 -2 29 -11 46 -12 24 -16 51 -13 99 2 54 0 66 -13 69 -9 2 -19
-4 -23 -13z"/>
<path d="M2124 1173 c-42 -20 -64 -61 -64 -117 0 -39 4 -48 33 -70 19 -15 44
-26 55 -26 12 0 22 -4 22 -8 0 -4 8 -8 19 -9 12 -1 25 12 40 41 11 24 21 47
21 52 0 5 -16 18 -34 28 -54 29 -91 5 -43 -29 19 -13 20 -17 7 -25 -16 -10
-46 -4 -67 12 -17 14 -10 74 12 98 10 11 28 20 40 20 28 0 66 -36 59 -55 -4
-10 0 -15 16 -15 18 0 21 5 18 37 -3 32 -9 41 -43 60 -47 26 -50 27 -91 6z"/>
<path d="M3620 1148 c-19 -5 -46 -10 -59 -10 -13 0 -20 -3 -15 -6 5 -4 9 -18
8 -32 0 -14 3 -29 7 -35 4 -5 19 -40 34 -77 15 -38 28 -68 29 -68 4 0 109 40
111 42 12 15 23 75 19 98 -7 34 -51 87 -79 93 -11 3 -36 0 -55 -5z m50 -41
c30 -25 49 -71 38 -92 -26 -47 -51 -46 -72 3 -9 20 -22 45 -27 55 -6 11 -9 20
-7 20 2 1 12 7 23 14 25 15 27 15 45 0z"/>
<path d="M2363 1103 c-7 -3 -13 -17 -13 -33 0 -16 -4 -30 -9 -32 -5 -1 -12
-21 -15 -42 -4 -22 -10 -44 -15 -50 -14 -19 3 -51 29 -54 14 -2 30 -8 36 -13
7 -5 16 -9 20 -7 5 1 20 -2 33 -6 16 -5 26 -4 31 5 9 14 -10 50 -22 43 -5 -3
-24 0 -44 6 -24 8 -34 17 -32 28 3 13 13 16 43 14 22 -2 42 -8 46 -13 3 -6 10
-5 17 3 6 8 8 18 4 23 -12 17 -52 36 -62 30 -6 -4 -10 -1 -10 5 0 6 -5 8 -12
4 -8 -5 -9 -2 -5 10 4 10 7 20 7 22 0 2 9 4 20 4 11 0 20 -4 20 -10 0 -5 7 -7
16 -3 9 3 19 1 23 -6 5 -8 12 -7 27 3 17 13 17 16 4 30 -17 16 -118 45 -137
39z"/>
<path d="M3364 1071 c3 -5 -3 -11 -14 -14 -24 -6 -40 -45 -40 -99 0 -32 7 -47
34 -74 31 -31 40 -35 80 -32 24 2 43 5 40 7 -2 2 7 12 20 22 29 23 42 83 27
122 -18 47 -60 76 -109 77 -24 0 -41 -4 -38 -9z m84 -54 c6 -7 15 -24 21 -38
8 -22 5 -31 -17 -57 -26 -29 -28 -30 -59 -17 -34 14 -47 43 -41 86 2 16 9 24
20 23 10 -1 15 2 12 7 -8 14 52 10 64 -4z"/>
<path d="M3074 1018 c-10 -16 -11 -58 -2 -58 4 0 8 -20 8 -44 0 -24 3 -58 6
-75 7 -32 7 -32 55 -27 27 3 57 10 68 15 10 6 22 7 26 3 3 -4 6 -2 5 3 -1 6
-1 15 0 20 7 29 4 73 -5 72 -5 -1 -9 12 -7 30 6 59 -10 73 -83 73 -39 0 -67
-5 -71 -12z m109 -42 c6 -16 -29 -34 -55 -28 -21 4 -24 28 -5 35 24 10 55 7
60 -7z m17 -91 c0 -22 -4 -25 -38 -25 -30 0 -39 4 -39 18 0 22 15 32 50 32 22
0 27 -4 27 -25z"/>
<path d="M2730 1005 c-7 -8 -10 -29 -8 -45 3 -22 0 -34 -13 -40 -26 -15 -33
-59 -12 -82 26 -29 60 -40 85 -27 14 8 23 8 31 0 6 -6 17 -11 24 -11 15 0 18
36 3 45 -6 4 -6 15 0 31 10 25 13 70 4 47 -3 -7 -12 -9 -20 -6 -8 3 -14 0 -14
-7 0 -6 -5 -8 -11 -5 -7 5 -5 13 5 24 19 21 21 62 4 79 -17 17 -63 15 -78 -3z
m50 -35 c0 -5 -4 -10 -10 -10 -5 0 -10 5 -10 10 0 6 5 10 10 10 6 0 10 -4 10
-10z m-12 -103 c2 -10 -3 -17 -12 -17 -9 0 -16 2 -16 4 0 2 -3 12 -6 21 -5 13
-2 16 12 13 10 -2 20 -11 22 -21z"/>
<path d="M0 65 l0 -65 40 0 c44 0 49 7 22 36 -10 10 -26 36 -35 57 -10 20 -20
37 -22 37 -3 0 -5 -29 -5 -65z"/>
</g>
</svg>
