<?xml version="1.0" standalone="no"?>
<!DOCTYPE svg PUBLIC "-//W3C//DTD SVG 20010904//EN"
 "http://www.w3.org/TR/2001/REC-SVG-20010904/DTD/svg10.dtd">
<svg version="1.0" xmlns="http://www.w3.org/2000/svg"
 width="581.000000pt" height="581.000000pt" viewBox="0 0 581.000000 581.000000"
 preserveAspectRatio="xMidYMid meet">
<metadata>
Created by potrace 1.16, written by Peter Selinger 2001-2019
</metadata>
<g transform="translate(0.000000,581.000000) scale(0.100000,-0.100000)"
fill="#FFFFFF" stroke="none">
<path d="M0 5678 l0 -133 21 35 c28 46 95 116 139 144 19 13 62 34 95 47 l60
24 645 5 645 6 -802 2 -803 2 0 -132z"/>
<path d="M5585 5801 c56 -10 144 -52 188 -91 l37 -32 0 66 0 66 -132 -1 c-83
-1 -118 -4 -93 -8z"/>
<path d="M2804 5047 c-2 -7 -3 -107 -2 -222 3 -179 5 -210 18 -210 13 0 16 32
20 210 l5 210 50 5 c35 4 45 7 32 13 -31 12 -117 8 -123 -6z"/>
<path d="M2972 5039 c7 -5 23 -9 34 -9 59 0 97 -75 74 -145 -15 -46 -56 -65
-140 -65 -62 0 -74 -13 -21 -23 21 -5 45 -28 93 -89 59 -76 107 -113 124 -95
4 4 -11 26 -32 51 -21 24 -56 65 -77 90 l-38 46 35 0 c73 0 131 89 107 163
-19 57 -63 88 -122 86 -31 -2 -45 -5 -37 -10z"/>
<path d="M2628 5035 c-3 -3 -60 -16 -128 -30 -67 -13 -127 -28 -132 -33 -6 -6
1 -61 20 -148 17 -77 36 -170 42 -207 l13 -69 31 4 c17 3 84 16 148 29 91 18
118 28 118 40 0 27 -10 28 -68 4 -32 -13 -86 -29 -120 -36 -53 -11 -65 -11
-72 1 -11 18 -35 178 -27 186 3 3 51 8 106 11 90 5 101 8 101 24 0 11 -7 19
-17 19 -23 0 -173 -29 -183 -35 -13 -8 -31 21 -36 57 -3 18 -9 47 -13 64 -5
17 -6 37 -2 43 9 13 99 29 189 33 55 3 62 5 60 22 -3 20 -20 31 -30 21z"/>
<path d="M3390 4994 c0 -8 -44 -88 -99 -177 -132 -218 -127 -207 -98 -207 18
0 28 8 37 30 26 62 48 80 98 80 82 0 142 -55 156 -141 5 -30 11 -39 26 -39 24
0 24 6 4 90 -8 36 -26 117 -39 181 -36 179 -43 199 -65 199 -12 0 -20 -7 -20
-16z m29 -116 c7 -40 19 -98 26 -128 14 -52 12 -76 -3 -54 -18 26 -75 55 -112
57 -44 1 -46 4 -26 32 7 11 30 53 50 93 21 39 41 72 45 72 4 0 13 -33 20 -72z"/>
<path d="M2184 4917 c-3 -8 8 -47 25 -87 17 -40 31 -74 31 -75 0 -3 -61 -18
-70 -17 -17 2 -99 -55 -122 -85 l-28 -36 -9 24 c-48 122 -70 164 -84 167 -11
2 -17 -3 -17 -15 1 -27 155 -386 168 -391 25 -8 23 30 -4 98 l-27 70 18 41
c21 45 63 85 114 106 59 25 73 14 120 -97 39 -90 60 -116 75 -91 5 7 -30 98
-79 206 -7 17 -29 66 -48 109 -34 80 -52 101 -63 73z"/>
<path d="M3724 4898 c-4 -13 -19 -50 -34 -83 -69 -151 -120 -274 -120 -289 0
-37 31 -12 59 49 17 36 31 69 31 74 0 23 25 20 100 -14 50 -21 97 -35 122 -35
55 0 105 34 118 80 13 47 13 56 -6 97 -14 29 -34 42 -130 89 -62 30 -117 54
-123 54 -5 0 -13 -10 -17 -22z m74 -17 c9 -5 39 -19 65 -31 69 -30 97 -63 97
-115 0 -51 -27 -89 -74 -105 -28 -9 -44 -7 -107 16 -80 29 -92 38 -84 70 6 29
73 174 80 174 3 0 13 -4 23 -9z"/>
<path d="M1695 4669 c-39 -28 -93 -66 -122 -85 -65 -44 -75 -55 -62 -74 7 -12
19 -4 59 40 l50 55 25 -30 c14 -16 53 -70 87 -120 97 -141 138 -195 149 -195
26 0 16 34 -26 92 -100 136 -185 262 -185 274 0 11 54 41 103 58 19 6 19 27 1
33 -5 2 -41 -20 -79 -48z"/>
<path d="M4142 4678 c-12 -18 -66 -96 -121 -173 -56 -76 -101 -142 -101 -146
0 -12 228 -169 245 -169 32 0 13 31 -30 50 -50 22 -157 87 -167 103 -6 10 12
37 88 142 21 28 22 28 47 12 14 -9 52 -41 86 -73 47 -43 62 -52 67 -40 8 22 2
29 -86 90 l-80 56 27 43 c16 23 32 47 38 54 31 37 37 43 45 43 12 0 157 -126
169 -147 10 -18 41 -11 41 9 -1 7 -37 38 -81 68 -45 30 -97 67 -116 83 -20 15
-39 27 -43 27 -5 0 -17 -15 -28 -32z"/>
<path d="M4428 4352 c-46 -43 -96 -89 -111 -103 -53 -44 -71 -111 -48 -172 17
-44 107 -123 157 -137 51 -15 32 -27 189 121 38 37 85 79 103 94 34 29 41 49
18 58 -9 4 -53 -31 -113 -86 -149 -140 -171 -157 -201 -157 -41 0 -97 43 -122
94 -32 66 -19 96 83 188 148 136 169 157 162 168 -13 21 -36 8 -117 -68z"/>
<path d="M1215 4248 c-27 -35 -52 -67 -57 -73 -4 -5 -21 -26 -38 -46 -38 -46
-38 -60 1 -90 44 -33 130 -103 213 -172 39 -31 75 -57 81 -57 19 0 187 219
181 235 -10 27 -24 16 -60 -47 -55 -96 -91 -143 -109 -142 -22 2 -147 106
-147 123 0 8 32 44 71 82 65 61 80 90 46 89 -7 -1 -39 -34 -71 -75 -33 -41
-66 -75 -74 -75 -16 0 -113 74 -125 96 -5 9 20 41 82 102 66 66 87 92 78 101
-17 17 -21 15 -72 -51z"/>
<path d="M2835 4270 c-387 -62 -686 -207 -909 -440 -170 -179 -305 -442 -358
-700 -30 -141 -32 -396 -4 -550 38 -212 138 -430 282 -610 54 -68 230 -236
295 -283 235 -167 508 -258 784 -260 327 -2 641 105 889 303 267 212 443 484
500 770 10 47 24 116 32 154 8 41 14 127 14 217 0 276 -68 499 -228 749 -83
130 -225 275 -378 383 -97 70 -330 183 -469 229 -118 39 -330 57 -450 38z
m338 -46 c180 -41 454 -169 599 -280 193 -148 309 -286 408 -484 94 -190 126
-301 141 -501 13 -160 5 -237 -46 -474 -26 -121 -106 -310 -159 -376 -12 -14
-30 -38 -41 -54 -242 -342 -610 -549 -1038 -586 -70 -7 -130 -9 -133 -7 -4 5
-31 97 -41 145 -5 20 -2 21 28 14 19 -4 49 -15 66 -25 18 -9 53 -19 78 -23 41
-5 45 -4 45 15 0 55 -104 213 -189 286 -14 12 -38 35 -55 52 -33 32 -150 84
-191 84 -33 0 -32 20 3 53 36 35 45 34 79 -6 47 -56 131 -104 203 -117 36 -6
92 -20 125 -31 69 -22 117 -24 218 -8 83 14 99 23 91 54 -5 20 -1 23 36 28 77
10 77 34 2 113 -58 62 -125 115 -177 143 -36 19 -37 20 -10 15 17 -4 40 -13
52 -20 12 -8 34 -14 48 -14 15 0 36 -5 47 -11 12 -7 56 -14 97 -17 192 -15
227 -5 175 49 -72 76 -304 198 -380 200 -21 0 -59 4 -84 8 -41 6 -43 8 -24 18
14 8 39 9 82 3 122 -17 303 48 369 134 18 22 49 59 70 81 91 96 105 135 54
153 -65 23 -333 -37 -415 -93 l-36 -24 0 30 c0 16 9 78 21 137 16 82 18 113
10 135 -13 35 -27 34 -85 -4 -26 -17 -48 -30 -49 -28 -2 2 -11 16 -20 32 -24
37 -47 34 -100 -14 -88 -78 -157 -224 -157 -334 0 -84 32 -185 83 -258 10 -16
8 -21 -18 -40 -16 -12 -54 -41 -83 -65 -30 -24 -56 -42 -58 -39 -3 3 4 21 15
40 26 46 51 216 51 338 -1 91 -13 162 -36 204 -6 11 -15 38 -19 60 -7 40 -21
65 -35 65 -23 0 -97 -95 -133 -170 -51 -104 -46 -98 -58 -77 -24 42 -74 -2
-141 -122 -38 -70 -42 -73 -54 -55 -19 25 -64 81 -87 106 -10 10 -26 18 -35
16 -38 -7 -74 -131 -73 -254 1 -54 -3 -75 -15 -85 -28 -23 -75 -137 -84 -202
-10 -70 -5 -195 9 -244 14 -47 -3 -41 -24 10 -44 102 -53 123 -60 147 -4 14
-12 31 -18 38 -11 14 -57 122 -57 134 0 4 12 14 28 22 41 22 172 150 172 168
0 12 -10 18 -32 20 -42 4 -221 -17 -239 -27 -7 -5 -3 5 8 21 29 40 173 184
184 184 19 0 69 44 69 61 0 25 -45 37 -170 45 -60 4 -110 8 -110 10 0 2 21 23
48 46 81 72 152 152 152 170 0 10 -10 20 -25 24 -31 8 -32 20 -2 35 27 14 127
120 127 135 0 21 -28 35 -59 31 -17 -3 -33 -1 -37 4 -3 5 0 9 6 9 19 0 100 82
100 101 0 12 -10 21 -25 25 -43 11 -271 -14 -318 -35 -23 -10 -54 -23 -69 -29
-14 -6 -47 -27 -73 -47 -26 -20 -49 -34 -51 -32 -2 1 -1 12 2 23 3 13 28 30
70 48 87 38 151 98 192 179 17 36 32 73 32 82 0 9 5 25 10 36 6 11 13 34 15
53 3 18 13 52 24 77 24 52 27 97 7 105 -18 7 -49 -9 -105 -55 -79 -64 -14 18
111 140 175 171 397 284 696 354 116 28 158 33 270 34 90 1 156 -4 205 -15z
m-1205 -531 c-7 -16 -18 -37 -25 -48 -7 -11 -13 -36 -13 -55 0 -20 -7 -45 -15
-56 -8 -10 -15 -30 -15 -42 0 -25 -50 -123 -75 -149 -18 -18 -125 -83 -137
-83 -9 0 56 135 77 160 7 8 24 36 38 61 13 25 31 55 38 67 7 12 10 25 6 29
-14 13 -107 -119 -149 -209 -12 -27 -25 -48 -30 -48 -25 0 94 235 131 258 14
9 32 25 40 36 8 10 25 28 39 40 14 12 36 31 50 44 36 32 55 30 40 -5z m167
-428 c0 -5 -22 -24 -49 -42 -26 -17 -60 -42 -75 -56 -49 -46 -146 -88 -261
-113 -73 -16 -110 -18 -110 -6 0 8 136 75 218 107 47 19 57 39 15 29 -38 -8
-128 -43 -185 -71 -27 -13 -48 -19 -48 -14 0 20 110 100 170 124 93 36 106 39
195 47 99 9 130 8 130 -5z m-55 -185 c-27 -27 -63 -56 -80 -65 -16 -8 -30 -20
-30 -25 0 -12 -61 -53 -153 -103 -51 -28 -86 -39 -133 -44 -36 -3 -64 -2 -64
3 0 11 108 78 195 122 68 35 106 61 87 62 -17 0 -193 -83 -253 -120 -27 -16
-52 -30 -55 -30 -3 0 16 25 43 56 53 62 88 84 130 84 16 0 45 9 66 20 20 11
43 20 51 20 9 0 46 16 83 35 49 24 82 34 116 35 l47 0 -50 -50z m1054 -96 c5
-20 -1 -36 -31 -75 -35 -47 -38 -49 -44 -27 -8 29 -11 21 -38 -99 -12 -50 -21
-125 -21 -165 0 -83 -9 -148 -20 -148 -13 0 -39 77 -50 148 -20 125 37 272
140 366 44 40 54 40 64 0z m-1484 18 c0 -4 -16 -23 -35 -42 l-35 -34 0 35 c0
20 3 39 7 42 9 10 63 9 63 -1z m1624 -8 c3 -9 4 -20 1 -25 -7 -11 -24 -103
-35 -196 -10 -84 -52 -180 -104 -238 -31 -35 -35 -37 -36 -18 0 33 28 158 45
199 17 41 19 54 7 54 -16 0 -54 -97 -77 -192 l-22 -93 -15 48 c-11 37 -12 66
-5 125 9 79 17 101 67 187 25 43 143 164 161 165 4 0 10 -7 13 -16z m-1244
-60 c0 -12 -130 -133 -219 -203 -56 -44 -112 -79 -139 -87 -25 -8 -47 -12 -49
-10 -4 4 45 47 97 86 61 46 75 59 62 60 -20 0 -84 -35 -136 -74 -25 -20 -49
-36 -52 -36 -9 0 30 64 60 97 16 18 42 35 59 39 42 9 193 79 202 94 15 24 115
54 115 34z m770 -53 c0 -19 6 -42 13 -50 37 -45 43 -194 17 -385 -11 -73 -53
-176 -72 -176 -11 0 -3 415 9 446 3 7 1 14 -5 14 -17 0 -35 -129 -41 -305 -6
-170 -6 -170 -25 -143 -10 16 -31 65 -48 110 -27 77 -28 90 -23 178 7 105 11
121 63 229 42 88 91 149 103 129 5 -7 9 -28 9 -47z m-1170 -83 c0 -4 -11 -20
-25 -35 l-24 -28 -1 37 c0 34 2 38 25 36 14 -1 25 -6 25 -10z m2090 2 c0 -6
-24 -36 -52 -68 -29 -32 -69 -76 -88 -98 -64 -74 -203 -134 -312 -134 -26 0
-48 4 -48 10 0 5 19 19 42 31 23 12 54 29 68 39 14 9 53 35 87 56 35 21 63 45
63 52 0 14 -131 -49 -219 -105 -29 -19 -55 -32 -58 -30 -2 3 5 24 17 47 53
104 162 165 355 200 62 11 145 11 145 0z m-1134 -216 c0 -70 6 -135 13 -158
17 -50 6 -275 -16 -326 -15 -35 -15 -35 -24 -11 -12 32 -28 186 -30 286 -1 71
-2 76 -11 45 -10 -35 -5 -278 7 -350 l6 -35 -29 34 c-46 54 -74 157 -74 270
-1 140 28 228 110 339 39 54 47 38 48 -94z m-493 87 c20 -8 19 -9 -13 -26 -19
-9 -44 -25 -55 -35 -21 -19 -81 -44 -150 -62 -50 -13 -209 -22 -244 -13 -23 6
-24 8 -8 16 10 6 25 12 35 14 50 11 172 34 205 40 37 6 52 25 20 25 -16 0
-103 -12 -178 -25 -27 -5 -26 -2 15 21 99 58 126 65 243 59 60 -4 118 -10 130
-14z m233 -68 c15 -21 30 -40 33 -43 15 -14 50 -88 44 -94 -4 -4 -10 -41 -13
-84 l-5 -77 -29 75 c-54 138 -59 148 -63 124 -4 -20 58 -209 126 -388 16 -43
33 -92 36 -108 l7 -30 -29 15 c-15 8 -36 23 -45 34 -20 22 -98 171 -98 187 0
6 -11 38 -25 71 -34 83 -32 234 6 331 12 33 22 30 55 -13z m-397 -90 c-8 -10
-22 -27 -33 -38 -10 -11 -30 -36 -44 -55 -65 -88 -128 -138 -158 -126 -23 9
-17 21 37 81 29 30 49 58 46 61 -9 9 -43 -13 -70 -46 -25 -29 -47 -39 -47 -21
0 5 -2 16 -5 23 -3 8 12 32 35 55 34 35 48 43 95 48 30 4 72 13 92 21 55 19
69 18 52 -3z m-266 -22 c17 -6 17 -8 -3 -26 -18 -16 -23 -17 -30 -5 -22 34 -8
48 33 31z m1662 -102 c22 -10 47 -23 55 -27 8 -5 38 -20 65 -33 28 -13 76 -42
108 -63 89 -61 68 -63 -178 -24 -38 6 -74 14 -80 18 -5 4 -35 15 -65 25 -53
17 -130 59 -130 71 0 3 3 4 8 2 85 -41 195 -69 261 -67 24 0 24 1 6 9 -11 5
-80 28 -152 50 -73 23 -133 46 -133 50 0 24 178 15 235 -11z m-1231 -10 c-45
-51 -137 -119 -174 -129 -22 -6 -40 -14 -40 -19 0 -13 -81 -51 -110 -51 -52 0
-45 38 10 55 43 13 175 82 189 99 20 24 -1 20 -59 -9 -57 -29 -177 -75 -194
-75 -6 1 7 10 29 22 22 11 54 33 70 48 17 15 44 34 60 43 36 18 220 49 234 40
2 -2 -4 -13 -15 -24z m962 -40 c22 -17 41 -32 43 -34 5 -6 -143 7 -149 12 -5
5 50 53 61 53 3 0 24 -14 45 -31z m-816 -76 c19 -44 20 -53 9 -105 -8 -38 -10
-121 -7 -247 l4 -190 -23 27 c-65 74 -88 169 -80 328 6 112 23 173 60 222 14
17 14 17 37 -35z m475 -60 c7 -10 -2 -25 -39 -61 l-49 -47 6 49 c4 27 7 74 7
104 l0 55 33 -43 c17 -24 36 -49 42 -57z m288 76 c36 2 107 -17 127 -33 8 -7
31 -19 50 -26 49 -19 110 -62 180 -126 63 -59 75 -84 39 -84 -32 0 -193 40
-203 51 -6 5 -17 9 -27 9 -16 0 -123 53 -172 85 -14 9 -37 32 -52 51 -31 40
-37 41 113 -25 106 -47 235 -86 230 -69 -2 5 -42 25 -88 44 -47 18 -98 40
-115 48 -16 8 -60 29 -97 46 -70 31 -89 48 -40 35 15 -4 40 -7 55 -6z m-114
-61 l20 -33 -52 -7 c-76 -9 -87 2 -41 40 21 18 42 32 45 32 4 0 16 -15 28 -32z
m-934 -76 c10 -26 23 -56 30 -67 7 -12 25 -52 40 -90 15 -39 41 -96 57 -128
16 -32 28 -67 26 -77 -3 -17 -7 -15 -41 13 -27 24 -47 57 -73 122 -20 50 -41
96 -47 103 -18 23 -19 4 -2 -47 23 -70 14 -84 -22 -34 -39 55 -50 141 -27 220
18 63 31 60 59 -15z m-95 -36 c0 -36 -3 -67 -8 -70 -4 -2 -25 20 -45 50 l-38
54 33 15 c55 24 58 21 58 -49z m1190 -17 c98 -51 152 -74 196 -83 17 -4 44
-20 59 -36 l29 -30 -37 0 c-20 0 -57 -5 -82 -12 -38 -10 -54 -10 -108 6 -34
10 -82 22 -107 26 -102 19 -128 28 -182 63 -32 21 -62 46 -68 56 -9 18 -5 18
72 -6 45 -14 93 -29 106 -34 14 -5 29 -6 33 -2 4 4 -41 28 -101 52 -60 24
-108 47 -106 50 2 3 51 3 108 0 97 -6 108 -9 188 -50z m-728 -19 c17 -39 19
-57 14 -140 -7 -93 -30 -190 -45 -190 -18 0 -30 320 -14 378 7 28 14 21 45
-48z m148 -138 c-1 -4 -28 -36 -61 -72 -34 -36 -58 -56 -55 -45 3 11 8 50 10
88 3 37 8 71 11 76 5 10 95 -35 95 -47z m262 17 c54 -25 96 -58 156 -119 64
-66 82 -87 82 -95 0 -4 11 -22 23 -39 60 -79 58 -105 -6 -76 -23 10 -71 32
-107 48 -70 31 -165 99 -216 154 -34 36 -79 107 -72 113 6 6 94 -53 197 -132
52 -40 97 -70 100 -67 10 10 -130 137 -206 187 -40 27 -73 53 -73 58 0 14 60
-2 122 -32z m-169 -40 c10 -18 16 -34 13 -36 -6 -6 -76 17 -76 24 0 9 32 43
39 43 3 0 14 -14 24 -31z m57 -104 c19 -13 49 -35 65 -50 17 -15 41 -34 55
-42 40 -24 70 -68 96 -140 34 -92 32 -103 -12 -103 -100 0 -275 175 -319 319
l-7 24 32 -23 c17 -12 59 -49 92 -82 34 -32 63 -56 66 -53 7 7 -42 68 -106
132 -54 52 -55 55 -27 49 17 -4 46 -18 65 -31z m-146 -45 c19 -38 31 -70 27
-70 -16 0 -97 32 -115 45 -18 13 -17 16 14 55 17 22 34 40 36 40 2 0 20 -31
38 -70z m-260 -46 c21 -25 36 -47 33 -50 -3 -4 -13 1 -22 9 -9 9 -29 24 -44
33 -23 14 -30 26 -33 57 -4 38 -3 39 12 17 8 -12 33 -42 54 -66z m142 -111
c-3 -3 -19 5 -36 17 -30 21 -30 23 -14 42 18 19 18 18 37 -17 10 -20 16 -39
13 -42z m155 39 c24 -16 70 -54 102 -85 32 -31 62 -57 67 -57 6 0 10 -4 10 -8
0 -10 -140 28 -215 58 -33 14 -57 32 -72 55 -36 54 -27 58 30 15 71 -54 94
-50 32 5 -46 42 -48 45 -24 45 14 0 45 -13 70 -28z"/>
<path d="M2982 4111 c-18 -11 -12 -45 8 -48 8 -2 22 1 30 7 13 8 12 12 -5 29
-13 13 -25 17 -33 12z"/>
<path d="M3230 4070 c0 -5 7 -10 15 -10 8 0 15 5 15 10 0 6 -7 10 -15 10 -8 0
-15 -4 -15 -10z"/>
<path d="M3142 4038 c-17 -17 -15 -32 6 -52 18 -15 20 -15 35 2 22 24 21 39
-2 52 -24 13 -24 13 -39 -2z"/>
<path d="M3403 4033 c-18 -7 -16 -38 3 -53 12 -11 18 -10 32 4 25 25 -2 63
-35 49z"/>
<path d="M2970 3950 c0 -5 5 -10 10 -10 6 0 10 5 10 10 0 6 -4 10 -10 10 -5 0
-10 -4 -10 -10z"/>
<path d="M3480 3930 c0 -19 3 -21 12 -12 9 9 9 15 0 24 -9 9 -12 7 -12 -12z"/>
<path d="M3252 3882 c-12 -60 -33 -87 -95 -126 -23 -14 -26 -20 -16 -32 6 -8
19 -14 28 -14 30 0 70 -53 80 -104 15 -82 37 -80 55 4 10 44 44 89 81 104 44
19 44 32 1 52 -38 18 -72 71 -84 130 -13 62 -36 55 -50 -14z"/>
<path d="M3056 3905 c-22 -22 -20 -42 5 -50 14 -5 27 -1 37 9 15 15 15 18 -4
37 -20 19 -22 19 -38 4z"/>
<path d="M2968 3883 c7 -3 16 -2 19 1 4 3 -2 6 -13 5 -11 0 -14 -3 -6 -6z"/>
<path d="M3170 3880 c0 -5 5 -10 10 -10 6 0 10 5 10 10 0 6 -4 10 -10 10 -5 0
-10 -4 -10 -10z"/>
<path d="M3490 3875 c-15 -18 -7 -43 16 -52 11 -4 22 1 30 12 12 16 11 21 -3
37 -20 22 -27 22 -43 3z"/>
<path d="M2635 3871 c-3 -5 -1 -12 5 -16 5 -3 10 1 10 9 0 18 -6 21 -15 7z"/>
<path d="M2952 3818 c-18 -18 -15 -42 7 -55 16 -10 22 -8 37 8 16 18 16 20 -1
39 -21 23 -27 24 -43 8z"/>
<path d="M2980 3685 c0 -8 5 -15 10 -15 6 0 10 7 10 15 0 8 -4 15 -10 15 -5 0
-10 -7 -10 -15z"/>
<path d="M2896 3671 c-4 -5 -2 -12 3 -15 5 -4 12 -2 15 3 4 5 2 12 -3 15 -5 4
-12 2 -15 -3z"/>
<path d="M2380 3651 c0 -6 5 -13 10 -16 6 -3 10 1 10 9 0 9 -4 16 -10 16 -5 0
-10 -4 -10 -9z"/>
<path d="M2515 3640 c3 -5 10 -10 16 -10 5 0 9 5 9 10 0 6 -7 10 -16 10 -8 0
-12 -4 -9 -10z"/>
<path d="M3955 3620 c-8 -13 4 -32 16 -25 12 8 12 35 0 35 -6 0 -13 -4 -16
-10z"/>
<path d="M2975 3606 c-20 -15 -15 -43 10 -52 17 -7 58 24 49 37 -13 21 -41 28
-59 15z"/>
<path d="M2360 3590 c0 -5 4 -10 9 -10 6 0 13 5 16 10 3 6 -1 10 -9 10 -9 0
-16 -4 -16 -10z"/>
<path d="M3140 3564 c0 -8 5 -12 10 -9 6 4 8 11 5 16 -9 14 -15 11 -15 -7z"/>
<path d="M4020 3540 c0 -5 4 -10 9 -10 6 0 13 5 16 10 3 6 -1 10 -9 10 -9 0
-16 -4 -16 -10z"/>
<path d="M2836 3466 c-8 -19 -24 -41 -35 -48 -27 -17 -26 -29 4 -58 14 -13 25
-33 25 -46 0 -34 29 -39 42 -6 7 15 25 41 40 58 l29 31 -25 17 c-14 9 -29 30
-34 48 -11 44 -29 46 -46 4z"/>
<path d="M3170 3491 c0 -6 5 -13 10 -16 6 -3 10 1 10 9 0 9 -4 16 -10 16 -5 0
-10 -4 -10 -9z"/>
<path d="M2597 3484 c-12 -12 -8 -41 9 -54 22 -19 54 12 38 38 -12 19 -36 27
-47 16z"/>
<path d="M2590 3370 c0 -5 5 -10 10 -10 6 0 10 5 10 10 0 6 -4 10 -10 10 -5 0
-10 -4 -10 -10z"/>
<path d="M4016 3373 c-11 -11 -6 -23 9 -23 8 0 15 4 15 9 0 13 -16 22 -24 14z"/>
<path d="M2665 3360 c3 -5 8 -10 11 -10 2 0 4 5 4 10 0 6 -5 10 -11 10 -5 0
-7 -4 -4 -10z"/>
<path d="M4080 3344 c0 -9 5 -14 12 -12 18 6 21 28 4 28 -9 0 -16 -7 -16 -16z"/>
<path d="M3918 3323 c-2 -17 -12 -32 -25 -38 -33 -14 -36 -34 -8 -45 14 -5 30
-21 35 -35 13 -33 26 -32 39 5 6 17 21 34 35 40 33 12 32 16 -3 34 -16 9 -32
27 -35 41 -9 34 -34 32 -38 -2z"/>
<path d="M2520 3315 c-13 -16 -6 -65 9 -65 12 0 41 28 41 39 0 4 -8 15 -19 25
-16 15 -20 15 -31 1z"/>
<path d="M2635 3310 c-3 -5 -1 -10 4 -10 6 0 11 5 11 10 0 6 -2 10 -4 10 -3 0
-8 -4 -11 -10z"/>
<path d="M2691 3244 c-12 -14 -11 -19 7 -36 27 -28 54 -17 50 19 -4 33 -35 42
-57 17z"/>
<path d="M4177 3193 c-12 -11 -8 -23 8 -23 8 0 15 7 15 15 0 16 -12 20 -23 8z"/>
<path d="M4076 3181 c-7 -11 18 -33 27 -24 4 3 7 12 7 20 0 15 -26 18 -34 4z"/>
<path d="M3807 3153 c-12 -11 -8 -23 8 -23 8 0 15 7 15 15 0 16 -12 20 -23 8z"/>
<path d="M3826 3091 c-4 -7 -5 -15 -2 -18 9 -9 19 4 14 18 -4 11 -6 11 -12 0z"/>
<path d="M4246 3021 c-4 -7 -5 -15 -2 -18 9 -9 19 4 14 18 -4 11 -6 11 -12 0z"/>
<path d="M4016 2993 c-11 -11 -6 -23 9 -23 8 0 15 4 15 9 0 13 -16 22 -24 14z"/>
<path d="M4105 2990 c3 -5 10 -10 16 -10 5 0 9 5 9 10 0 6 -7 10 -16 10 -8 0
-12 -4 -9 -10z"/>
<path d="M4170 2900 c0 -5 4 -10 9 -10 6 0 13 5 16 10 3 6 -1 10 -9 10 -9 0
-16 -4 -16 -10z"/>
<path d="M4063 2809 c-3 -17 -16 -37 -29 -46 -29 -19 -31 -39 -3 -46 11 -3 25
-19 32 -36 15 -40 25 -39 42 2 8 18 26 39 42 46 27 12 27 13 8 27 -10 8 -22
14 -27 14 -4 0 -14 16 -22 35 -18 43 -35 45 -43 4z"/>
<path d="M3802 2649 c3 -8 8 -13 11 -11 9 3 7 11 -5 18 -6 4 -8 0 -6 -7z"/>
<path d="M3915 2620 c-4 -6 -3 -16 3 -22 6 -6 12 -6 17 2 4 6 3 16 -3 22 -6 6
-12 6 -17 -2z"/>
<path d="M4160 2530 c0 -5 5 -10 10 -10 6 0 10 5 10 10 0 6 -4 10 -10 10 -5 0
-10 -4 -10 -10z"/>
<path d="M4210 2490 c0 -5 7 -10 15 -10 8 0 15 5 15 10 0 6 -7 10 -15 10 -8 0
-15 -4 -15 -10z"/>
<path d="M4140 2470 c0 -5 4 -10 9 -10 6 0 13 5 16 10 3 6 -1 10 -9 10 -9 0
-16 -4 -16 -10z"/>
<path d="M4067 2443 c-4 -3 -7 -15 -7 -25 0 -10 -11 -30 -25 -44 -31 -31 -32
-46 -3 -59 12 -6 25 -21 28 -35 7 -30 33 -33 38 -5 2 11 18 33 35 48 l32 28
-33 25 c-17 14 -32 31 -32 39 0 16 -25 37 -33 28z"/>
<path d="M3920 2426 c0 -9 7 -16 16 -16 17 0 14 22 -4 28 -7 2 -12 -3 -12 -12z"/>
<path d="M3893 2348 c2 -7 7 -13 12 -13 5 0 10 6 13 13 2 6 -4 12 -13 12 -9 0
-15 -6 -12 -12z"/>
<path d="M3922 2268 c6 -18 28 -21 28 -4 0 9 -7 16 -16 16 -9 0 -14 -5 -12
-12z"/>
<path d="M3772 2159 c3 -8 8 -13 11 -11 9 3 7 11 -5 18 -6 4 -8 0 -6 -7z"/>
<path d="M3780 2105 c0 -8 5 -15 10 -15 6 0 10 7 10 15 0 8 -4 15 -10 15 -5 0
-10 -7 -10 -15z"/>
<path d="M3655 1941 c-6 -11 9 -23 19 -14 9 9 7 23 -3 23 -6 0 -12 -4 -16 -9z"/>
<path d="M3554 1902 c-15 -45 -25 -62 -39 -62 -23 0 -18 -19 15 -57 17 -18 30
-38 30 -43 0 -21 22 -8 31 19 5 15 21 34 34 41 32 17 31 26 -5 45 -21 11 -30
23 -30 39 0 29 -28 43 -36 18z"/>
<path d="M3710 1795 c0 -8 7 -15 15 -15 8 0 15 7 15 15 0 8 -7 15 -15 15 -8 0
-15 -7 -15 -15z"/>
<path d="M3412 1754 c2 -11 8 -18 13 -16 15 3 12 25 -3 30 -9 3 -13 -2 -10
-14z"/>
<path d="M3460 1720 c0 -5 7 -10 15 -10 8 0 15 5 15 10 0 6 -7 10 -15 10 -8 0
-15 -4 -15 -10z"/>
<path d="M3260 1690 c0 -5 7 -10 15 -10 8 0 15 5 15 10 0 6 -7 10 -15 10 -8 0
-15 -4 -15 -10z"/>
<path d="M3363 1648 c2 -7 7 -13 12 -13 5 0 10 6 13 13 2 6 -4 12 -13 12 -9 0
-15 -6 -12 -12z"/>
<path d="M3280 1600 c0 -5 5 -10 11 -10 5 0 7 5 4 10 -3 6 -8 10 -11 10 -2 0
-4 -4 -4 -10z"/>
<path d="M4823 4062 c-7 -5 3 -23 33 -56 24 -28 44 -55 44 -60 0 -10 -283
-187 -322 -201 -21 -8 -29 -28 -18 -45 7 -12 70 22 336 181 38 23 42 19 69
-63 15 -45 22 -55 32 -46 7 6 13 14 13 19 0 14 -160 279 -168 279 -4 0 -12 -4
-19 -8z"/>
<path d="M1013 3908 c-42 -11 -97 -77 -114 -136 -25 -89 -8 -161 51 -220 44
-44 83 -63 145 -69 84 -9 119 2 173 55 42 41 51 57 66 120 10 40 16 82 13 95
-5 16 -30 34 -91 64 -73 36 -86 40 -97 27 -15 -18 -12 -21 69 -64 83 -43 101
-73 83 -138 -23 -87 -75 -126 -169 -125 -145 2 -264 129 -231 248 18 63 77
115 133 115 14 0 27 4 31 9 10 17 -28 29 -62 19z"/>
<path d="M4955 3624 c-55 -24 -120 -52 -145 -63 -25 -11 -66 -29 -92 -40 -46
-19 -66 -51 -33 -51 9 0 89 31 178 69 89 38 174 74 190 80 29 11 34 23 15 38
-9 7 -43 -3 -113 -33z"/>
<path d="M4892 3457 c-42 -13 -107 -76 -127 -123 -25 -59 -19 -128 16 -199 33
-67 63 -91 99 -80 20 6 18 9 -24 38 -26 18 -56 52 -70 77 -21 39 -23 51 -15
93 11 59 21 78 58 110 73 61 216 77 278 31 48 -36 73 -82 73 -136 0 -54 -12
-83 -44 -109 -19 -16 -20 -18 -3 -24 27 -11 47 2 63 42 18 41 13 113 -10 167
-18 41 -73 96 -113 112 -38 16 -133 17 -181 1z"/>
<path d="M1070 3369 c-350 -63 -340 -60 -340 -86 0 -13 4 -22 8 -19 5 3 89
-49 187 -114 98 -66 182 -120 186 -120 5 0 9 9 9 19 0 12 -18 30 -50 50 -54
33 -66 59 -57 117 11 69 46 99 145 124 31 8 42 16 42 30 0 23 6 23 -130 -1z
m-45 -76 c-33 -34 -45 -63 -45 -110 l0 -35 -37 22 c-21 13 -58 34 -83 48 -78
43 -86 50 -67 58 15 5 217 41 246 43 8 1 2 -11 -14 -26z"/>
<path d="M960 3001 c-58 -13 -85 -54 -106 -154 -22 -106 -43 -141 -85 -145
-108 -9 -132 197 -30 256 34 19 36 35 5 40 -61 9 -105 -138 -74 -250 23 -82
112 -114 167 -59 30 29 43 63 63 163 20 103 79 142 145 97 59 -41 69 -144 21
-217 -21 -33 -54 -49 -80 -39 -16 6 -26 -11 -19 -30 5 -14 50 -17 78 -7 46 18
79 164 55 248 -19 70 -78 110 -140 97z"/>
<path d="M4864 2985 c-36 -25 -54 -77 -54 -156 0 -59 5 -80 25 -115 30 -52 54
-67 107 -66 43 1 81 21 97 50 5 10 19 64 30 121 26 130 32 141 77 141 26 0 44
-8 66 -30 29 -30 30 -33 26 -107 -3 -73 -5 -77 -41 -108 -45 -39 -46 -47 -6
-43 46 4 69 52 69 141 0 115 -46 187 -118 187 -73 0 -97 -36 -118 -180 -9 -64
-38 -127 -63 -135 -31 -10 -75 3 -99 28 -42 45 -46 150 -8 209 21 32 39 40 72
32 30 -8 34 20 5 36 -27 14 -43 13 -67 -5z"/>
<path d="M4597 2023 c-11 -10 -8 -45 7 -88 16 -45 8 -54 -28 -30 -24 16 -46
14 -46 -5 0 -9 155 -100 171 -100 19 0 7 27 -21 48 -42 32 -39 52 8 52 51 0
82 10 82 26 0 10 -16 13 -67 11 l-67 -2 -13 44 c-14 49 -17 54 -26 44z"/>
<path d="M1198 1974 c-43 -25 -78 -52 -78 -60 0 -19 17 -18 48 5 15 10 38 24
51 31 23 12 22 9 -8 -28 -18 -23 -37 -44 -42 -47 -5 -4 -9 -15 -9 -27 0 -18 4
-19 53 -13 28 3 61 9 72 11 11 3 -4 -9 -32 -26 -29 -18 -53 -38 -53 -46 0 -20
5 -19 92 32 87 51 90 54 78 74 -7 11 -20 11 -84 -1 -76 -15 -88 -12 -63 13 7
7 29 34 49 59 29 35 35 48 26 57 -16 16 -14 17 -100 -34z"/>
<path d="M4474 1799 c-22 -7 -86 -88 -82 -100 5 -14 141 -109 154 -109 23 0
16 17 -16 42 l-30 23 24 30 c23 29 26 29 58 17 48 -19 51 -19 55 -2 2 10 -12
22 -41 35 -25 11 -50 30 -57 42 -13 25 -37 33 -65 22z m40 -45 c7 -18 -23 -74
-39 -74 -5 0 -18 6 -27 13 -15 12 -15 15 4 45 21 34 52 42 62 16z"/>
<path d="M1358 1717 c-53 -19 -88 -38 -88 -46 0 -10 9 -12 36 -8 30 5 40 2 55
-16 23 -27 23 -36 3 -58 -15 -17 -12 -39 5 -39 5 0 32 36 60 80 37 56 50 86
46 100 -8 25 -11 25 -117 -13z m65 -34 c-9 -16 -18 -30 -20 -32 -4 -5 -33 20
-33 28 0 7 44 27 63 30 4 1 0 -11 -10 -26z"/>
<path d="M4269 1571 c-41 -42 -40 -88 5 -135 43 -46 87 -51 137 -15 55 39 41
131 -24 162 -52 25 -84 21 -118 -12z m100 -16 c31 -15 41 -33 41 -70 0 -56
-69 -74 -114 -29 -31 32 -33 62 -6 92 24 26 41 27 79 7z"/>
<path d="M1538 1579 c-24 -14 -22 -52 5 -99 21 -38 21 -40 4 -57 -18 -17 -19
-17 -42 10 -19 21 -23 35 -18 57 4 23 2 30 -10 30 -36 0 -36 -68 1 -102 48
-45 87 -44 112 3 9 16 6 30 -15 70 -14 27 -23 54 -20 59 18 29 65 -10 65 -53
0 -32 15 -35 30 -7 8 15 7 27 -5 50 -24 46 -68 62 -107 39z"/>
<path d="M4146 1453 c-12 -12 -6 -40 18 -86 13 -26 21 -47 18 -47 -3 0 -28 17
-56 38 -75 57 -93 43 -55 -42 11 -26 19 -52 17 -57 -2 -6 -25 8 -51 31 -42 37
-67 45 -67 20 0 -14 151 -131 161 -124 14 8 10 39 -11 90 -11 26 -18 49 -16
52 3 2 24 -10 48 -29 24 -18 48 -36 53 -40 6 -4 17 -4 24 1 12 7 12 13 -1 42
-8 18 -25 59 -38 91 -23 59 -32 71 -44 60z"/>
<path d="M1707 1412 c-24 -26 -21 -44 13 -87 33 -42 35 -68 7 -73 -26 -5 -57
26 -57 58 0 33 -9 43 -27 29 -21 -18 -15 -46 15 -81 21 -22 38 -31 60 -31 64
0 82 52 37 105 -43 50 -27 86 26 58 12 -7 19 -21 19 -40 0 -33 14 -39 29 -12
6 11 6 24 -1 37 -28 52 -90 71 -121 37z"/>
<path d="M1885 1219 c-38 -33 -71 -64 -73 -69 -6 -16 30 -11 49 6 16 14 20 14
47 0 28 -14 30 -19 25 -51 -4 -27 -2 -35 10 -35 9 0 18 8 21 18 13 41 35 175
30 183 -12 20 -43 5 -109 -52z m71 -5 c-3 -9 -6 -22 -6 -30 0 -16 -9 -18 -30
-4 -12 7 -12 12 4 29 23 25 41 28 32 5z"/>
<path d="M3890 1225 c0 -31 -5 -55 -10 -55 -6 0 -28 11 -51 25 -37 24 -59 26
-59 5 0 -5 25 -23 56 -41 31 -17 64 -45 73 -60 9 -16 24 -29 34 -29 22 0 22 5
-4 46 -18 29 -20 43 -14 99 6 56 5 65 -9 65 -13 0 -16 -11 -16 -55z"/>
<path d="M2129 1169 c-30 -11 -69 -75 -69 -114 0 -37 50 -85 89 -85 16 0 33
-4 36 -10 3 -5 10 -10 14 -10 9 0 41 65 41 83 0 17 -67 50 -75 37 -9 -14 3
-30 21 -30 32 0 10 -35 -24 -38 -44 -4 -62 12 -62 59 0 47 28 79 68 79 35 0
48 -9 61 -43 12 -30 31 -28 31 3 0 49 -76 89 -131 69z"/>
<path d="M3593 1134 c-18 -9 -33 -22 -33 -29 0 -13 58 -165 66 -174 8 -9 95
32 109 52 28 40 17 95 -28 145 -24 26 -68 29 -114 6z m100 -39 c39 -54 29
-107 -23 -120 -23 -5 -27 -1 -47 50 -28 67 -28 82 -5 88 38 10 58 5 75 -18z"/>
<path d="M2338 1008 c-15 -51 -23 -97 -19 -101 14 -14 125 -36 135 -27 9 9
-19 24 -73 39 -30 9 -35 21 -19 44 12 16 17 16 61 3 43 -13 47 -13 47 3 0 12
-14 21 -45 29 -44 12 -53 24 -36 50 6 11 16 11 47 3 48 -14 64 -14 64 -1 0 12
-57 37 -103 45 l-33 6 -26 -93z"/>
<path d="M3360 1057 c-57 -29 -63 -121 -12 -170 43 -40 86 -40 131 2 36 33 41
82 16 131 -25 49 -81 64 -135 37z m95 -42 c14 -13 25 -36 25 -50 0 -31 -41
-75 -69 -75 -32 0 -61 39 -61 81 0 68 58 92 105 44z"/>
<path d="M3100 1021 c-28 -8 -28 -6 -17 -118 l8 -83 39 0 c44 0 91 15 102 33
12 19 9 55 -5 68 -7 7 -11 27 -9 48 3 32 0 39 -23 49 -28 13 -56 14 -95 3z
m74 -27 c9 -3 16 -14 16 -24 0 -20 -19 -30 -56 -30 -19 0 -24 5 -24 24 0 22 9
29 42 35 3 0 13 -2 22 -5z m33 -100 c8 -22 -22 -44 -59 -44 -24 0 -28 4 -28
30 0 28 2 30 40 30 28 0 43 -5 47 -16z"/>
<path d="M2730 990 c-6 -11 -8 -31 -4 -45 4 -17 2 -27 -9 -31 -20 -7 -28 -40
-17 -69 10 -27 52 -40 81 -25 15 8 24 8 34 0 19 -16 40 -3 25 15 -7 9 -9 27
-5 45 7 31 -2 39 -23 18 -19 -19 -27 20 -8 41 31 34 13 71 -36 71 -17 0 -31
-7 -38 -20z m56 -11 c10 -17 -13 -36 -27 -22 -12 12 -4 33 11 33 5 0 12 -5 16
-11z m-16 -99 c12 -23 6 -40 -15 -40 -17 0 -34 30 -28 48 7 19 31 14 43 -8z"/>
<path d="M0 62 l0 -62 35 0 c19 0 35 2 35 4 0 2 -16 30 -35 62 l-35 58 0 -62z"/>
</g>
</svg>
